SplineFontDB: 3.2
FontName: SeventySevenScanLinesmedium
FullName: SeventySevenScanLines medium
FamilyName: SeventySevenScanLines
Weight: Book
Copyright: Copyright (c) 2023, Darren S. Embry
UComments: "2023-3-7: Created with FontForge (http://fontforge.org)"
Version: 001.000
ItalicAngle: 0
UnderlinePosition: -100
UnderlineWidth: 50
Ascent: 875
Descent: 125
InvalidEm: 0
LayerCount: 2
Layer: 0 0 "Back" 1
Layer: 1 0 "Fore" 0
XUID: [1021 400 -864366659 10663437]
StyleMap: 0x0040
FSType: 0
OS2Version: 0
OS2_WeightWidthSlopeOnly: 0
OS2_UseTypoMetrics: 1
CreationTime: 1678226834
ModificationTime: 1678226834
PfmFamily: 48
TTFWeight: 400
TTFWidth: 5
LineGap: 0
VLineGap: 0
Panose: 2 0 6 9 0 0 0 0 0 0
OS2TypoAscent: 875
OS2TypoAOffset: 0
OS2TypoDescent: -125
OS2TypoDOffset: 0
OS2TypoLinegap: 0
OS2WinAscent: 875
OS2WinAOffset: 0
OS2WinDescent: 125
OS2WinDOffset: 0
HheadAscent: 875
HheadAOffset: 0
HheadDescent: -125
HheadDOffset: 0
OS2SubXSize: 650
OS2SubYSize: 700
OS2SubXOff: 0
OS2SubYOff: 140
OS2SupXSize: 650
OS2SupYSize: 700
OS2SupXOff: 0
OS2SupYOff: 480
OS2StrikeYSize: 49
OS2StrikeYPos: 258
OS2Vendor: 'PfEd'
MacStyle: 0
DEI: 91125
Encoding: UnicodeBmp
UnicodeInterp: none
NameList: AGL For New Fonts
DisplaySize: 8
AntiAlias: 1
FitToEm: 0
BeginChars: 65536 274

StartChar: exclam
Encoding: 33 33 1
Width: 875
Flags: HW
LayerCount: 2
Back
Fore
SplineSet
375 750 m 1
 375 875 l 1
 500 875 l 1
 500 750 l 1
 375 750 l 1
375 625 m 1
 375 750 l 1
 500 750 l 1
 500 625 l 1
 375 625 l 1
375 500 m 1
 375 625 l 1
 500 625 l 1
 500 500 l 1
 375 500 l 1
375 375 m 1
 375 500 l 1
 500 500 l 1
 500 375 l 1
 375 375 l 1
375 250 m 1
 375 375 l 1
 500 375 l 1
 500 250 l 1
 375 250 l 1
375 0 m 1
 375 125 l 1
 500 125 l 1
 500 0 l 1
 375 0 l 1
EndSplineSet
EndChar

StartChar: quotedbl
Encoding: 34 34 2
Width: 875
Flags: HW
LayerCount: 2
Back
Fore
SplineSet
250 750 m 1
 250 875 l 1
 375 875 l 1
 375 750 l 1
 250 750 l 1
500 750 m 1
 500 875 l 1
 625 875 l 1
 625 750 l 1
 500 750 l 1
250 625 m 1
 250 750 l 1
 375 750 l 1
 375 625 l 1
 250 625 l 1
500 625 m 1
 500 750 l 1
 625 750 l 1
 625 625 l 1
 500 625 l 1
250 500 m 1
 250 625 l 1
 375 625 l 1
 375 500 l 1
 250 500 l 1
500 500 m 1
 500 625 l 1
 625 625 l 1
 625 500 l 1
 500 500 l 1
EndSplineSet
EndChar

StartChar: numbersign
Encoding: 35 35 3
Width: 875
Flags: HW
LayerCount: 2
Back
Fore
SplineSet
250 750 m 1
 250 875 l 1
 375 875 l 1
 375 750 l 1
 250 750 l 1
500 750 m 1
 500 875 l 1
 625 875 l 1
 625 750 l 1
 500 750 l 1
250 625 m 1
 250 750 l 1
 375 750 l 1
 375 625 l 1
 250 625 l 1
500 625 m 1
 500 750 l 1
 625 750 l 1
 625 625 l 1
 500 625 l 1
125 500 m 1
 125 625 l 1
 750 625 l 1
 750 500 l 1
 125 500 l 1
250 375 m 1
 250 500 l 1
 375 500 l 1
 375 375 l 1
 250 375 l 1
500 375 m 1
 500 500 l 1
 625 500 l 1
 625 375 l 1
 500 375 l 1
125 250 m 1
 125 375 l 1
 750 375 l 1
 750 250 l 1
 125 250 l 1
250 125 m 1
 250 250 l 1
 375 250 l 1
 375 125 l 1
 250 125 l 1
500 125 m 1
 500 250 l 1
 625 250 l 1
 625 125 l 1
 500 125 l 1
250 0 m 1
 250 125 l 1
 375 125 l 1
 375 0 l 1
 250 0 l 1
500 0 m 1
 500 125 l 1
 625 125 l 1
 625 0 l 1
 500 0 l 1
EndSplineSet
EndChar

StartChar: dollar
Encoding: 36 36 4
Width: 875
Flags: HW
LayerCount: 2
Back
Fore
SplineSet
375 750 m 1
 375 875 l 1
 500 875 l 1
 500 750 l 1
 375 750 l 1
250 625 m 1
 250 750 l 1
 750 750 l 1
 750 625 l 1
 250 625 l 1
125 500 m 1
 125 625 l 1
 250 625 l 1
 250 500 l 1
 125 500 l 1
375 500 m 1
 375 625 l 1
 500 625 l 1
 500 500 l 1
 375 500 l 1
250 375 m 1
 250 500 l 1
 625 500 l 1
 625 375 l 1
 250 375 l 1
375 250 m 1
 375 375 l 1
 500 375 l 1
 500 250 l 1
 375 250 l 1
625 250 m 1
 625 375 l 1
 750 375 l 1
 750 250 l 1
 625 250 l 1
125 125 m 1
 125 250 l 1
 625 250 l 1
 625 125 l 1
 125 125 l 1
375 0 m 1
 375 125 l 1
 500 125 l 1
 500 0 l 1
 375 0 l 1
EndSplineSet
EndChar

StartChar: percent
Encoding: 37 37 5
Width: 875
Flags: HW
LayerCount: 2
Back
Fore
SplineSet
125 750 m 1
 125 875 l 1
 375 875 l 1
 375 750 l 1
 125 750 l 1
125 625 m 1
 125 750 l 1
 375 750 l 1
 375 625 l 1
 125 625 l 1
625 625 m 1
 625 750 l 1
 750 750 l 1
 750 625 l 1
 625 625 l 1
500 500 m 1
 500 625 l 1
 625 625 l 1
 625 500 l 1
 500 500 l 1
375 375 m 1
 375 500 l 1
 500 500 l 1
 500 375 l 1
 375 375 l 1
250 250 m 1
 250 375 l 1
 375 375 l 1
 375 250 l 1
 250 250 l 1
125 125 m 1
 125 250 l 1
 250 250 l 1
 250 125 l 1
 125 125 l 1
500 125 m 1
 500 250 l 1
 750 250 l 1
 750 125 l 1
 500 125 l 1
500 0 m 1
 500 125 l 1
 750 125 l 1
 750 0 l 1
 500 0 l 1
EndSplineSet
EndChar

StartChar: ampersand
Encoding: 38 38 6
Width: 875
Flags: HW
LayerCount: 2
Back
Fore
SplineSet
250 750 m 1
 250 875 l 1
 375 875 l 1
 375 750 l 1
 250 750 l 1
125 625 m 1
 125 750 l 1
 250 750 l 1
 250 625 l 1
 125 625 l 1
375 625 m 1
 375 750 l 1
 500 750 l 1
 500 625 l 1
 375 625 l 1
125 500 m 1
 125 625 l 1
 250 625 l 1
 250 500 l 1
 125 500 l 1
375 500 m 1
 375 625 l 1
 500 625 l 1
 500 500 l 1
 375 500 l 1
250 375 m 1
 250 500 l 1
 375 500 l 1
 375 375 l 1
 250 375 l 1
125 250 m 1
 125 375 l 1
 250 375 l 1
 250 250 l 1
 125 250 l 1
375 250 m 1
 375 375 l 1
 500 375 l 1
 500 250 l 1
 375 250 l 1
625 250 m 1
 625 375 l 1
 750 375 l 1
 750 250 l 1
 625 250 l 1
125 125 m 1
 125 250 l 1
 250 250 l 1
 250 125 l 1
 125 125 l 1
500 125 m 1
 500 250 l 1
 625 250 l 1
 625 125 l 1
 500 125 l 1
250 0 m 1
 250 125 l 1
 500 125 l 1
 500 0 l 1
 250 0 l 1
625 0 m 1
 625 125 l 1
 750 125 l 1
 750 0 l 1
 625 0 l 1
EndSplineSet
EndChar

StartChar: quotesingle
Encoding: 39 39 7
Width: 875
Flags: HW
LayerCount: 2
Back
Fore
SplineSet
375 750 m 1
 375 875 l 1
 500 875 l 1
 500 750 l 1
 375 750 l 1
375 625 m 1
 375 750 l 1
 500 750 l 1
 500 625 l 1
 375 625 l 1
375 500 m 1
 375 625 l 1
 500 625 l 1
 500 500 l 1
 375 500 l 1
EndSplineSet
EndChar

StartChar: parenleft
Encoding: 40 40 8
Width: 875
Flags: HW
LayerCount: 2
Back
Fore
SplineSet
375 750 m 1
 375 875 l 1
 500 875 l 1
 500 750 l 1
 375 750 l 1
250 625 m 1
 250 750 l 1
 375 750 l 1
 375 625 l 1
 250 625 l 1
125 500 m 1
 125 625 l 1
 250 625 l 1
 250 500 l 1
 125 500 l 1
125 375 m 1
 125 500 l 1
 250 500 l 1
 250 375 l 1
 125 375 l 1
125 250 m 1
 125 375 l 1
 250 375 l 1
 250 250 l 1
 125 250 l 1
250 125 m 1
 250 250 l 1
 375 250 l 1
 375 125 l 1
 250 125 l 1
375 0 m 1
 375 125 l 1
 500 125 l 1
 500 0 l 1
 375 0 l 1
EndSplineSet
EndChar

StartChar: parenright
Encoding: 41 41 9
Width: 875
Flags: HW
LayerCount: 2
Back
Fore
SplineSet
375 750 m 1
 375 875 l 1
 500 875 l 1
 500 750 l 1
 375 750 l 1
500 625 m 1
 500 750 l 1
 625 750 l 1
 625 625 l 1
 500 625 l 1
625 500 m 1
 625 625 l 1
 750 625 l 1
 750 500 l 1
 625 500 l 1
625 375 m 1
 625 500 l 1
 750 500 l 1
 750 375 l 1
 625 375 l 1
625 250 m 1
 625 375 l 1
 750 375 l 1
 750 250 l 1
 625 250 l 1
500 125 m 1
 500 250 l 1
 625 250 l 1
 625 125 l 1
 500 125 l 1
375 0 m 1
 375 125 l 1
 500 125 l 1
 500 0 l 1
 375 0 l 1
EndSplineSet
EndChar

StartChar: asterisk
Encoding: 42 42 10
Width: 875
Flags: HW
LayerCount: 2
Back
Fore
SplineSet
375 750 m 1
 375 875 l 1
 500 875 l 1
 500 750 l 1
 375 750 l 1
125 625 m 1
 125 750 l 1
 250 750 l 1
 250 625 l 1
 125 625 l 1
375 625 m 1
 375 750 l 1
 500 750 l 1
 500 625 l 1
 375 625 l 1
625 625 m 1
 625 750 l 1
 750 750 l 1
 750 625 l 1
 625 625 l 1
250 500 m 1
 250 625 l 1
 625 625 l 1
 625 500 l 1
 250 500 l 1
375 375 m 1
 375 500 l 1
 500 500 l 1
 500 375 l 1
 375 375 l 1
250 250 m 1
 250 375 l 1
 625 375 l 1
 625 250 l 1
 250 250 l 1
125 125 m 1
 125 250 l 1
 250 250 l 1
 250 125 l 1
 125 125 l 1
375 125 m 1
 375 250 l 1
 500 250 l 1
 500 125 l 1
 375 125 l 1
625 125 m 1
 625 250 l 1
 750 250 l 1
 750 125 l 1
 625 125 l 1
375 0 m 1
 375 125 l 1
 500 125 l 1
 500 0 l 1
 375 0 l 1
EndSplineSet
EndChar

StartChar: plus
Encoding: 43 43 11
Width: 875
Flags: HW
LayerCount: 2
Back
Fore
SplineSet
375 625 m 1
 375 750 l 1
 500 750 l 1
 500 625 l 1
 375 625 l 1
375 500 m 1
 375 625 l 1
 500 625 l 1
 500 500 l 1
 375 500 l 1
125 375 m 1
 125 500 l 1
 750 500 l 1
 750 375 l 1
 125 375 l 1
375 250 m 1
 375 375 l 1
 500 375 l 1
 500 250 l 1
 375 250 l 1
375 125 m 1
 375 250 l 1
 500 250 l 1
 500 125 l 1
 375 125 l 1
EndSplineSet
EndChar

StartChar: comma
Encoding: 44 44 12
Width: 875
Flags: HW
LayerCount: 2
Back
Fore
SplineSet
375 250 m 1
 375 375 l 1
 500 375 l 1
 500 250 l 1
 375 250 l 1
375 125 m 1
 375 250 l 1
 500 250 l 1
 500 125 l 1
 375 125 l 1
250 0 m 1
 250 125 l 1
 375 125 l 1
 375 0 l 1
 250 0 l 1
EndSplineSet
EndChar

StartChar: hyphen
Encoding: 45 45 13
Width: 875
Flags: HW
LayerCount: 2
Back
Fore
SplineSet
125 375 m 1
 125 500 l 1
 750 500 l 1
 750 375 l 1
 125 375 l 1
EndSplineSet
EndChar

StartChar: period
Encoding: 46 46 14
Width: 875
Flags: HW
LayerCount: 2
Back
Fore
SplineSet
375 0 m 1
 375 125 l 1
 500 125 l 1
 500 0 l 1
 375 0 l 1
EndSplineSet
EndChar

StartChar: slash
Encoding: 47 47 15
Width: 875
Flags: HW
LayerCount: 2
Back
Fore
SplineSet
625 625 m 1
 625 750 l 1
 750 750 l 1
 750 625 l 1
 625 625 l 1
500 500 m 1
 500 625 l 1
 625 625 l 1
 625 500 l 1
 500 500 l 1
375 375 m 1
 375 500 l 1
 500 500 l 1
 500 375 l 1
 375 375 l 1
250 250 m 1
 250 375 l 1
 375 375 l 1
 375 250 l 1
 250 250 l 1
125 125 m 1
 125 250 l 1
 250 250 l 1
 250 125 l 1
 125 125 l 1
EndSplineSet
EndChar

StartChar: zero
Encoding: 48 48 16
Width: 875
Flags: HW
LayerCount: 2
Back
Fore
SplineSet
250 750 m 1
 250 875 l 1
 625 875 l 1
 625 750 l 1
 250 750 l 1
125 625 m 1
 125 750 l 1
 250 750 l 1
 250 625 l 1
 125 625 l 1
625 625 m 1
 625 750 l 1
 750 750 l 1
 750 625 l 1
 625 625 l 1
125 500 m 1
 125 625 l 1
 250 625 l 1
 250 500 l 1
 125 500 l 1
500 500 m 1
 500 625 l 1
 750 625 l 1
 750 500 l 1
 500 500 l 1
125 375 m 1
 125 500 l 1
 250 500 l 1
 250 375 l 1
 125 375 l 1
375 375 m 1
 375 500 l 1
 500 500 l 1
 500 375 l 1
 375 375 l 1
625 375 m 1
 625 500 l 1
 750 500 l 1
 750 375 l 1
 625 375 l 1
125 250 m 1
 125 375 l 1
 375 375 l 1
 375 250 l 1
 125 250 l 1
625 250 m 1
 625 375 l 1
 750 375 l 1
 750 250 l 1
 625 250 l 1
125 125 m 1
 125 250 l 1
 250 250 l 1
 250 125 l 1
 125 125 l 1
625 125 m 1
 625 250 l 1
 750 250 l 1
 750 125 l 1
 625 125 l 1
250 0 m 1
 250 125 l 1
 625 125 l 1
 625 0 l 1
 250 0 l 1
EndSplineSet
EndChar

StartChar: one
Encoding: 49 49 17
Width: 875
Flags: HW
LayerCount: 2
Back
Fore
SplineSet
375 750 m 1
 375 875 l 1
 500 875 l 1
 500 750 l 1
 375 750 l 1
250 625 m 1
 250 750 l 1
 500 750 l 1
 500 625 l 1
 250 625 l 1
375 500 m 1
 375 625 l 1
 500 625 l 1
 500 500 l 1
 375 500 l 1
375 375 m 1
 375 500 l 1
 500 500 l 1
 500 375 l 1
 375 375 l 1
375 250 m 1
 375 375 l 1
 500 375 l 1
 500 250 l 1
 375 250 l 1
375 125 m 1
 375 250 l 1
 500 250 l 1
 500 125 l 1
 375 125 l 1
250 0 m 1
 250 125 l 1
 625 125 l 1
 625 0 l 1
 250 0 l 1
EndSplineSet
EndChar

StartChar: two
Encoding: 50 50 18
Width: 875
Flags: HW
LayerCount: 2
Back
Fore
SplineSet
250 750 m 1
 250 875 l 1
 625 875 l 1
 625 750 l 1
 250 750 l 1
125 625 m 1
 125 750 l 1
 250 750 l 1
 250 625 l 1
 125 625 l 1
625 625 m 1
 625 750 l 1
 750 750 l 1
 750 625 l 1
 625 625 l 1
625 500 m 1
 625 625 l 1
 750 625 l 1
 750 500 l 1
 625 500 l 1
375 375 m 1
 375 500 l 1
 625 500 l 1
 625 375 l 1
 375 375 l 1
250 250 m 1
 250 375 l 1
 375 375 l 1
 375 250 l 1
 250 250 l 1
125 125 m 1
 125 250 l 1
 250 250 l 1
 250 125 l 1
 125 125 l 1
125 0 m 1
 125 125 l 1
 750 125 l 1
 750 0 l 1
 125 0 l 1
EndSplineSet
EndChar

StartChar: three
Encoding: 51 51 19
Width: 875
Flags: HW
LayerCount: 2
Back
Fore
SplineSet
125 750 m 1
 125 875 l 1
 750 875 l 1
 750 750 l 1
 125 750 l 1
625 625 m 1
 625 750 l 1
 750 750 l 1
 750 625 l 1
 625 625 l 1
500 500 m 1
 500 625 l 1
 625 625 l 1
 625 500 l 1
 500 500 l 1
375 375 m 1
 375 500 l 1
 625 500 l 1
 625 375 l 1
 375 375 l 1
625 250 m 1
 625 375 l 1
 750 375 l 1
 750 250 l 1
 625 250 l 1
125 125 m 1
 125 250 l 1
 250 250 l 1
 250 125 l 1
 125 125 l 1
625 125 m 1
 625 250 l 1
 750 250 l 1
 750 125 l 1
 625 125 l 1
250 0 m 1
 250 125 l 1
 625 125 l 1
 625 0 l 1
 250 0 l 1
EndSplineSet
EndChar

StartChar: four
Encoding: 52 52 20
Width: 875
Flags: HW
LayerCount: 2
Back
Fore
SplineSet
500 750 m 1
 500 875 l 1
 625 875 l 1
 625 750 l 1
 500 750 l 1
375 625 m 1
 375 750 l 1
 625 750 l 1
 625 625 l 1
 375 625 l 1
250 500 m 1
 250 625 l 1
 375 625 l 1
 375 500 l 1
 250 500 l 1
500 500 m 1
 500 625 l 1
 625 625 l 1
 625 500 l 1
 500 500 l 1
125 375 m 1
 125 500 l 1
 250 500 l 1
 250 375 l 1
 125 375 l 1
500 375 m 1
 500 500 l 1
 625 500 l 1
 625 375 l 1
 500 375 l 1
125 250 m 1
 125 375 l 1
 750 375 l 1
 750 250 l 1
 125 250 l 1
500 125 m 1
 500 250 l 1
 625 250 l 1
 625 125 l 1
 500 125 l 1
500 0 m 1
 500 125 l 1
 625 125 l 1
 625 0 l 1
 500 0 l 1
EndSplineSet
EndChar

StartChar: five
Encoding: 53 53 21
Width: 875
Flags: HW
LayerCount: 2
Back
Fore
SplineSet
125 750 m 1
 125 875 l 1
 750 875 l 1
 750 750 l 1
 125 750 l 1
125 625 m 1
 125 750 l 1
 250 750 l 1
 250 625 l 1
 125 625 l 1
125 500 m 1
 125 625 l 1
 625 625 l 1
 625 500 l 1
 125 500 l 1
625 375 m 1
 625 500 l 1
 750 500 l 1
 750 375 l 1
 625 375 l 1
625 250 m 1
 625 375 l 1
 750 375 l 1
 750 250 l 1
 625 250 l 1
125 125 m 1
 125 250 l 1
 250 250 l 1
 250 125 l 1
 125 125 l 1
625 125 m 1
 625 250 l 1
 750 250 l 1
 750 125 l 1
 625 125 l 1
250 0 m 1
 250 125 l 1
 625 125 l 1
 625 0 l 1
 250 0 l 1
EndSplineSet
EndChar

StartChar: six
Encoding: 54 54 22
Width: 875
Flags: HW
LayerCount: 2
Back
Fore
SplineSet
375 750 m 1
 375 875 l 1
 750 875 l 1
 750 750 l 1
 375 750 l 1
250 625 m 1
 250 750 l 1
 375 750 l 1
 375 625 l 1
 250 625 l 1
125 500 m 1
 125 625 l 1
 250 625 l 1
 250 500 l 1
 125 500 l 1
125 375 m 1
 125 500 l 1
 625 500 l 1
 625 375 l 1
 125 375 l 1
125 250 m 1
 125 375 l 1
 250 375 l 1
 250 250 l 1
 125 250 l 1
625 250 m 1
 625 375 l 1
 750 375 l 1
 750 250 l 1
 625 250 l 1
125 125 m 1
 125 250 l 1
 250 250 l 1
 250 125 l 1
 125 125 l 1
625 125 m 1
 625 250 l 1
 750 250 l 1
 750 125 l 1
 625 125 l 1
250 0 m 1
 250 125 l 1
 625 125 l 1
 625 0 l 1
 250 0 l 1
EndSplineSet
EndChar

StartChar: seven
Encoding: 55 55 23
Width: 875
Flags: HW
LayerCount: 2
Back
Fore
SplineSet
125 750 m 1
 125 875 l 1
 750 875 l 1
 750 750 l 1
 125 750 l 1
625 625 m 1
 625 750 l 1
 750 750 l 1
 750 625 l 1
 625 625 l 1
500 500 m 1
 500 625 l 1
 625 625 l 1
 625 500 l 1
 500 500 l 1
375 375 m 1
 375 500 l 1
 500 500 l 1
 500 375 l 1
 375 375 l 1
250 250 m 1
 250 375 l 1
 375 375 l 1
 375 250 l 1
 250 250 l 1
250 125 m 1
 250 250 l 1
 375 250 l 1
 375 125 l 1
 250 125 l 1
250 0 m 1
 250 125 l 1
 375 125 l 1
 375 0 l 1
 250 0 l 1
EndSplineSet
EndChar

StartChar: eight
Encoding: 56 56 24
Width: 875
Flags: HW
LayerCount: 2
Back
Fore
SplineSet
250 750 m 1
 250 875 l 1
 625 875 l 1
 625 750 l 1
 250 750 l 1
125 625 m 1
 125 750 l 1
 250 750 l 1
 250 625 l 1
 125 625 l 1
625 625 m 1
 625 750 l 1
 750 750 l 1
 750 625 l 1
 625 625 l 1
125 500 m 1
 125 625 l 1
 250 625 l 1
 250 500 l 1
 125 500 l 1
625 500 m 1
 625 625 l 1
 750 625 l 1
 750 500 l 1
 625 500 l 1
250 375 m 1
 250 500 l 1
 625 500 l 1
 625 375 l 1
 250 375 l 1
125 250 m 1
 125 375 l 1
 250 375 l 1
 250 250 l 1
 125 250 l 1
625 250 m 1
 625 375 l 1
 750 375 l 1
 750 250 l 1
 625 250 l 1
125 125 m 1
 125 250 l 1
 250 250 l 1
 250 125 l 1
 125 125 l 1
625 125 m 1
 625 250 l 1
 750 250 l 1
 750 125 l 1
 625 125 l 1
250 0 m 1
 250 125 l 1
 625 125 l 1
 625 0 l 1
 250 0 l 1
EndSplineSet
EndChar

StartChar: nine
Encoding: 57 57 25
Width: 875
Flags: HW
LayerCount: 2
Back
Fore
SplineSet
250 750 m 1
 250 875 l 1
 625 875 l 1
 625 750 l 1
 250 750 l 1
125 625 m 1
 125 750 l 1
 250 750 l 1
 250 625 l 1
 125 625 l 1
625 625 m 1
 625 750 l 1
 750 750 l 1
 750 625 l 1
 625 625 l 1
125 500 m 1
 125 625 l 1
 250 625 l 1
 250 500 l 1
 125 500 l 1
625 500 m 1
 625 625 l 1
 750 625 l 1
 750 500 l 1
 625 500 l 1
250 375 m 1
 250 500 l 1
 750 500 l 1
 750 375 l 1
 250 375 l 1
625 250 m 1
 625 375 l 1
 750 375 l 1
 750 250 l 1
 625 250 l 1
500 125 m 1
 500 250 l 1
 625 250 l 1
 625 125 l 1
 500 125 l 1
125 0 m 1
 125 125 l 1
 500 125 l 1
 500 0 l 1
 125 0 l 1
EndSplineSet
EndChar

StartChar: colon
Encoding: 58 58 26
Width: 875
Flags: HW
LayerCount: 2
Back
Fore
SplineSet
375 500 m 1
 375 625 l 1
 500 625 l 1
 500 500 l 1
 375 500 l 1
375 250 m 1
 375 375 l 1
 500 375 l 1
 500 250 l 1
 375 250 l 1
EndSplineSet
EndChar

StartChar: semicolon
Encoding: 59 59 27
Width: 875
Flags: HW
LayerCount: 2
Back
Fore
SplineSet
375 500 m 1
 375 625 l 1
 500 625 l 1
 500 500 l 1
 375 500 l 1
375 250 m 1
 375 375 l 1
 500 375 l 1
 500 250 l 1
 375 250 l 1
375 125 m 1
 375 250 l 1
 500 250 l 1
 500 125 l 1
 375 125 l 1
250 0 m 1
 250 125 l 1
 375 125 l 1
 375 0 l 1
 250 0 l 1
EndSplineSet
EndChar

StartChar: less
Encoding: 60 60 28
Width: 875
Flags: HW
LayerCount: 2
Back
Fore
SplineSet
500 750 m 1
 500 875 l 1
 625 875 l 1
 625 750 l 1
 500 750 l 1
375 625 m 1
 375 750 l 1
 500 750 l 1
 500 625 l 1
 375 625 l 1
250 500 m 1
 250 625 l 1
 375 625 l 1
 375 500 l 1
 250 500 l 1
125 375 m 1
 125 500 l 1
 250 500 l 1
 250 375 l 1
 125 375 l 1
250 250 m 1
 250 375 l 1
 375 375 l 1
 375 250 l 1
 250 250 l 1
375 125 m 1
 375 250 l 1
 500 250 l 1
 500 125 l 1
 375 125 l 1
500 0 m 1
 500 125 l 1
 625 125 l 1
 625 0 l 1
 500 0 l 1
EndSplineSet
EndChar

StartChar: equal
Encoding: 61 61 29
Width: 875
Flags: HW
LayerCount: 2
Back
Fore
SplineSet
125 500 m 1
 125 625 l 1
 750 625 l 1
 750 500 l 1
 125 500 l 1
125 250 m 1
 125 375 l 1
 750 375 l 1
 750 250 l 1
 125 250 l 1
EndSplineSet
EndChar

StartChar: greater
Encoding: 62 62 30
Width: 875
Flags: HW
LayerCount: 2
Back
Fore
SplineSet
250 750 m 1
 250 875 l 1
 375 875 l 1
 375 750 l 1
 250 750 l 1
375 625 m 1
 375 750 l 1
 500 750 l 1
 500 625 l 1
 375 625 l 1
500 500 m 1
 500 625 l 1
 625 625 l 1
 625 500 l 1
 500 500 l 1
625 375 m 1
 625 500 l 1
 750 500 l 1
 750 375 l 1
 625 375 l 1
500 250 m 1
 500 375 l 1
 625 375 l 1
 625 250 l 1
 500 250 l 1
375 125 m 1
 375 250 l 1
 500 250 l 1
 500 125 l 1
 375 125 l 1
250 0 m 1
 250 125 l 1
 375 125 l 1
 375 0 l 1
 250 0 l 1
EndSplineSet
EndChar

StartChar: question
Encoding: 63 63 31
Width: 875
Flags: HW
LayerCount: 2
Back
Fore
SplineSet
250 750 m 1
 250 875 l 1
 625 875 l 1
 625 750 l 1
 250 750 l 1
125 625 m 1
 125 750 l 1
 250 750 l 1
 250 625 l 1
 125 625 l 1
625 625 m 1
 625 750 l 1
 750 750 l 1
 750 625 l 1
 625 625 l 1
500 500 m 1
 500 625 l 1
 625 625 l 1
 625 500 l 1
 500 500 l 1
375 375 m 1
 375 500 l 1
 500 500 l 1
 500 375 l 1
 375 375 l 1
375 250 m 1
 375 375 l 1
 500 375 l 1
 500 250 l 1
 375 250 l 1
375 0 m 1
 375 125 l 1
 500 125 l 1
 500 0 l 1
 375 0 l 1
EndSplineSet
EndChar

StartChar: at
Encoding: 64 64 32
Width: 875
Flags: HW
LayerCount: 2
Back
Fore
SplineSet
250 750 m 1
 250 875 l 1
 625 875 l 1
 625 750 l 1
 250 750 l 1
125 625 m 1
 125 750 l 1
 250 750 l 1
 250 625 l 1
 125 625 l 1
625 625 m 1
 625 750 l 1
 750 750 l 1
 750 625 l 1
 625 625 l 1
125 500 m 1
 125 625 l 1
 250 625 l 1
 250 500 l 1
 125 500 l 1
375 500 m 1
 375 625 l 1
 500 625 l 1
 500 500 l 1
 375 500 l 1
625 500 m 1
 625 625 l 1
 750 625 l 1
 750 500 l 1
 625 500 l 1
125 375 m 1
 125 500 l 1
 250 500 l 1
 250 375 l 1
 125 375 l 1
375 375 m 1
 375 500 l 1
 750 500 l 1
 750 375 l 1
 375 375 l 1
125 250 m 1
 125 375 l 1
 250 375 l 1
 250 250 l 1
 125 250 l 1
375 250 m 1
 375 375 l 1
 625 375 l 1
 625 250 l 1
 375 250 l 1
125 125 m 1
 125 250 l 1
 250 250 l 1
 250 125 l 1
 125 125 l 1
250 0 m 1
 250 125 l 1
 750 125 l 1
 750 0 l 1
 250 0 l 1
EndSplineSet
EndChar

StartChar: A
Encoding: 65 65 33
Width: 875
Flags: HW
LayerCount: 2
Back
Fore
SplineSet
375 750 m 1
 375 875 l 1
 500 875 l 1
 500 750 l 1
 375 750 l 1
250 625 m 1
 250 750 l 1
 375 750 l 1
 375 625 l 1
 250 625 l 1
500 625 m 1
 500 750 l 1
 625 750 l 1
 625 625 l 1
 500 625 l 1
125 500 m 1
 125 625 l 1
 250 625 l 1
 250 500 l 1
 125 500 l 1
625 500 m 1
 625 625 l 1
 750 625 l 1
 750 500 l 1
 625 500 l 1
125 375 m 1
 125 500 l 1
 250 500 l 1
 250 375 l 1
 125 375 l 1
625 375 m 1
 625 500 l 1
 750 500 l 1
 750 375 l 1
 625 375 l 1
125 250 m 1
 125 375 l 1
 750 375 l 1
 750 250 l 1
 125 250 l 1
125 125 m 1
 125 250 l 1
 250 250 l 1
 250 125 l 1
 125 125 l 1
625 125 m 1
 625 250 l 1
 750 250 l 1
 750 125 l 1
 625 125 l 1
125 0 m 1
 125 125 l 1
 250 125 l 1
 250 0 l 1
 125 0 l 1
625 0 m 1
 625 125 l 1
 750 125 l 1
 750 0 l 1
 625 0 l 1
EndSplineSet
EndChar

StartChar: B
Encoding: 66 66 34
Width: 875
Flags: HW
LayerCount: 2
Back
Fore
SplineSet
125 750 m 1
 125 875 l 1
 625 875 l 1
 625 750 l 1
 125 750 l 1
125 625 m 1
 125 750 l 1
 250 750 l 1
 250 625 l 1
 125 625 l 1
625 625 m 1
 625 750 l 1
 750 750 l 1
 750 625 l 1
 625 625 l 1
125 500 m 1
 125 625 l 1
 250 625 l 1
 250 500 l 1
 125 500 l 1
625 500 m 1
 625 625 l 1
 750 625 l 1
 750 500 l 1
 625 500 l 1
125 375 m 1
 125 500 l 1
 625 500 l 1
 625 375 l 1
 125 375 l 1
125 250 m 1
 125 375 l 1
 250 375 l 1
 250 250 l 1
 125 250 l 1
625 250 m 1
 625 375 l 1
 750 375 l 1
 750 250 l 1
 625 250 l 1
125 125 m 1
 125 250 l 1
 250 250 l 1
 250 125 l 1
 125 125 l 1
625 125 m 1
 625 250 l 1
 750 250 l 1
 750 125 l 1
 625 125 l 1
125 0 m 1
 125 125 l 1
 625 125 l 1
 625 0 l 1
 125 0 l 1
EndSplineSet
EndChar

StartChar: C
Encoding: 67 67 35
Width: 875
Flags: HW
LayerCount: 2
Back
Fore
SplineSet
250 750 m 1
 250 875 l 1
 625 875 l 1
 625 750 l 1
 250 750 l 1
125 625 m 1
 125 750 l 1
 250 750 l 1
 250 625 l 1
 125 625 l 1
625 625 m 1
 625 750 l 1
 750 750 l 1
 750 625 l 1
 625 625 l 1
125 500 m 1
 125 625 l 1
 250 625 l 1
 250 500 l 1
 125 500 l 1
125 375 m 1
 125 500 l 1
 250 500 l 1
 250 375 l 1
 125 375 l 1
125 250 m 1
 125 375 l 1
 250 375 l 1
 250 250 l 1
 125 250 l 1
125 125 m 1
 125 250 l 1
 250 250 l 1
 250 125 l 1
 125 125 l 1
625 125 m 1
 625 250 l 1
 750 250 l 1
 750 125 l 1
 625 125 l 1
250 0 m 1
 250 125 l 1
 625 125 l 1
 625 0 l 1
 250 0 l 1
EndSplineSet
EndChar

StartChar: D
Encoding: 68 68 36
Width: 875
Flags: HW
LayerCount: 2
Back
Fore
SplineSet
125 750 m 1
 125 875 l 1
 625 875 l 1
 625 750 l 1
 125 750 l 1
125 625 m 1
 125 750 l 1
 250 750 l 1
 250 625 l 1
 125 625 l 1
625 625 m 1
 625 750 l 1
 750 750 l 1
 750 625 l 1
 625 625 l 1
125 500 m 1
 125 625 l 1
 250 625 l 1
 250 500 l 1
 125 500 l 1
625 500 m 1
 625 625 l 1
 750 625 l 1
 750 500 l 1
 625 500 l 1
125 375 m 1
 125 500 l 1
 250 500 l 1
 250 375 l 1
 125 375 l 1
625 375 m 1
 625 500 l 1
 750 500 l 1
 750 375 l 1
 625 375 l 1
125 250 m 1
 125 375 l 1
 250 375 l 1
 250 250 l 1
 125 250 l 1
625 250 m 1
 625 375 l 1
 750 375 l 1
 750 250 l 1
 625 250 l 1
125 125 m 1
 125 250 l 1
 250 250 l 1
 250 125 l 1
 125 125 l 1
625 125 m 1
 625 250 l 1
 750 250 l 1
 750 125 l 1
 625 125 l 1
125 0 m 1
 125 125 l 1
 625 125 l 1
 625 0 l 1
 125 0 l 1
EndSplineSet
EndChar

StartChar: E
Encoding: 69 69 37
Width: 875
Flags: HW
LayerCount: 2
Back
Fore
SplineSet
125 750 m 1
 125 875 l 1
 750 875 l 1
 750 750 l 1
 125 750 l 1
125 625 m 1
 125 750 l 1
 250 750 l 1
 250 625 l 1
 125 625 l 1
125 500 m 1
 125 625 l 1
 250 625 l 1
 250 500 l 1
 125 500 l 1
125 375 m 1
 125 500 l 1
 625 500 l 1
 625 375 l 1
 125 375 l 1
125 250 m 1
 125 375 l 1
 250 375 l 1
 250 250 l 1
 125 250 l 1
125 125 m 1
 125 250 l 1
 250 250 l 1
 250 125 l 1
 125 125 l 1
125 0 m 1
 125 125 l 1
 750 125 l 1
 750 0 l 1
 125 0 l 1
EndSplineSet
EndChar

StartChar: F
Encoding: 70 70 38
Width: 875
Flags: HW
LayerCount: 2
Back
Fore
SplineSet
125 750 m 1
 125 875 l 1
 750 875 l 1
 750 750 l 1
 125 750 l 1
125 625 m 1
 125 750 l 1
 250 750 l 1
 250 625 l 1
 125 625 l 1
125 500 m 1
 125 625 l 1
 250 625 l 1
 250 500 l 1
 125 500 l 1
125 375 m 1
 125 500 l 1
 625 500 l 1
 625 375 l 1
 125 375 l 1
125 250 m 1
 125 375 l 1
 250 375 l 1
 250 250 l 1
 125 250 l 1
125 125 m 1
 125 250 l 1
 250 250 l 1
 250 125 l 1
 125 125 l 1
125 0 m 1
 125 125 l 1
 250 125 l 1
 250 0 l 1
 125 0 l 1
EndSplineSet
EndChar

StartChar: G
Encoding: 71 71 39
Width: 875
Flags: HW
LayerCount: 2
Back
Fore
SplineSet
250 750 m 1
 250 875 l 1
 625 875 l 1
 625 750 l 1
 250 750 l 1
125 625 m 1
 125 750 l 1
 250 750 l 1
 250 625 l 1
 125 625 l 1
625 625 m 1
 625 750 l 1
 750 750 l 1
 750 625 l 1
 625 625 l 1
125 500 m 1
 125 625 l 1
 250 625 l 1
 250 500 l 1
 125 500 l 1
125 375 m 1
 125 500 l 1
 250 500 l 1
 250 375 l 1
 125 375 l 1
125 250 m 1
 125 375 l 1
 250 375 l 1
 250 250 l 1
 125 250 l 1
500 250 m 1
 500 375 l 1
 750 375 l 1
 750 250 l 1
 500 250 l 1
125 125 m 1
 125 250 l 1
 250 250 l 1
 250 125 l 1
 125 125 l 1
625 125 m 1
 625 250 l 1
 750 250 l 1
 750 125 l 1
 625 125 l 1
250 0 m 1
 250 125 l 1
 750 125 l 1
 750 0 l 1
 250 0 l 1
EndSplineSet
EndChar

StartChar: H
Encoding: 72 72 40
Width: 875
Flags: HW
LayerCount: 2
Back
Fore
SplineSet
125 750 m 1
 125 875 l 1
 250 875 l 1
 250 750 l 1
 125 750 l 1
625 750 m 1
 625 875 l 1
 750 875 l 1
 750 750 l 1
 625 750 l 1
125 625 m 1
 125 750 l 1
 250 750 l 1
 250 625 l 1
 125 625 l 1
625 625 m 1
 625 750 l 1
 750 750 l 1
 750 625 l 1
 625 625 l 1
125 500 m 1
 125 625 l 1
 250 625 l 1
 250 500 l 1
 125 500 l 1
625 500 m 1
 625 625 l 1
 750 625 l 1
 750 500 l 1
 625 500 l 1
125 375 m 1
 125 500 l 1
 750 500 l 1
 750 375 l 1
 125 375 l 1
125 250 m 1
 125 375 l 1
 250 375 l 1
 250 250 l 1
 125 250 l 1
625 250 m 1
 625 375 l 1
 750 375 l 1
 750 250 l 1
 625 250 l 1
125 125 m 1
 125 250 l 1
 250 250 l 1
 250 125 l 1
 125 125 l 1
625 125 m 1
 625 250 l 1
 750 250 l 1
 750 125 l 1
 625 125 l 1
125 0 m 1
 125 125 l 1
 250 125 l 1
 250 0 l 1
 125 0 l 1
625 0 m 1
 625 125 l 1
 750 125 l 1
 750 0 l 1
 625 0 l 1
EndSplineSet
EndChar

StartChar: I
Encoding: 73 73 41
Width: 875
Flags: HW
LayerCount: 2
Back
Fore
SplineSet
250 750 m 1
 250 875 l 1
 625 875 l 1
 625 750 l 1
 250 750 l 1
375 625 m 1
 375 750 l 1
 500 750 l 1
 500 625 l 1
 375 625 l 1
375 500 m 1
 375 625 l 1
 500 625 l 1
 500 500 l 1
 375 500 l 1
375 375 m 1
 375 500 l 1
 500 500 l 1
 500 375 l 1
 375 375 l 1
375 250 m 1
 375 375 l 1
 500 375 l 1
 500 250 l 1
 375 250 l 1
375 125 m 1
 375 250 l 1
 500 250 l 1
 500 125 l 1
 375 125 l 1
250 0 m 1
 250 125 l 1
 625 125 l 1
 625 0 l 1
 250 0 l 1
EndSplineSet
EndChar

StartChar: J
Encoding: 74 74 42
Width: 875
Flags: HW
LayerCount: 2
Back
Fore
SplineSet
625 750 m 1
 625 875 l 1
 750 875 l 1
 750 750 l 1
 625 750 l 1
625 625 m 1
 625 750 l 1
 750 750 l 1
 750 625 l 1
 625 625 l 1
625 500 m 1
 625 625 l 1
 750 625 l 1
 750 500 l 1
 625 500 l 1
625 375 m 1
 625 500 l 1
 750 500 l 1
 750 375 l 1
 625 375 l 1
625 250 m 1
 625 375 l 1
 750 375 l 1
 750 250 l 1
 625 250 l 1
125 125 m 1
 125 250 l 1
 250 250 l 1
 250 125 l 1
 125 125 l 1
625 125 m 1
 625 250 l 1
 750 250 l 1
 750 125 l 1
 625 125 l 1
250 0 m 1
 250 125 l 1
 625 125 l 1
 625 0 l 1
 250 0 l 1
EndSplineSet
EndChar

StartChar: K
Encoding: 75 75 43
Width: 875
Flags: HW
LayerCount: 2
Back
Fore
SplineSet
125 750 m 1
 125 875 l 1
 250 875 l 1
 250 750 l 1
 125 750 l 1
625 750 m 1
 625 875 l 1
 750 875 l 1
 750 750 l 1
 625 750 l 1
125 625 m 1
 125 750 l 1
 250 750 l 1
 250 625 l 1
 125 625 l 1
500 625 m 1
 500 750 l 1
 625 750 l 1
 625 625 l 1
 500 625 l 1
125 500 m 1
 125 625 l 1
 250 625 l 1
 250 500 l 1
 125 500 l 1
375 500 m 1
 375 625 l 1
 500 625 l 1
 500 500 l 1
 375 500 l 1
125 375 m 1
 125 500 l 1
 375 500 l 1
 375 375 l 1
 125 375 l 1
125 250 m 1
 125 375 l 1
 250 375 l 1
 250 250 l 1
 125 250 l 1
375 250 m 1
 375 375 l 1
 500 375 l 1
 500 250 l 1
 375 250 l 1
125 125 m 1
 125 250 l 1
 250 250 l 1
 250 125 l 1
 125 125 l 1
500 125 m 1
 500 250 l 1
 625 250 l 1
 625 125 l 1
 500 125 l 1
125 0 m 1
 125 125 l 1
 250 125 l 1
 250 0 l 1
 125 0 l 1
625 0 m 1
 625 125 l 1
 750 125 l 1
 750 0 l 1
 625 0 l 1
EndSplineSet
EndChar

StartChar: L
Encoding: 76 76 44
Width: 875
Flags: HW
LayerCount: 2
Back
Fore
SplineSet
125 750 m 1
 125 875 l 1
 250 875 l 1
 250 750 l 1
 125 750 l 1
125 625 m 1
 125 750 l 1
 250 750 l 1
 250 625 l 1
 125 625 l 1
125 500 m 1
 125 625 l 1
 250 625 l 1
 250 500 l 1
 125 500 l 1
125 375 m 1
 125 500 l 1
 250 500 l 1
 250 375 l 1
 125 375 l 1
125 250 m 1
 125 375 l 1
 250 375 l 1
 250 250 l 1
 125 250 l 1
125 125 m 1
 125 250 l 1
 250 250 l 1
 250 125 l 1
 125 125 l 1
125 0 m 1
 125 125 l 1
 750 125 l 1
 750 0 l 1
 125 0 l 1
EndSplineSet
EndChar

StartChar: M
Encoding: 77 77 45
Width: 875
Flags: HW
LayerCount: 2
Back
Fore
SplineSet
125 750 m 1
 125 875 l 1
 250 875 l 1
 250 750 l 1
 125 750 l 1
625 750 m 1
 625 875 l 1
 750 875 l 1
 750 750 l 1
 625 750 l 1
125 625 m 1
 125 750 l 1
 375 750 l 1
 375 625 l 1
 125 625 l 1
500 625 m 1
 500 750 l 1
 750 750 l 1
 750 625 l 1
 500 625 l 1
125 500 m 1
 125 625 l 1
 250 625 l 1
 250 500 l 1
 125 500 l 1
375 500 m 1
 375 625 l 1
 500 625 l 1
 500 500 l 1
 375 500 l 1
625 500 m 1
 625 625 l 1
 750 625 l 1
 750 500 l 1
 625 500 l 1
125 375 m 1
 125 500 l 1
 250 500 l 1
 250 375 l 1
 125 375 l 1
375 375 m 1
 375 500 l 1
 500 500 l 1
 500 375 l 1
 375 375 l 1
625 375 m 1
 625 500 l 1
 750 500 l 1
 750 375 l 1
 625 375 l 1
125 250 m 1
 125 375 l 1
 250 375 l 1
 250 250 l 1
 125 250 l 1
625 250 m 1
 625 375 l 1
 750 375 l 1
 750 250 l 1
 625 250 l 1
125 125 m 1
 125 250 l 1
 250 250 l 1
 250 125 l 1
 125 125 l 1
625 125 m 1
 625 250 l 1
 750 250 l 1
 750 125 l 1
 625 125 l 1
125 0 m 1
 125 125 l 1
 250 125 l 1
 250 0 l 1
 125 0 l 1
625 0 m 1
 625 125 l 1
 750 125 l 1
 750 0 l 1
 625 0 l 1
EndSplineSet
EndChar

StartChar: N
Encoding: 78 78 46
Width: 875
Flags: HW
LayerCount: 2
Back
Fore
SplineSet
125 750 m 1
 125 875 l 1
 250 875 l 1
 250 750 l 1
 125 750 l 1
625 750 m 1
 625 875 l 1
 750 875 l 1
 750 750 l 1
 625 750 l 1
125 625 m 1
 125 750 l 1
 250 750 l 1
 250 625 l 1
 125 625 l 1
625 625 m 1
 625 750 l 1
 750 750 l 1
 750 625 l 1
 625 625 l 1
125 500 m 1
 125 625 l 1
 375 625 l 1
 375 500 l 1
 125 500 l 1
625 500 m 1
 625 625 l 1
 750 625 l 1
 750 500 l 1
 625 500 l 1
125 375 m 1
 125 500 l 1
 250 500 l 1
 250 375 l 1
 125 375 l 1
375 375 m 1
 375 500 l 1
 500 500 l 1
 500 375 l 1
 375 375 l 1
625 375 m 1
 625 500 l 1
 750 500 l 1
 750 375 l 1
 625 375 l 1
125 250 m 1
 125 375 l 1
 250 375 l 1
 250 250 l 1
 125 250 l 1
500 250 m 1
 500 375 l 1
 750 375 l 1
 750 250 l 1
 500 250 l 1
125 125 m 1
 125 250 l 1
 250 250 l 1
 250 125 l 1
 125 125 l 1
625 125 m 1
 625 250 l 1
 750 250 l 1
 750 125 l 1
 625 125 l 1
125 0 m 1
 125 125 l 1
 250 125 l 1
 250 0 l 1
 125 0 l 1
625 0 m 1
 625 125 l 1
 750 125 l 1
 750 0 l 1
 625 0 l 1
EndSplineSet
EndChar

StartChar: O
Encoding: 79 79 47
Width: 875
Flags: HW
LayerCount: 2
Back
Fore
SplineSet
250 750 m 1
 250 875 l 1
 625 875 l 1
 625 750 l 1
 250 750 l 1
125 625 m 1
 125 750 l 1
 250 750 l 1
 250 625 l 1
 125 625 l 1
625 625 m 1
 625 750 l 1
 750 750 l 1
 750 625 l 1
 625 625 l 1
125 500 m 1
 125 625 l 1
 250 625 l 1
 250 500 l 1
 125 500 l 1
625 500 m 1
 625 625 l 1
 750 625 l 1
 750 500 l 1
 625 500 l 1
125 375 m 1
 125 500 l 1
 250 500 l 1
 250 375 l 1
 125 375 l 1
625 375 m 1
 625 500 l 1
 750 500 l 1
 750 375 l 1
 625 375 l 1
125 250 m 1
 125 375 l 1
 250 375 l 1
 250 250 l 1
 125 250 l 1
625 250 m 1
 625 375 l 1
 750 375 l 1
 750 250 l 1
 625 250 l 1
125 125 m 1
 125 250 l 1
 250 250 l 1
 250 125 l 1
 125 125 l 1
625 125 m 1
 625 250 l 1
 750 250 l 1
 750 125 l 1
 625 125 l 1
250 0 m 1
 250 125 l 1
 625 125 l 1
 625 0 l 1
 250 0 l 1
EndSplineSet
EndChar

StartChar: P
Encoding: 80 80 48
Width: 875
Flags: HW
LayerCount: 2
Back
Fore
SplineSet
125 750 m 1
 125 875 l 1
 625 875 l 1
 625 750 l 1
 125 750 l 1
125 625 m 1
 125 750 l 1
 250 750 l 1
 250 625 l 1
 125 625 l 1
625 625 m 1
 625 750 l 1
 750 750 l 1
 750 625 l 1
 625 625 l 1
125 500 m 1
 125 625 l 1
 250 625 l 1
 250 500 l 1
 125 500 l 1
625 500 m 1
 625 625 l 1
 750 625 l 1
 750 500 l 1
 625 500 l 1
125 375 m 1
 125 500 l 1
 625 500 l 1
 625 375 l 1
 125 375 l 1
125 250 m 1
 125 375 l 1
 250 375 l 1
 250 250 l 1
 125 250 l 1
125 125 m 1
 125 250 l 1
 250 250 l 1
 250 125 l 1
 125 125 l 1
125 0 m 1
 125 125 l 1
 250 125 l 1
 250 0 l 1
 125 0 l 1
EndSplineSet
EndChar

StartChar: Q
Encoding: 81 81 49
Width: 875
Flags: HW
LayerCount: 2
Back
Fore
SplineSet
250 750 m 1
 250 875 l 1
 625 875 l 1
 625 750 l 1
 250 750 l 1
125 625 m 1
 125 750 l 1
 250 750 l 1
 250 625 l 1
 125 625 l 1
625 625 m 1
 625 750 l 1
 750 750 l 1
 750 625 l 1
 625 625 l 1
125 500 m 1
 125 625 l 1
 250 625 l 1
 250 500 l 1
 125 500 l 1
625 500 m 1
 625 625 l 1
 750 625 l 1
 750 500 l 1
 625 500 l 1
125 375 m 1
 125 500 l 1
 250 500 l 1
 250 375 l 1
 125 375 l 1
625 375 m 1
 625 500 l 1
 750 500 l 1
 750 375 l 1
 625 375 l 1
125 250 m 1
 125 375 l 1
 250 375 l 1
 250 250 l 1
 125 250 l 1
375 250 m 1
 375 375 l 1
 500 375 l 1
 500 250 l 1
 375 250 l 1
625 250 m 1
 625 375 l 1
 750 375 l 1
 750 250 l 1
 625 250 l 1
125 125 m 1
 125 250 l 1
 250 250 l 1
 250 125 l 1
 125 125 l 1
500 125 m 1
 500 250 l 1
 625 250 l 1
 625 125 l 1
 500 125 l 1
250 0 m 1
 250 125 l 1
 500 125 l 1
 500 0 l 1
 250 0 l 1
625 0 m 1
 625 125 l 1
 750 125 l 1
 750 0 l 1
 625 0 l 1
EndSplineSet
EndChar

StartChar: R
Encoding: 82 82 50
Width: 875
Flags: HW
LayerCount: 2
Back
Fore
SplineSet
125 750 m 1
 125 875 l 1
 625 875 l 1
 625 750 l 1
 125 750 l 1
125 625 m 1
 125 750 l 1
 250 750 l 1
 250 625 l 1
 125 625 l 1
625 625 m 1
 625 750 l 1
 750 750 l 1
 750 625 l 1
 625 625 l 1
125 500 m 1
 125 625 l 1
 250 625 l 1
 250 500 l 1
 125 500 l 1
625 500 m 1
 625 625 l 1
 750 625 l 1
 750 500 l 1
 625 500 l 1
125 375 m 1
 125 500 l 1
 625 500 l 1
 625 375 l 1
 125 375 l 1
125 250 m 1
 125 375 l 1
 250 375 l 1
 250 250 l 1
 125 250 l 1
375 250 m 1
 375 375 l 1
 500 375 l 1
 500 250 l 1
 375 250 l 1
125 125 m 1
 125 250 l 1
 250 250 l 1
 250 125 l 1
 125 125 l 1
500 125 m 1
 500 250 l 1
 625 250 l 1
 625 125 l 1
 500 125 l 1
125 0 m 1
 125 125 l 1
 250 125 l 1
 250 0 l 1
 125 0 l 1
625 0 m 1
 625 125 l 1
 750 125 l 1
 750 0 l 1
 625 0 l 1
EndSplineSet
EndChar

StartChar: S
Encoding: 83 83 51
Width: 875
Flags: HW
LayerCount: 2
Back
Fore
SplineSet
250 750 m 1
 250 875 l 1
 625 875 l 1
 625 750 l 1
 250 750 l 1
125 625 m 1
 125 750 l 1
 250 750 l 1
 250 625 l 1
 125 625 l 1
625 625 m 1
 625 750 l 1
 750 750 l 1
 750 625 l 1
 625 625 l 1
125 500 m 1
 125 625 l 1
 250 625 l 1
 250 500 l 1
 125 500 l 1
250 375 m 1
 250 500 l 1
 625 500 l 1
 625 375 l 1
 250 375 l 1
625 250 m 1
 625 375 l 1
 750 375 l 1
 750 250 l 1
 625 250 l 1
125 125 m 1
 125 250 l 1
 250 250 l 1
 250 125 l 1
 125 125 l 1
625 125 m 1
 625 250 l 1
 750 250 l 1
 750 125 l 1
 625 125 l 1
250 0 m 1
 250 125 l 1
 625 125 l 1
 625 0 l 1
 250 0 l 1
EndSplineSet
EndChar

StartChar: T
Encoding: 84 84 52
Width: 875
Flags: HW
LayerCount: 2
Back
Fore
SplineSet
125 750 m 1
 125 875 l 1
 750 875 l 1
 750 750 l 1
 125 750 l 1
375 625 m 1
 375 750 l 1
 500 750 l 1
 500 625 l 1
 375 625 l 1
375 500 m 1
 375 625 l 1
 500 625 l 1
 500 500 l 1
 375 500 l 1
375 375 m 1
 375 500 l 1
 500 500 l 1
 500 375 l 1
 375 375 l 1
375 250 m 1
 375 375 l 1
 500 375 l 1
 500 250 l 1
 375 250 l 1
375 125 m 1
 375 250 l 1
 500 250 l 1
 500 125 l 1
 375 125 l 1
375 0 m 1
 375 125 l 1
 500 125 l 1
 500 0 l 1
 375 0 l 1
EndSplineSet
EndChar

StartChar: U
Encoding: 85 85 53
Width: 875
Flags: HW
LayerCount: 2
Back
Fore
SplineSet
125 750 m 1
 125 875 l 1
 250 875 l 1
 250 750 l 1
 125 750 l 1
625 750 m 1
 625 875 l 1
 750 875 l 1
 750 750 l 1
 625 750 l 1
125 625 m 1
 125 750 l 1
 250 750 l 1
 250 625 l 1
 125 625 l 1
625 625 m 1
 625 750 l 1
 750 750 l 1
 750 625 l 1
 625 625 l 1
125 500 m 1
 125 625 l 1
 250 625 l 1
 250 500 l 1
 125 500 l 1
625 500 m 1
 625 625 l 1
 750 625 l 1
 750 500 l 1
 625 500 l 1
125 375 m 1
 125 500 l 1
 250 500 l 1
 250 375 l 1
 125 375 l 1
625 375 m 1
 625 500 l 1
 750 500 l 1
 750 375 l 1
 625 375 l 1
125 250 m 1
 125 375 l 1
 250 375 l 1
 250 250 l 1
 125 250 l 1
625 250 m 1
 625 375 l 1
 750 375 l 1
 750 250 l 1
 625 250 l 1
125 125 m 1
 125 250 l 1
 250 250 l 1
 250 125 l 1
 125 125 l 1
625 125 m 1
 625 250 l 1
 750 250 l 1
 750 125 l 1
 625 125 l 1
250 0 m 1
 250 125 l 1
 625 125 l 1
 625 0 l 1
 250 0 l 1
EndSplineSet
EndChar

StartChar: V
Encoding: 86 86 54
Width: 875
Flags: HW
LayerCount: 2
Back
Fore
SplineSet
125 750 m 1
 125 875 l 1
 250 875 l 1
 250 750 l 1
 125 750 l 1
625 750 m 1
 625 875 l 1
 750 875 l 1
 750 750 l 1
 625 750 l 1
125 625 m 1
 125 750 l 1
 250 750 l 1
 250 625 l 1
 125 625 l 1
625 625 m 1
 625 750 l 1
 750 750 l 1
 750 625 l 1
 625 625 l 1
125 500 m 1
 125 625 l 1
 250 625 l 1
 250 500 l 1
 125 500 l 1
625 500 m 1
 625 625 l 1
 750 625 l 1
 750 500 l 1
 625 500 l 1
125 375 m 1
 125 500 l 1
 250 500 l 1
 250 375 l 1
 125 375 l 1
625 375 m 1
 625 500 l 1
 750 500 l 1
 750 375 l 1
 625 375 l 1
125 250 m 1
 125 375 l 1
 250 375 l 1
 250 250 l 1
 125 250 l 1
625 250 m 1
 625 375 l 1
 750 375 l 1
 750 250 l 1
 625 250 l 1
250 125 m 1
 250 250 l 1
 375 250 l 1
 375 125 l 1
 250 125 l 1
500 125 m 1
 500 250 l 1
 625 250 l 1
 625 125 l 1
 500 125 l 1
375 0 m 1
 375 125 l 1
 500 125 l 1
 500 0 l 1
 375 0 l 1
EndSplineSet
EndChar

StartChar: W
Encoding: 87 87 55
Width: 875
Flags: HW
LayerCount: 2
Back
Fore
SplineSet
125 750 m 1
 125 875 l 1
 250 875 l 1
 250 750 l 1
 125 750 l 1
625 750 m 1
 625 875 l 1
 750 875 l 1
 750 750 l 1
 625 750 l 1
125 625 m 1
 125 750 l 1
 250 750 l 1
 250 625 l 1
 125 625 l 1
625 625 m 1
 625 750 l 1
 750 750 l 1
 750 625 l 1
 625 625 l 1
125 500 m 1
 125 625 l 1
 250 625 l 1
 250 500 l 1
 125 500 l 1
625 500 m 1
 625 625 l 1
 750 625 l 1
 750 500 l 1
 625 500 l 1
125 375 m 1
 125 500 l 1
 250 500 l 1
 250 375 l 1
 125 375 l 1
375 375 m 1
 375 500 l 1
 500 500 l 1
 500 375 l 1
 375 375 l 1
625 375 m 1
 625 500 l 1
 750 500 l 1
 750 375 l 1
 625 375 l 1
125 250 m 1
 125 375 l 1
 250 375 l 1
 250 250 l 1
 125 250 l 1
375 250 m 1
 375 375 l 1
 500 375 l 1
 500 250 l 1
 375 250 l 1
625 250 m 1
 625 375 l 1
 750 375 l 1
 750 250 l 1
 625 250 l 1
125 125 m 1
 125 250 l 1
 375 250 l 1
 375 125 l 1
 125 125 l 1
500 125 m 1
 500 250 l 1
 750 250 l 1
 750 125 l 1
 500 125 l 1
125 0 m 1
 125 125 l 1
 250 125 l 1
 250 0 l 1
 125 0 l 1
625 0 m 1
 625 125 l 1
 750 125 l 1
 750 0 l 1
 625 0 l 1
EndSplineSet
EndChar

StartChar: X
Encoding: 88 88 56
Width: 875
Flags: HW
LayerCount: 2
Back
Fore
SplineSet
125 750 m 1
 125 875 l 1
 250 875 l 1
 250 750 l 1
 125 750 l 1
625 750 m 1
 625 875 l 1
 750 875 l 1
 750 750 l 1
 625 750 l 1
125 625 m 1
 125 750 l 1
 250 750 l 1
 250 625 l 1
 125 625 l 1
625 625 m 1
 625 750 l 1
 750 750 l 1
 750 625 l 1
 625 625 l 1
250 500 m 1
 250 625 l 1
 375 625 l 1
 375 500 l 1
 250 500 l 1
500 500 m 1
 500 625 l 1
 625 625 l 1
 625 500 l 1
 500 500 l 1
375 375 m 1
 375 500 l 1
 500 500 l 1
 500 375 l 1
 375 375 l 1
250 250 m 1
 250 375 l 1
 375 375 l 1
 375 250 l 1
 250 250 l 1
500 250 m 1
 500 375 l 1
 625 375 l 1
 625 250 l 1
 500 250 l 1
125 125 m 1
 125 250 l 1
 250 250 l 1
 250 125 l 1
 125 125 l 1
625 125 m 1
 625 250 l 1
 750 250 l 1
 750 125 l 1
 625 125 l 1
125 0 m 1
 125 125 l 1
 250 125 l 1
 250 0 l 1
 125 0 l 1
625 0 m 1
 625 125 l 1
 750 125 l 1
 750 0 l 1
 625 0 l 1
EndSplineSet
EndChar

StartChar: Y
Encoding: 89 89 57
Width: 875
Flags: HW
LayerCount: 2
Back
Fore
SplineSet
125 750 m 1
 125 875 l 1
 250 875 l 1
 250 750 l 1
 125 750 l 1
625 750 m 1
 625 875 l 1
 750 875 l 1
 750 750 l 1
 625 750 l 1
125 625 m 1
 125 750 l 1
 250 750 l 1
 250 625 l 1
 125 625 l 1
625 625 m 1
 625 750 l 1
 750 750 l 1
 750 625 l 1
 625 625 l 1
250 500 m 1
 250 625 l 1
 375 625 l 1
 375 500 l 1
 250 500 l 1
500 500 m 1
 500 625 l 1
 625 625 l 1
 625 500 l 1
 500 500 l 1
375 375 m 1
 375 500 l 1
 500 500 l 1
 500 375 l 1
 375 375 l 1
375 250 m 1
 375 375 l 1
 500 375 l 1
 500 250 l 1
 375 250 l 1
375 125 m 1
 375 250 l 1
 500 250 l 1
 500 125 l 1
 375 125 l 1
375 0 m 1
 375 125 l 1
 500 125 l 1
 500 0 l 1
 375 0 l 1
EndSplineSet
EndChar

StartChar: Z
Encoding: 90 90 58
Width: 875
Flags: HW
LayerCount: 2
Back
Fore
SplineSet
125 750 m 1
 125 875 l 1
 750 875 l 1
 750 750 l 1
 125 750 l 1
625 625 m 1
 625 750 l 1
 750 750 l 1
 750 625 l 1
 625 625 l 1
500 500 m 1
 500 625 l 1
 625 625 l 1
 625 500 l 1
 500 500 l 1
375 375 m 1
 375 500 l 1
 500 500 l 1
 500 375 l 1
 375 375 l 1
250 250 m 1
 250 375 l 1
 375 375 l 1
 375 250 l 1
 250 250 l 1
125 125 m 1
 125 250 l 1
 250 250 l 1
 250 125 l 1
 125 125 l 1
125 0 m 1
 125 125 l 1
 750 125 l 1
 750 0 l 1
 125 0 l 1
EndSplineSet
EndChar

StartChar: bracketleft
Encoding: 91 91 59
Width: 875
Flags: HW
LayerCount: 2
Back
Fore
SplineSet
125 750 m 1
 125 875 l 1
 750 875 l 1
 750 750 l 1
 125 750 l 1
125 625 m 1
 125 750 l 1
 375 750 l 1
 375 625 l 1
 125 625 l 1
125 500 m 1
 125 625 l 1
 375 625 l 1
 375 500 l 1
 125 500 l 1
125 375 m 1
 125 500 l 1
 375 500 l 1
 375 375 l 1
 125 375 l 1
125 250 m 1
 125 375 l 1
 375 375 l 1
 375 250 l 1
 125 250 l 1
125 125 m 1
 125 250 l 1
 375 250 l 1
 375 125 l 1
 125 125 l 1
125 0 m 1
 125 125 l 1
 750 125 l 1
 750 0 l 1
 125 0 l 1
EndSplineSet
EndChar

StartChar: backslash
Encoding: 92 92 60
Width: 875
Flags: HW
LayerCount: 2
Back
Fore
SplineSet
125 625 m 1
 125 750 l 1
 250 750 l 1
 250 625 l 1
 125 625 l 1
250 500 m 1
 250 625 l 1
 375 625 l 1
 375 500 l 1
 250 500 l 1
375 375 m 1
 375 500 l 1
 500 500 l 1
 500 375 l 1
 375 375 l 1
500 250 m 1
 500 375 l 1
 625 375 l 1
 625 250 l 1
 500 250 l 1
625 125 m 1
 625 250 l 1
 750 250 l 1
 750 125 l 1
 625 125 l 1
EndSplineSet
EndChar

StartChar: bracketright
Encoding: 93 93 61
Width: 875
Flags: HW
LayerCount: 2
Back
Fore
SplineSet
125 750 m 1
 125 875 l 1
 750 875 l 1
 750 750 l 1
 125 750 l 1
500 625 m 1
 500 750 l 1
 750 750 l 1
 750 625 l 1
 500 625 l 1
500 500 m 1
 500 625 l 1
 750 625 l 1
 750 500 l 1
 500 500 l 1
500 375 m 1
 500 500 l 1
 750 500 l 1
 750 375 l 1
 500 375 l 1
500 250 m 1
 500 375 l 1
 750 375 l 1
 750 250 l 1
 500 250 l 1
500 125 m 1
 500 250 l 1
 750 250 l 1
 750 125 l 1
 500 125 l 1
125 0 m 1
 125 125 l 1
 750 125 l 1
 750 0 l 1
 125 0 l 1
EndSplineSet
EndChar

StartChar: asciicircum
Encoding: 94 94 62
Width: 875
Flags: HW
LayerCount: 2
Back
Fore
SplineSet
375 500 m 1
 375 625 l 1
 500 625 l 1
 500 500 l 1
 375 500 l 1
250 375 m 1
 250 500 l 1
 375 500 l 1
 375 375 l 1
 250 375 l 1
500 375 m 1
 500 500 l 1
 625 500 l 1
 625 375 l 1
 500 375 l 1
125 250 m 1
 125 375 l 1
 250 375 l 1
 250 250 l 1
 125 250 l 1
625 250 m 1
 625 375 l 1
 750 375 l 1
 750 250 l 1
 625 250 l 1
EndSplineSet
EndChar

StartChar: underscore
Encoding: 95 95 63
Width: 875
Flags: HW
LayerCount: 2
Back
Fore
SplineSet
0 -125 m 1
 0 0 l 1
 875 0 l 1
 875 -125 l 1
 0 -125 l 1
EndSplineSet
EndChar

StartChar: grave
Encoding: 96 96 64
Width: 875
Flags: HW
LayerCount: 2
Back
Fore
SplineSet
250 750 m 1
 250 875 l 1
 375 875 l 1
 375 750 l 1
 250 750 l 1
375 625 m 1
 375 750 l 1
 500 750 l 1
 500 625 l 1
 375 625 l 1
500 500 m 1
 500 625 l 1
 625 625 l 1
 625 500 l 1
 500 500 l 1
EndSplineSet
EndChar

StartChar: a
Encoding: 97 97 65
Width: 875
Flags: HW
LayerCount: 2
Back
Fore
SplineSet
250 500 m 1
 250 625 l 1
 625 625 l 1
 625 500 l 1
 250 500 l 1
625 375 m 1
 625 500 l 1
 750 500 l 1
 750 375 l 1
 625 375 l 1
250 250 m 1
 250 375 l 1
 750 375 l 1
 750 250 l 1
 250 250 l 1
125 125 m 1
 125 250 l 1
 250 250 l 1
 250 125 l 1
 125 125 l 1
625 125 m 1
 625 250 l 1
 750 250 l 1
 750 125 l 1
 625 125 l 1
250 0 m 1
 250 125 l 1
 750 125 l 1
 750 0 l 1
 250 0 l 1
EndSplineSet
EndChar

StartChar: b
Encoding: 98 98 66
Width: 875
Flags: HW
LayerCount: 2
Back
Fore
SplineSet
125 750 m 1
 125 875 l 1
 250 875 l 1
 250 750 l 1
 125 750 l 1
125 625 m 1
 125 750 l 1
 250 750 l 1
 250 625 l 1
 125 625 l 1
125 500 m 1
 125 625 l 1
 625 625 l 1
 625 500 l 1
 125 500 l 1
125 375 m 1
 125 500 l 1
 250 500 l 1
 250 375 l 1
 125 375 l 1
625 375 m 1
 625 500 l 1
 750 500 l 1
 750 375 l 1
 625 375 l 1
125 250 m 1
 125 375 l 1
 250 375 l 1
 250 250 l 1
 125 250 l 1
625 250 m 1
 625 375 l 1
 750 375 l 1
 750 250 l 1
 625 250 l 1
125 125 m 1
 125 250 l 1
 250 250 l 1
 250 125 l 1
 125 125 l 1
625 125 m 1
 625 250 l 1
 750 250 l 1
 750 125 l 1
 625 125 l 1
125 0 m 1
 125 125 l 1
 625 125 l 1
 625 0 l 1
 125 0 l 1
EndSplineSet
EndChar

StartChar: c
Encoding: 99 99 67
Width: 875
Flags: HW
LayerCount: 2
Back
Fore
SplineSet
250 500 m 1
 250 625 l 1
 750 625 l 1
 750 500 l 1
 250 500 l 1
125 375 m 1
 125 500 l 1
 250 500 l 1
 250 375 l 1
 125 375 l 1
125 250 m 1
 125 375 l 1
 250 375 l 1
 250 250 l 1
 125 250 l 1
125 125 m 1
 125 250 l 1
 250 250 l 1
 250 125 l 1
 125 125 l 1
250 0 m 1
 250 125 l 1
 750 125 l 1
 750 0 l 1
 250 0 l 1
EndSplineSet
EndChar

StartChar: d
Encoding: 100 100 68
Width: 875
Flags: HW
LayerCount: 2
Back
Fore
SplineSet
625 750 m 1
 625 875 l 1
 750 875 l 1
 750 750 l 1
 625 750 l 1
625 625 m 1
 625 750 l 1
 750 750 l 1
 750 625 l 1
 625 625 l 1
250 500 m 1
 250 625 l 1
 750 625 l 1
 750 500 l 1
 250 500 l 1
125 375 m 1
 125 500 l 1
 250 500 l 1
 250 375 l 1
 125 375 l 1
625 375 m 1
 625 500 l 1
 750 500 l 1
 750 375 l 1
 625 375 l 1
125 250 m 1
 125 375 l 1
 250 375 l 1
 250 250 l 1
 125 250 l 1
625 250 m 1
 625 375 l 1
 750 375 l 1
 750 250 l 1
 625 250 l 1
125 125 m 1
 125 250 l 1
 250 250 l 1
 250 125 l 1
 125 125 l 1
625 125 m 1
 625 250 l 1
 750 250 l 1
 750 125 l 1
 625 125 l 1
250 0 m 1
 250 125 l 1
 750 125 l 1
 750 0 l 1
 250 0 l 1
EndSplineSet
EndChar

StartChar: e
Encoding: 101 101 69
Width: 875
Flags: HW
LayerCount: 2
Back
Fore
SplineSet
250 500 m 1
 250 625 l 1
 625 625 l 1
 625 500 l 1
 250 500 l 1
125 375 m 1
 125 500 l 1
 250 500 l 1
 250 375 l 1
 125 375 l 1
625 375 m 1
 625 500 l 1
 750 500 l 1
 750 375 l 1
 625 375 l 1
125 250 m 1
 125 375 l 1
 750 375 l 1
 750 250 l 1
 125 250 l 1
125 125 m 1
 125 250 l 1
 250 250 l 1
 250 125 l 1
 125 125 l 1
250 0 m 1
 250 125 l 1
 750 125 l 1
 750 0 l 1
 250 0 l 1
EndSplineSet
EndChar

StartChar: f
Encoding: 102 102 70
Width: 875
Flags: HW
LayerCount: 2
Back
Fore
SplineSet
375 750 m 1
 375 875 l 1
 625 875 l 1
 625 750 l 1
 375 750 l 1
250 625 m 1
 250 750 l 1
 375 750 l 1
 375 625 l 1
 250 625 l 1
625 625 m 1
 625 750 l 1
 750 750 l 1
 750 625 l 1
 625 625 l 1
250 500 m 1
 250 625 l 1
 375 625 l 1
 375 500 l 1
 250 500 l 1
125 375 m 1
 125 500 l 1
 625 500 l 1
 625 375 l 1
 125 375 l 1
250 250 m 1
 250 375 l 1
 375 375 l 1
 375 250 l 1
 250 250 l 1
250 125 m 1
 250 250 l 1
 375 250 l 1
 375 125 l 1
 250 125 l 1
250 0 m 1
 250 125 l 1
 375 125 l 1
 375 0 l 1
 250 0 l 1
EndSplineSet
EndChar

StartChar: g
Encoding: 103 103 71
Width: 875
Flags: HW
LayerCount: 2
Back
Fore
SplineSet
250 500 m 1
 250 625 l 1
 625 625 l 1
 625 500 l 1
 250 500 l 1
125 375 m 1
 125 500 l 1
 250 500 l 1
 250 375 l 1
 125 375 l 1
625 375 m 1
 625 500 l 1
 750 500 l 1
 750 375 l 1
 625 375 l 1
125 250 m 1
 125 375 l 1
 250 375 l 1
 250 250 l 1
 125 250 l 1
625 250 m 1
 625 375 l 1
 750 375 l 1
 750 250 l 1
 625 250 l 1
250 125 m 1
 250 250 l 1
 750 250 l 1
 750 125 l 1
 250 125 l 1
625 0 m 1
 625 125 l 1
 750 125 l 1
 750 0 l 1
 625 0 l 1
250 -125 m 1
 250 0 l 1
 625 0 l 1
 625 -125 l 1
 250 -125 l 1
EndSplineSet
EndChar

StartChar: h
Encoding: 104 104 72
Width: 875
Flags: HW
LayerCount: 2
Back
Fore
SplineSet
125 750 m 1
 125 875 l 1
 250 875 l 1
 250 750 l 1
 125 750 l 1
125 625 m 1
 125 750 l 1
 250 750 l 1
 250 625 l 1
 125 625 l 1
125 500 m 1
 125 625 l 1
 625 625 l 1
 625 500 l 1
 125 500 l 1
125 375 m 1
 125 500 l 1
 250 500 l 1
 250 375 l 1
 125 375 l 1
625 375 m 1
 625 500 l 1
 750 500 l 1
 750 375 l 1
 625 375 l 1
125 250 m 1
 125 375 l 1
 250 375 l 1
 250 250 l 1
 125 250 l 1
625 250 m 1
 625 375 l 1
 750 375 l 1
 750 250 l 1
 625 250 l 1
125 125 m 1
 125 250 l 1
 250 250 l 1
 250 125 l 1
 125 125 l 1
625 125 m 1
 625 250 l 1
 750 250 l 1
 750 125 l 1
 625 125 l 1
125 0 m 1
 125 125 l 1
 250 125 l 1
 250 0 l 1
 125 0 l 1
625 0 m 1
 625 125 l 1
 750 125 l 1
 750 0 l 1
 625 0 l 1
EndSplineSet
EndChar

StartChar: i
Encoding: 105 105 73
Width: 875
Flags: HW
LayerCount: 2
Back
Fore
SplineSet
375 750 m 1
 375 875 l 1
 500 875 l 1
 500 750 l 1
 375 750 l 1
250 500 m 1
 250 625 l 1
 500 625 l 1
 500 500 l 1
 250 500 l 1
375 375 m 1
 375 500 l 1
 500 500 l 1
 500 375 l 1
 375 375 l 1
375 250 m 1
 375 375 l 1
 500 375 l 1
 500 250 l 1
 375 250 l 1
375 125 m 1
 375 250 l 1
 500 250 l 1
 500 125 l 1
 375 125 l 1
250 0 m 1
 250 125 l 1
 625 125 l 1
 625 0 l 1
 250 0 l 1
EndSplineSet
EndChar

StartChar: j
Encoding: 106 106 74
Width: 875
Flags: HW
LayerCount: 2
Back
Fore
SplineSet
500 750 m 1
 500 875 l 1
 625 875 l 1
 625 750 l 1
 500 750 l 1
375 500 m 1
 375 625 l 1
 625 625 l 1
 625 500 l 1
 375 500 l 1
500 375 m 1
 500 500 l 1
 625 500 l 1
 625 375 l 1
 500 375 l 1
500 250 m 1
 500 375 l 1
 625 375 l 1
 625 250 l 1
 500 250 l 1
500 125 m 1
 500 250 l 1
 625 250 l 1
 625 125 l 1
 500 125 l 1
125 0 m 1
 125 125 l 1
 250 125 l 1
 250 0 l 1
 125 0 l 1
500 0 m 1
 500 125 l 1
 625 125 l 1
 625 0 l 1
 500 0 l 1
250 -125 m 1
 250 0 l 1
 500 0 l 1
 500 -125 l 1
 250 -125 l 1
EndSplineSet
EndChar

StartChar: k
Encoding: 107 107 75
Width: 875
Flags: HW
LayerCount: 2
Back
Fore
SplineSet
125 750 m 1
 125 875 l 1
 250 875 l 1
 250 750 l 1
 125 750 l 1
125 625 m 1
 125 750 l 1
 250 750 l 1
 250 625 l 1
 125 625 l 1
125 500 m 1
 125 625 l 1
 250 625 l 1
 250 500 l 1
 125 500 l 1
625 500 m 1
 625 625 l 1
 750 625 l 1
 750 500 l 1
 625 500 l 1
125 375 m 1
 125 500 l 1
 250 500 l 1
 250 375 l 1
 125 375 l 1
500 375 m 1
 500 500 l 1
 625 500 l 1
 625 375 l 1
 500 375 l 1
125 250 m 1
 125 375 l 1
 500 375 l 1
 500 250 l 1
 125 250 l 1
125 125 m 1
 125 250 l 1
 250 250 l 1
 250 125 l 1
 125 125 l 1
500 125 m 1
 500 250 l 1
 625 250 l 1
 625 125 l 1
 500 125 l 1
125 0 m 1
 125 125 l 1
 250 125 l 1
 250 0 l 1
 125 0 l 1
625 0 m 1
 625 125 l 1
 750 125 l 1
 750 0 l 1
 625 0 l 1
EndSplineSet
EndChar

StartChar: l
Encoding: 108 108 76
Width: 875
Flags: HW
LayerCount: 2
Back
Fore
SplineSet
250 750 m 1
 250 875 l 1
 500 875 l 1
 500 750 l 1
 250 750 l 1
375 625 m 1
 375 750 l 1
 500 750 l 1
 500 625 l 1
 375 625 l 1
375 500 m 1
 375 625 l 1
 500 625 l 1
 500 500 l 1
 375 500 l 1
375 375 m 1
 375 500 l 1
 500 500 l 1
 500 375 l 1
 375 375 l 1
375 250 m 1
 375 375 l 1
 500 375 l 1
 500 250 l 1
 375 250 l 1
375 125 m 1
 375 250 l 1
 500 250 l 1
 500 125 l 1
 375 125 l 1
250 0 m 1
 250 125 l 1
 625 125 l 1
 625 0 l 1
 250 0 l 1
EndSplineSet
EndChar

StartChar: m
Encoding: 109 109 77
Width: 875
Flags: HW
LayerCount: 2
Back
Fore
SplineSet
125 500 m 1
 125 625 l 1
 375 625 l 1
 375 500 l 1
 125 500 l 1
500 500 m 1
 500 625 l 1
 750 625 l 1
 750 500 l 1
 500 500 l 1
125 375 m 1
 125 500 l 1
 250 500 l 1
 250 375 l 1
 125 375 l 1
375 375 m 1
 375 500 l 1
 500 500 l 1
 500 375 l 1
 375 375 l 1
625 375 m 1
 625 500 l 1
 750 500 l 1
 750 375 l 1
 625 375 l 1
125 250 m 1
 125 375 l 1
 250 375 l 1
 250 250 l 1
 125 250 l 1
375 250 m 1
 375 375 l 1
 500 375 l 1
 500 250 l 1
 375 250 l 1
625 250 m 1
 625 375 l 1
 750 375 l 1
 750 250 l 1
 625 250 l 1
125 125 m 1
 125 250 l 1
 250 250 l 1
 250 125 l 1
 125 125 l 1
375 125 m 1
 375 250 l 1
 500 250 l 1
 500 125 l 1
 375 125 l 1
625 125 m 1
 625 250 l 1
 750 250 l 1
 750 125 l 1
 625 125 l 1
125 0 m 1
 125 125 l 1
 250 125 l 1
 250 0 l 1
 125 0 l 1
625 0 m 1
 625 125 l 1
 750 125 l 1
 750 0 l 1
 625 0 l 1
EndSplineSet
EndChar

StartChar: n
Encoding: 110 110 78
Width: 875
Flags: HW
LayerCount: 2
Back
Fore
SplineSet
125 500 m 1
 125 625 l 1
 625 625 l 1
 625 500 l 1
 125 500 l 1
125 375 m 1
 125 500 l 1
 250 500 l 1
 250 375 l 1
 125 375 l 1
625 375 m 1
 625 500 l 1
 750 500 l 1
 750 375 l 1
 625 375 l 1
125 250 m 1
 125 375 l 1
 250 375 l 1
 250 250 l 1
 125 250 l 1
625 250 m 1
 625 375 l 1
 750 375 l 1
 750 250 l 1
 625 250 l 1
125 125 m 1
 125 250 l 1
 250 250 l 1
 250 125 l 1
 125 125 l 1
625 125 m 1
 625 250 l 1
 750 250 l 1
 750 125 l 1
 625 125 l 1
125 0 m 1
 125 125 l 1
 250 125 l 1
 250 0 l 1
 125 0 l 1
625 0 m 1
 625 125 l 1
 750 125 l 1
 750 0 l 1
 625 0 l 1
EndSplineSet
EndChar

StartChar: o
Encoding: 111 111 79
Width: 875
Flags: HW
LayerCount: 2
Back
Fore
SplineSet
250 500 m 1
 250 625 l 1
 625 625 l 1
 625 500 l 1
 250 500 l 1
125 375 m 1
 125 500 l 1
 250 500 l 1
 250 375 l 1
 125 375 l 1
625 375 m 1
 625 500 l 1
 750 500 l 1
 750 375 l 1
 625 375 l 1
125 250 m 1
 125 375 l 1
 250 375 l 1
 250 250 l 1
 125 250 l 1
625 250 m 1
 625 375 l 1
 750 375 l 1
 750 250 l 1
 625 250 l 1
125 125 m 1
 125 250 l 1
 250 250 l 1
 250 125 l 1
 125 125 l 1
625 125 m 1
 625 250 l 1
 750 250 l 1
 750 125 l 1
 625 125 l 1
250 0 m 1
 250 125 l 1
 625 125 l 1
 625 0 l 1
 250 0 l 1
EndSplineSet
EndChar

StartChar: p
Encoding: 112 112 80
Width: 875
Flags: HW
LayerCount: 2
Back
Fore
SplineSet
125 500 m 1
 125 625 l 1
 625 625 l 1
 625 500 l 1
 125 500 l 1
125 375 m 1
 125 500 l 1
 250 500 l 1
 250 375 l 1
 125 375 l 1
625 375 m 1
 625 500 l 1
 750 500 l 1
 750 375 l 1
 625 375 l 1
125 250 m 1
 125 375 l 1
 250 375 l 1
 250 250 l 1
 125 250 l 1
625 250 m 1
 625 375 l 1
 750 375 l 1
 750 250 l 1
 625 250 l 1
125 125 m 1
 125 250 l 1
 625 250 l 1
 625 125 l 1
 125 125 l 1
125 0 m 1
 125 125 l 1
 250 125 l 1
 250 0 l 1
 125 0 l 1
125 -125 m 1
 125 0 l 1
 250 0 l 1
 250 -125 l 1
 125 -125 l 1
EndSplineSet
EndChar

StartChar: q
Encoding: 113 113 81
Width: 875
Flags: HW
LayerCount: 2
Back
Fore
SplineSet
250 500 m 1
 250 625 l 1
 750 625 l 1
 750 500 l 1
 250 500 l 1
125 375 m 1
 125 500 l 1
 250 500 l 1
 250 375 l 1
 125 375 l 1
625 375 m 1
 625 500 l 1
 750 500 l 1
 750 375 l 1
 625 375 l 1
125 250 m 1
 125 375 l 1
 250 375 l 1
 250 250 l 1
 125 250 l 1
625 250 m 1
 625 375 l 1
 750 375 l 1
 750 250 l 1
 625 250 l 1
250 125 m 1
 250 250 l 1
 750 250 l 1
 750 125 l 1
 250 125 l 1
625 0 m 1
 625 125 l 1
 750 125 l 1
 750 0 l 1
 625 0 l 1
625 -125 m 1
 625 0 l 1
 750 0 l 1
 750 -125 l 1
 625 -125 l 1
EndSplineSet
EndChar

StartChar: r
Encoding: 114 114 82
Width: 875
Flags: HW
LayerCount: 2
Back
Fore
SplineSet
125 500 m 1
 125 625 l 1
 250 625 l 1
 250 500 l 1
 125 500 l 1
375 500 m 1
 375 625 l 1
 750 625 l 1
 750 500 l 1
 375 500 l 1
125 375 m 1
 125 500 l 1
 375 500 l 1
 375 375 l 1
 125 375 l 1
125 250 m 1
 125 375 l 1
 250 375 l 1
 250 250 l 1
 125 250 l 1
125 125 m 1
 125 250 l 1
 250 250 l 1
 250 125 l 1
 125 125 l 1
125 0 m 1
 125 125 l 1
 250 125 l 1
 250 0 l 1
 125 0 l 1
EndSplineSet
EndChar

StartChar: s
Encoding: 115 115 83
Width: 875
Flags: HW
LayerCount: 2
Back
Fore
SplineSet
250 500 m 1
 250 625 l 1
 750 625 l 1
 750 500 l 1
 250 500 l 1
125 375 m 1
 125 500 l 1
 250 500 l 1
 250 375 l 1
 125 375 l 1
250 250 m 1
 250 375 l 1
 625 375 l 1
 625 250 l 1
 250 250 l 1
625 125 m 1
 625 250 l 1
 750 250 l 1
 750 125 l 1
 625 125 l 1
125 0 m 1
 125 125 l 1
 625 125 l 1
 625 0 l 1
 125 0 l 1
EndSplineSet
EndChar

StartChar: t
Encoding: 116 116 84
Width: 875
Flags: HW
LayerCount: 2
Back
Fore
SplineSet
250 750 m 1
 250 875 l 1
 375 875 l 1
 375 750 l 1
 250 750 l 1
250 625 m 1
 250 750 l 1
 375 750 l 1
 375 625 l 1
 250 625 l 1
125 500 m 1
 125 625 l 1
 625 625 l 1
 625 500 l 1
 125 500 l 1
250 375 m 1
 250 500 l 1
 375 500 l 1
 375 375 l 1
 250 375 l 1
250 250 m 1
 250 375 l 1
 375 375 l 1
 375 250 l 1
 250 250 l 1
250 125 m 1
 250 250 l 1
 375 250 l 1
 375 125 l 1
 250 125 l 1
625 125 m 1
 625 250 l 1
 750 250 l 1
 750 125 l 1
 625 125 l 1
375 0 m 1
 375 125 l 1
 625 125 l 1
 625 0 l 1
 375 0 l 1
EndSplineSet
EndChar

StartChar: u
Encoding: 117 117 85
Width: 875
Flags: HW
LayerCount: 2
Back
Fore
SplineSet
125 500 m 1
 125 625 l 1
 250 625 l 1
 250 500 l 1
 125 500 l 1
625 500 m 1
 625 625 l 1
 750 625 l 1
 750 500 l 1
 625 500 l 1
125 375 m 1
 125 500 l 1
 250 500 l 1
 250 375 l 1
 125 375 l 1
625 375 m 1
 625 500 l 1
 750 500 l 1
 750 375 l 1
 625 375 l 1
125 250 m 1
 125 375 l 1
 250 375 l 1
 250 250 l 1
 125 250 l 1
625 250 m 1
 625 375 l 1
 750 375 l 1
 750 250 l 1
 625 250 l 1
125 125 m 1
 125 250 l 1
 250 250 l 1
 250 125 l 1
 125 125 l 1
500 125 m 1
 500 250 l 1
 750 250 l 1
 750 125 l 1
 500 125 l 1
250 0 m 1
 250 125 l 1
 500 125 l 1
 500 0 l 1
 250 0 l 1
625 0 m 1
 625 125 l 1
 750 125 l 1
 750 0 l 1
 625 0 l 1
EndSplineSet
EndChar

StartChar: v
Encoding: 118 118 86
Width: 875
Flags: HW
LayerCount: 2
Back
Fore
SplineSet
125 500 m 1
 125 625 l 1
 250 625 l 1
 250 500 l 1
 125 500 l 1
625 500 m 1
 625 625 l 1
 750 625 l 1
 750 500 l 1
 625 500 l 1
125 375 m 1
 125 500 l 1
 250 500 l 1
 250 375 l 1
 125 375 l 1
625 375 m 1
 625 500 l 1
 750 500 l 1
 750 375 l 1
 625 375 l 1
125 250 m 1
 125 375 l 1
 250 375 l 1
 250 250 l 1
 125 250 l 1
625 250 m 1
 625 375 l 1
 750 375 l 1
 750 250 l 1
 625 250 l 1
250 125 m 1
 250 250 l 1
 375 250 l 1
 375 125 l 1
 250 125 l 1
500 125 m 1
 500 250 l 1
 625 250 l 1
 625 125 l 1
 500 125 l 1
375 0 m 1
 375 125 l 1
 500 125 l 1
 500 0 l 1
 375 0 l 1
EndSplineSet
EndChar

StartChar: w
Encoding: 119 119 87
Width: 875
Flags: HW
LayerCount: 2
Back
Fore
SplineSet
125 500 m 1
 125 625 l 1
 250 625 l 1
 250 500 l 1
 125 500 l 1
625 500 m 1
 625 625 l 1
 750 625 l 1
 750 500 l 1
 625 500 l 1
125 375 m 1
 125 500 l 1
 250 500 l 1
 250 375 l 1
 125 375 l 1
625 375 m 1
 625 500 l 1
 750 500 l 1
 750 375 l 1
 625 375 l 1
125 250 m 1
 125 375 l 1
 250 375 l 1
 250 250 l 1
 125 250 l 1
375 250 m 1
 375 375 l 1
 500 375 l 1
 500 250 l 1
 375 250 l 1
625 250 m 1
 625 375 l 1
 750 375 l 1
 750 250 l 1
 625 250 l 1
125 125 m 1
 125 250 l 1
 250 250 l 1
 250 125 l 1
 125 125 l 1
375 125 m 1
 375 250 l 1
 500 250 l 1
 500 125 l 1
 375 125 l 1
625 125 m 1
 625 250 l 1
 750 250 l 1
 750 125 l 1
 625 125 l 1
125 0 m 1
 125 125 l 1
 375 125 l 1
 375 0 l 1
 125 0 l 1
500 0 m 1
 500 125 l 1
 750 125 l 1
 750 0 l 1
 500 0 l 1
EndSplineSet
EndChar

StartChar: x
Encoding: 120 120 88
Width: 875
Flags: HW
LayerCount: 2
Back
Fore
SplineSet
125 500 m 1
 125 625 l 1
 250 625 l 1
 250 500 l 1
 125 500 l 1
625 500 m 1
 625 625 l 1
 750 625 l 1
 750 500 l 1
 625 500 l 1
250 375 m 1
 250 500 l 1
 375 500 l 1
 375 375 l 1
 250 375 l 1
500 375 m 1
 500 500 l 1
 625 500 l 1
 625 375 l 1
 500 375 l 1
375 250 m 1
 375 375 l 1
 500 375 l 1
 500 250 l 1
 375 250 l 1
250 125 m 1
 250 250 l 1
 375 250 l 1
 375 125 l 1
 250 125 l 1
500 125 m 1
 500 250 l 1
 625 250 l 1
 625 125 l 1
 500 125 l 1
125 0 m 1
 125 125 l 1
 250 125 l 1
 250 0 l 1
 125 0 l 1
625 0 m 1
 625 125 l 1
 750 125 l 1
 750 0 l 1
 625 0 l 1
EndSplineSet
EndChar

StartChar: y
Encoding: 121 121 89
Width: 875
Flags: HW
LayerCount: 2
Back
Fore
SplineSet
125 500 m 1
 125 625 l 1
 250 625 l 1
 250 500 l 1
 125 500 l 1
625 500 m 1
 625 625 l 1
 750 625 l 1
 750 500 l 1
 625 500 l 1
125 375 m 1
 125 500 l 1
 250 500 l 1
 250 375 l 1
 125 375 l 1
625 375 m 1
 625 500 l 1
 750 500 l 1
 750 375 l 1
 625 375 l 1
125 250 m 1
 125 375 l 1
 250 375 l 1
 250 250 l 1
 125 250 l 1
625 250 m 1
 625 375 l 1
 750 375 l 1
 750 250 l 1
 625 250 l 1
250 125 m 1
 250 250 l 1
 750 250 l 1
 750 125 l 1
 250 125 l 1
625 0 m 1
 625 125 l 1
 750 125 l 1
 750 0 l 1
 625 0 l 1
250 -125 m 1
 250 0 l 1
 625 0 l 1
 625 -125 l 1
 250 -125 l 1
EndSplineSet
EndChar

StartChar: z
Encoding: 122 122 90
Width: 875
Flags: HW
LayerCount: 2
Back
Fore
SplineSet
125 500 m 1
 125 625 l 1
 750 625 l 1
 750 500 l 1
 125 500 l 1
500 375 m 1
 500 500 l 1
 625 500 l 1
 625 375 l 1
 500 375 l 1
375 250 m 1
 375 375 l 1
 500 375 l 1
 500 250 l 1
 375 250 l 1
250 125 m 1
 250 250 l 1
 375 250 l 1
 375 125 l 1
 250 125 l 1
125 0 m 1
 125 125 l 1
 750 125 l 1
 750 0 l 1
 125 0 l 1
EndSplineSet
EndChar

StartChar: braceleft
Encoding: 123 123 91
Width: 875
Flags: HW
LayerCount: 2
Back
Fore
SplineSet
375 750 m 1
 375 875 l 1
 750 875 l 1
 750 750 l 1
 375 750 l 1
250 625 m 1
 250 750 l 1
 500 750 l 1
 500 625 l 1
 250 625 l 1
250 500 m 1
 250 625 l 1
 500 625 l 1
 500 500 l 1
 250 500 l 1
125 375 m 1
 125 500 l 1
 375 500 l 1
 375 375 l 1
 125 375 l 1
250 250 m 1
 250 375 l 1
 500 375 l 1
 500 250 l 1
 250 250 l 1
250 125 m 1
 250 250 l 1
 500 250 l 1
 500 125 l 1
 250 125 l 1
375 0 m 1
 375 125 l 1
 750 125 l 1
 750 0 l 1
 375 0 l 1
EndSplineSet
EndChar

StartChar: bar
Encoding: 124 124 92
Width: 875
Flags: HW
LayerCount: 2
Back
Fore
SplineSet
375 750 m 1
 375 875 l 1
 500 875 l 1
 500 750 l 1
 375 750 l 1
375 625 m 1
 375 750 l 1
 500 750 l 1
 500 625 l 1
 375 625 l 1
375 500 m 1
 375 625 l 1
 500 625 l 1
 500 500 l 1
 375 500 l 1
375 375 m 1
 375 500 l 1
 500 500 l 1
 500 375 l 1
 375 375 l 1
375 250 m 1
 375 375 l 1
 500 375 l 1
 500 250 l 1
 375 250 l 1
375 125 m 1
 375 250 l 1
 500 250 l 1
 500 125 l 1
 375 125 l 1
375 0 m 1
 375 125 l 1
 500 125 l 1
 500 0 l 1
 375 0 l 1
375 -125 m 1
 375 0 l 1
 500 0 l 1
 500 -125 l 1
 375 -125 l 1
EndSplineSet
EndChar

StartChar: braceright
Encoding: 125 125 93
Width: 875
Flags: HW
LayerCount: 2
Back
Fore
SplineSet
125 750 m 1
 125 875 l 1
 500 875 l 1
 500 750 l 1
 125 750 l 1
375 625 m 1
 375 750 l 1
 625 750 l 1
 625 625 l 1
 375 625 l 1
375 500 m 1
 375 625 l 1
 625 625 l 1
 625 500 l 1
 375 500 l 1
500 375 m 1
 500 500 l 1
 750 500 l 1
 750 375 l 1
 500 375 l 1
375 250 m 1
 375 375 l 1
 625 375 l 1
 625 250 l 1
 375 250 l 1
375 125 m 1
 375 250 l 1
 625 250 l 1
 625 125 l 1
 375 125 l 1
125 0 m 1
 125 125 l 1
 500 125 l 1
 500 0 l 1
 125 0 l 1
EndSplineSet
EndChar

StartChar: asciitilde
Encoding: 126 126 94
Width: 875
Flags: HW
LayerCount: 2
Back
Fore
SplineSet
250 750 m 1
 250 875 l 1
 500 875 l 1
 500 750 l 1
 250 750 l 1
625 750 m 1
 625 875 l 1
 750 875 l 1
 750 750 l 1
 625 750 l 1
125 625 m 1
 125 750 l 1
 250 750 l 1
 250 625 l 1
 125 625 l 1
375 625 m 1
 375 750 l 1
 625 750 l 1
 625 625 l 1
 375 625 l 1
EndSplineSet
EndChar

StartChar: exclamdown
Encoding: 161 161 96
Width: 875
Flags: HW
LayerCount: 2
Back
Fore
SplineSet
375 750 m 1
 375 875 l 1
 500 875 l 1
 500 750 l 1
 375 750 l 1
375 500 m 1
 375 625 l 1
 500 625 l 1
 500 500 l 1
 375 500 l 1
375 375 m 1
 375 500 l 1
 500 500 l 1
 500 375 l 1
 375 375 l 1
375 250 m 1
 375 375 l 1
 500 375 l 1
 500 250 l 1
 375 250 l 1
375 125 m 1
 375 250 l 1
 500 250 l 1
 500 125 l 1
 375 125 l 1
375 0 m 1
 375 125 l 1
 500 125 l 1
 500 0 l 1
 375 0 l 1
EndSplineSet
EndChar

StartChar: cent
Encoding: 162 162 97
Width: 875
Flags: HW
LayerCount: 2
Back
Fore
SplineSet
375 750 m 1
 375 875 l 1
 500 875 l 1
 500 750 l 1
 375 750 l 1
250 625 m 1
 250 750 l 1
 750 750 l 1
 750 625 l 1
 250 625 l 1
125 500 m 1
 125 625 l 1
 250 625 l 1
 250 500 l 1
 125 500 l 1
375 500 m 1
 375 625 l 1
 500 625 l 1
 500 500 l 1
 375 500 l 1
125 375 m 1
 125 500 l 1
 250 500 l 1
 250 375 l 1
 125 375 l 1
375 375 m 1
 375 500 l 1
 500 500 l 1
 500 375 l 1
 375 375 l 1
125 250 m 1
 125 375 l 1
 250 375 l 1
 250 250 l 1
 125 250 l 1
375 250 m 1
 375 375 l 1
 500 375 l 1
 500 250 l 1
 375 250 l 1
250 125 m 1
 250 250 l 1
 750 250 l 1
 750 125 l 1
 250 125 l 1
375 0 m 1
 375 125 l 1
 500 125 l 1
 500 0 l 1
 375 0 l 1
EndSplineSet
EndChar

StartChar: sterling
Encoding: 163 163 98
Width: 875
Flags: HW
LayerCount: 2
Back
Fore
SplineSet
250 750 m 1
 250 875 l 1
 625 875 l 1
 625 750 l 1
 250 750 l 1
125 625 m 1
 125 750 l 1
 250 750 l 1
 250 625 l 1
 125 625 l 1
125 500 m 1
 125 625 l 1
 250 625 l 1
 250 500 l 1
 125 500 l 1
0 375 m 1
 0 500 l 1
 375 500 l 1
 375 375 l 1
 0 375 l 1
125 250 m 1
 125 375 l 1
 250 375 l 1
 250 250 l 1
 125 250 l 1
125 125 m 1
 125 250 l 1
 250 250 l 1
 250 125 l 1
 125 125 l 1
0 0 m 1
 0 125 l 1
 125 125 l 1
 125 0 l 1
 0 0 l 1
250 0 m 1
 250 125 l 1
 750 125 l 1
 750 0 l 1
 250 0 l 1
EndSplineSet
EndChar

StartChar: currency
Encoding: 164 164 99
Width: 875
Flags: HW
LayerCount: 2
Back
Fore
SplineSet
125 625 m 1
 125 750 l 1
 250 750 l 1
 250 625 l 1
 125 625 l 1
625 625 m 1
 625 750 l 1
 750 750 l 1
 750 625 l 1
 625 625 l 1
250 500 m 1
 250 625 l 1
 625 625 l 1
 625 500 l 1
 250 500 l 1
250 375 m 1
 250 500 l 1
 375 500 l 1
 375 375 l 1
 250 375 l 1
500 375 m 1
 500 500 l 1
 625 500 l 1
 625 375 l 1
 500 375 l 1
250 250 m 1
 250 375 l 1
 625 375 l 1
 625 250 l 1
 250 250 l 1
125 125 m 1
 125 250 l 1
 250 250 l 1
 250 125 l 1
 125 125 l 1
625 125 m 1
 625 250 l 1
 750 250 l 1
 750 125 l 1
 625 125 l 1
EndSplineSet
EndChar

StartChar: yen
Encoding: 165 165 100
Width: 875
Flags: HW
LayerCount: 2
Back
Fore
SplineSet
125 750 m 1
 125 875 l 1
 250 875 l 1
 250 750 l 1
 125 750 l 1
625 750 m 1
 625 875 l 1
 750 875 l 1
 750 750 l 1
 625 750 l 1
125 625 m 1
 125 750 l 1
 250 750 l 1
 250 625 l 1
 125 625 l 1
625 625 m 1
 625 750 l 1
 750 750 l 1
 750 625 l 1
 625 625 l 1
250 500 m 1
 250 625 l 1
 375 625 l 1
 375 500 l 1
 250 500 l 1
500 500 m 1
 500 625 l 1
 625 625 l 1
 625 500 l 1
 500 500 l 1
375 375 m 1
 375 500 l 1
 500 500 l 1
 500 375 l 1
 375 375 l 1
125 250 m 1
 125 375 l 1
 750 375 l 1
 750 250 l 1
 125 250 l 1
375 125 m 1
 375 250 l 1
 500 250 l 1
 500 125 l 1
 375 125 l 1
375 0 m 1
 375 125 l 1
 500 125 l 1
 500 0 l 1
 375 0 l 1
EndSplineSet
EndChar

StartChar: brokenbar
Encoding: 166 166 101
Width: 875
Flags: HW
LayerCount: 2
Back
Fore
SplineSet
375 750 m 1
 375 875 l 1
 500 875 l 1
 500 750 l 1
 375 750 l 1
375 625 m 1
 375 750 l 1
 500 750 l 1
 500 625 l 1
 375 625 l 1
375 500 m 1
 375 625 l 1
 500 625 l 1
 500 500 l 1
 375 500 l 1
375 125 m 1
 375 250 l 1
 500 250 l 1
 500 125 l 1
 375 125 l 1
375 0 m 1
 375 125 l 1
 500 125 l 1
 500 0 l 1
 375 0 l 1
375 -125 m 1
 375 0 l 1
 500 0 l 1
 500 -125 l 1
 375 -125 l 1
EndSplineSet
EndChar

StartChar: section
Encoding: 167 167 102
Width: 875
Flags: HW
LayerCount: 2
Back
Fore
SplineSet
250 750 m 1
 250 875 l 1
 750 875 l 1
 750 750 l 1
 250 750 l 1
125 625 m 1
 125 750 l 1
 250 750 l 1
 250 625 l 1
 125 625 l 1
250 500 m 1
 250 625 l 1
 625 625 l 1
 625 500 l 1
 250 500 l 1
125 375 m 1
 125 500 l 1
 250 500 l 1
 250 375 l 1
 125 375 l 1
625 375 m 1
 625 500 l 1
 750 500 l 1
 750 375 l 1
 625 375 l 1
250 250 m 1
 250 375 l 1
 625 375 l 1
 625 250 l 1
 250 250 l 1
625 125 m 1
 625 250 l 1
 750 250 l 1
 750 125 l 1
 625 125 l 1
125 0 m 1
 125 125 l 1
 625 125 l 1
 625 0 l 1
 125 0 l 1
EndSplineSet
EndChar

StartChar: dieresis
Encoding: 168 168 103
Width: 875
Flags: HW
LayerCount: 2
Back
Fore
SplineSet
125 750 m 1
 125 875 l 1
 250 875 l 1
 250 750 l 1
 125 750 l 1
625 750 m 1
 625 875 l 1
 750 875 l 1
 750 750 l 1
 625 750 l 1
EndSplineSet
EndChar

StartChar: copyright
Encoding: 169 169 104
Width: 875
Flags: HW
LayerCount: 2
Back
Fore
SplineSet
250 750 m 1
 250 875 l 1
 625 875 l 1
 625 750 l 1
 250 750 l 1
125 625 m 1
 125 750 l 1
 250 750 l 1
 250 625 l 1
 125 625 l 1
625 625 m 1
 625 750 l 1
 750 750 l 1
 750 625 l 1
 625 625 l 1
0 500 m 1
 0 625 l 1
 125 625 l 1
 125 500 l 1
 0 500 l 1
375 500 m 1
 375 625 l 1
 625 625 l 1
 625 500 l 1
 375 500 l 1
750 500 m 1
 750 625 l 1
 875 625 l 1
 875 500 l 1
 750 500 l 1
0 375 m 1
 0 500 l 1
 125 500 l 1
 125 375 l 1
 0 375 l 1
250 375 m 1
 250 500 l 1
 375 500 l 1
 375 375 l 1
 250 375 l 1
750 375 m 1
 750 500 l 1
 875 500 l 1
 875 375 l 1
 750 375 l 1
0 250 m 1
 0 375 l 1
 125 375 l 1
 125 250 l 1
 0 250 l 1
375 250 m 1
 375 375 l 1
 625 375 l 1
 625 250 l 1
 375 250 l 1
750 250 m 1
 750 375 l 1
 875 375 l 1
 875 250 l 1
 750 250 l 1
125 125 m 1
 125 250 l 1
 250 250 l 1
 250 125 l 1
 125 125 l 1
625 125 m 1
 625 250 l 1
 750 250 l 1
 750 125 l 1
 625 125 l 1
250 0 m 1
 250 125 l 1
 625 125 l 1
 625 0 l 1
 250 0 l 1
EndSplineSet
EndChar

StartChar: ordfeminine
Encoding: 170 170 105
Width: 875
Flags: HW
LayerCount: 2
Back
Fore
SplineSet
250 750 m 1
 250 875 l 1
 500 875 l 1
 500 750 l 1
 250 750 l 1
375 625 m 1
 375 750 l 1
 625 750 l 1
 625 625 l 1
 375 625 l 1
250 500 m 1
 250 625 l 1
 375 625 l 1
 375 500 l 1
 250 500 l 1
500 500 m 1
 500 625 l 1
 625 625 l 1
 625 500 l 1
 500 500 l 1
375 375 m 1
 375 500 l 1
 625 500 l 1
 625 375 l 1
 375 375 l 1
250 125 m 1
 250 250 l 1
 625 250 l 1
 625 125 l 1
 250 125 l 1
EndSplineSet
EndChar

StartChar: guillemotleft
Encoding: 171 171 106
Width: 875
Flags: HW
LayerCount: 2
Back
Fore
SplineSet
375 750 m 1
 375 875 l 1
 500 875 l 1
 500 750 l 1
 375 750 l 1
750 750 m 1
 750 875 l 1
 875 875 l 1
 875 750 l 1
 750 750 l 1
250 625 m 1
 250 750 l 1
 375 750 l 1
 375 625 l 1
 250 625 l 1
625 625 m 1
 625 750 l 1
 750 750 l 1
 750 625 l 1
 625 625 l 1
125 500 m 1
 125 625 l 1
 250 625 l 1
 250 500 l 1
 125 500 l 1
500 500 m 1
 500 625 l 1
 625 625 l 1
 625 500 l 1
 500 500 l 1
0 375 m 1
 0 500 l 1
 125 500 l 1
 125 375 l 1
 0 375 l 1
375 375 m 1
 375 500 l 1
 500 500 l 1
 500 375 l 1
 375 375 l 1
125 250 m 1
 125 375 l 1
 250 375 l 1
 250 250 l 1
 125 250 l 1
500 250 m 1
 500 375 l 1
 625 375 l 1
 625 250 l 1
 500 250 l 1
250 125 m 1
 250 250 l 1
 375 250 l 1
 375 125 l 1
 250 125 l 1
625 125 m 1
 625 250 l 1
 750 250 l 1
 750 125 l 1
 625 125 l 1
375 0 m 1
 375 125 l 1
 500 125 l 1
 500 0 l 1
 375 0 l 1
750 0 m 1
 750 125 l 1
 875 125 l 1
 875 0 l 1
 750 0 l 1
EndSplineSet
EndChar

StartChar: logicalnot
Encoding: 172 172 107
Width: 875
Flags: HW
LayerCount: 2
Back
Fore
SplineSet
125 500 m 1
 125 625 l 1
 750 625 l 1
 750 500 l 1
 125 500 l 1
625 375 m 1
 625 500 l 1
 750 500 l 1
 750 375 l 1
 625 375 l 1
625 250 m 1
 625 375 l 1
 750 375 l 1
 750 250 l 1
 625 250 l 1
EndSplineSet
EndChar

StartChar: uni00AD
Encoding: 173 173 108
Width: 875
Flags: HW
LayerCount: 2
Back
Fore
SplineSet
125 375 m 1
 125 500 l 1
 750 500 l 1
 750 375 l 1
 125 375 l 1
EndSplineSet
EndChar

StartChar: registered
Encoding: 174 174 109
Width: 875
Flags: HW
LayerCount: 2
Back
Fore
SplineSet
250 750 m 1
 250 875 l 1
 625 875 l 1
 625 750 l 1
 250 750 l 1
125 625 m 1
 125 750 l 1
 250 750 l 1
 250 625 l 1
 125 625 l 1
625 625 m 1
 625 750 l 1
 750 750 l 1
 750 625 l 1
 625 625 l 1
0 500 m 1
 0 625 l 1
 125 625 l 1
 125 500 l 1
 0 500 l 1
250 500 m 1
 250 625 l 1
 625 625 l 1
 625 500 l 1
 250 500 l 1
750 500 m 1
 750 625 l 1
 875 625 l 1
 875 500 l 1
 750 500 l 1
0 375 m 1
 0 500 l 1
 125 500 l 1
 125 375 l 1
 0 375 l 1
250 375 m 1
 250 500 l 1
 500 500 l 1
 500 375 l 1
 250 375 l 1
750 375 m 1
 750 500 l 1
 875 500 l 1
 875 375 l 1
 750 375 l 1
0 250 m 1
 0 375 l 1
 125 375 l 1
 125 250 l 1
 0 250 l 1
250 250 m 1
 250 375 l 1
 375 375 l 1
 375 250 l 1
 250 250 l 1
500 250 m 1
 500 375 l 1
 625 375 l 1
 625 250 l 1
 500 250 l 1
750 250 m 1
 750 375 l 1
 875 375 l 1
 875 250 l 1
 750 250 l 1
125 125 m 1
 125 250 l 1
 250 250 l 1
 250 125 l 1
 125 125 l 1
625 125 m 1
 625 250 l 1
 750 250 l 1
 750 125 l 1
 625 125 l 1
250 0 m 1
 250 125 l 1
 625 125 l 1
 625 0 l 1
 250 0 l 1
EndSplineSet
EndChar

StartChar: macron
Encoding: 175 175 110
Width: 875
Flags: HW
LayerCount: 2
Back
Fore
SplineSet
125 750 m 1
 125 875 l 1
 750 875 l 1
 750 750 l 1
 125 750 l 1
EndSplineSet
EndChar

StartChar: degree
Encoding: 176 176 111
Width: 875
Flags: HW
LayerCount: 2
Back
Fore
SplineSet
375 750 m 1
 375 875 l 1
 500 875 l 1
 500 750 l 1
 375 750 l 1
250 625 m 1
 250 750 l 1
 375 750 l 1
 375 625 l 1
 250 625 l 1
500 625 m 1
 500 750 l 1
 625 750 l 1
 625 625 l 1
 500 625 l 1
375 500 m 1
 375 625 l 1
 500 625 l 1
 500 500 l 1
 375 500 l 1
EndSplineSet
EndChar

StartChar: plusminus
Encoding: 177 177 112
Width: 875
Flags: HW
LayerCount: 2
Back
Fore
SplineSet
375 750 m 1
 375 875 l 1
 500 875 l 1
 500 750 l 1
 375 750 l 1
375 625 m 1
 375 750 l 1
 500 750 l 1
 500 625 l 1
 375 625 l 1
125 500 m 1
 125 625 l 1
 750 625 l 1
 750 500 l 1
 125 500 l 1
375 375 m 1
 375 500 l 1
 500 500 l 1
 500 375 l 1
 375 375 l 1
375 250 m 1
 375 375 l 1
 500 375 l 1
 500 250 l 1
 375 250 l 1
125 0 m 1
 125 125 l 1
 750 125 l 1
 750 0 l 1
 125 0 l 1
EndSplineSet
EndChar

StartChar: uni00B2
Encoding: 178 178 113
Width: 875
Flags: HW
LayerCount: 2
Back
Fore
SplineSet
250 750 m 1
 250 875 l 1
 500 875 l 1
 500 750 l 1
 250 750 l 1
500 625 m 1
 500 750 l 1
 625 750 l 1
 625 625 l 1
 500 625 l 1
375 500 m 1
 375 625 l 1
 500 625 l 1
 500 500 l 1
 375 500 l 1
250 375 m 1
 250 500 l 1
 625 500 l 1
 625 375 l 1
 250 375 l 1
EndSplineSet
EndChar

StartChar: uni00B3
Encoding: 179 179 114
Width: 875
Flags: HW
LayerCount: 2
Back
Fore
SplineSet
250 750 m 1
 250 875 l 1
 625 875 l 1
 625 750 l 1
 250 750 l 1
375 625 m 1
 375 750 l 1
 500 750 l 1
 500 625 l 1
 375 625 l 1
500 500 m 1
 500 625 l 1
 625 625 l 1
 625 500 l 1
 500 500 l 1
250 375 m 1
 250 500 l 1
 500 500 l 1
 500 375 l 1
 250 375 l 1
EndSplineSet
EndChar

StartChar: acute
Encoding: 180 180 115
Width: 875
Flags: HW
LayerCount: 2
Back
Fore
SplineSet
500 750 m 1
 500 875 l 1
 625 875 l 1
 625 750 l 1
 500 750 l 1
375 625 m 1
 375 750 l 1
 500 750 l 1
 500 625 l 1
 375 625 l 1
250 500 m 1
 250 625 l 1
 375 625 l 1
 375 500 l 1
 250 500 l 1
EndSplineSet
EndChar

StartChar: mu
Encoding: 181 181 116
Width: 875
Flags: HW
LayerCount: 2
Back
Fore
SplineSet
125 500 m 1
 125 625 l 1
 250 625 l 1
 250 500 l 1
 125 500 l 1
625 500 m 1
 625 625 l 1
 750 625 l 1
 750 500 l 1
 625 500 l 1
125 375 m 1
 125 500 l 1
 250 500 l 1
 250 375 l 1
 125 375 l 1
625 375 m 1
 625 500 l 1
 750 500 l 1
 750 375 l 1
 625 375 l 1
125 250 m 1
 125 375 l 1
 250 375 l 1
 250 250 l 1
 125 250 l 1
625 250 m 1
 625 375 l 1
 750 375 l 1
 750 250 l 1
 625 250 l 1
125 125 m 1
 125 250 l 1
 375 250 l 1
 375 125 l 1
 125 125 l 1
500 125 m 1
 500 250 l 1
 750 250 l 1
 750 125 l 1
 500 125 l 1
125 0 m 1
 125 125 l 1
 250 125 l 1
 250 0 l 1
 125 0 l 1
375 0 m 1
 375 125 l 1
 500 125 l 1
 500 0 l 1
 375 0 l 1
625 0 m 1
 625 125 l 1
 750 125 l 1
 750 0 l 1
 625 0 l 1
125 -125 m 1
 125 0 l 1
 250 0 l 1
 250 -125 l 1
 125 -125 l 1
EndSplineSet
EndChar

StartChar: paragraph
Encoding: 182 182 117
Width: 875
Flags: HW
LayerCount: 2
Back
Fore
SplineSet
250 750 m 1
 250 875 l 1
 750 875 l 1
 750 750 l 1
 250 750 l 1
125 625 m 1
 125 750 l 1
 250 750 l 1
 250 625 l 1
 125 625 l 1
375 625 m 1
 375 750 l 1
 500 750 l 1
 500 625 l 1
 375 625 l 1
625 625 m 1
 625 750 l 1
 750 750 l 1
 750 625 l 1
 625 625 l 1
125 500 m 1
 125 625 l 1
 250 625 l 1
 250 500 l 1
 125 500 l 1
375 500 m 1
 375 625 l 1
 500 625 l 1
 500 500 l 1
 375 500 l 1
625 500 m 1
 625 625 l 1
 750 625 l 1
 750 500 l 1
 625 500 l 1
250 375 m 1
 250 500 l 1
 750 500 l 1
 750 375 l 1
 250 375 l 1
375 250 m 1
 375 375 l 1
 500 375 l 1
 500 250 l 1
 375 250 l 1
625 250 m 1
 625 375 l 1
 750 375 l 1
 750 250 l 1
 625 250 l 1
375 125 m 1
 375 250 l 1
 500 250 l 1
 500 125 l 1
 375 125 l 1
625 125 m 1
 625 250 l 1
 750 250 l 1
 750 125 l 1
 625 125 l 1
375 0 m 1
 375 125 l 1
 500 125 l 1
 500 0 l 1
 375 0 l 1
625 0 m 1
 625 125 l 1
 750 125 l 1
 750 0 l 1
 625 0 l 1
EndSplineSet
EndChar

StartChar: periodcentered
Encoding: 183 183 118
Width: 875
Flags: HW
LayerCount: 2
Back
Fore
SplineSet
375 375 m 1
 375 500 l 1
 500 500 l 1
 500 375 l 1
 375 375 l 1
EndSplineSet
EndChar

StartChar: cedilla
Encoding: 184 184 119
Width: 875
Flags: HW
LayerCount: 2
Back
Fore
SplineSet
500 0 m 1
 500 125 l 1
 625 125 l 1
 625 0 l 1
 500 0 l 1
375 -125 m 1
 375 0 l 1
 500 0 l 1
 500 -125 l 1
 375 -125 l 1
EndSplineSet
EndChar

StartChar: uni00B9
Encoding: 185 185 120
Width: 875
Flags: HW
LayerCount: 2
Back
Fore
SplineSet
375 750 m 1
 375 875 l 1
 500 875 l 1
 500 750 l 1
 375 750 l 1
250 625 m 1
 250 750 l 1
 500 750 l 1
 500 625 l 1
 250 625 l 1
375 500 m 1
 375 625 l 1
 500 625 l 1
 500 500 l 1
 375 500 l 1
250 375 m 1
 250 500 l 1
 625 500 l 1
 625 375 l 1
 250 375 l 1
EndSplineSet
EndChar

StartChar: ordmasculine
Encoding: 186 186 121
Width: 875
Flags: HW
LayerCount: 2
Back
Fore
SplineSet
375 750 m 1
 375 875 l 1
 500 875 l 1
 500 750 l 1
 375 750 l 1
250 625 m 1
 250 750 l 1
 375 750 l 1
 375 625 l 1
 250 625 l 1
500 625 m 1
 500 750 l 1
 625 750 l 1
 625 625 l 1
 500 625 l 1
250 500 m 1
 250 625 l 1
 375 625 l 1
 375 500 l 1
 250 500 l 1
500 500 m 1
 500 625 l 1
 625 625 l 1
 625 500 l 1
 500 500 l 1
375 375 m 1
 375 500 l 1
 500 500 l 1
 500 375 l 1
 375 375 l 1
250 125 m 1
 250 250 l 1
 625 250 l 1
 625 125 l 1
 250 125 l 1
EndSplineSet
EndChar

StartChar: guillemotright
Encoding: 187 187 122
Width: 875
Flags: HW
LayerCount: 2
Back
Fore
SplineSet
0 750 m 1
 0 875 l 1
 125 875 l 1
 125 750 l 1
 0 750 l 1
375 750 m 1
 375 875 l 1
 500 875 l 1
 500 750 l 1
 375 750 l 1
125 625 m 1
 125 750 l 1
 250 750 l 1
 250 625 l 1
 125 625 l 1
500 625 m 1
 500 750 l 1
 625 750 l 1
 625 625 l 1
 500 625 l 1
250 500 m 1
 250 625 l 1
 375 625 l 1
 375 500 l 1
 250 500 l 1
625 500 m 1
 625 625 l 1
 750 625 l 1
 750 500 l 1
 625 500 l 1
375 375 m 1
 375 500 l 1
 500 500 l 1
 500 375 l 1
 375 375 l 1
750 375 m 1
 750 500 l 1
 875 500 l 1
 875 375 l 1
 750 375 l 1
250 250 m 1
 250 375 l 1
 375 375 l 1
 375 250 l 1
 250 250 l 1
625 250 m 1
 625 375 l 1
 750 375 l 1
 750 250 l 1
 625 250 l 1
125 125 m 1
 125 250 l 1
 250 250 l 1
 250 125 l 1
 125 125 l 1
500 125 m 1
 500 250 l 1
 625 250 l 1
 625 125 l 1
 500 125 l 1
0 0 m 1
 0 125 l 1
 125 125 l 1
 125 0 l 1
 0 0 l 1
375 0 m 1
 375 125 l 1
 500 125 l 1
 500 0 l 1
 375 0 l 1
EndSplineSet
EndChar

StartChar: onequarter
Encoding: 188 188 123
Width: 875
Flags: HW
LayerCount: 2
Back
Fore
SplineSet
125 750 m 1
 125 875 l 1
 250 875 l 1
 250 750 l 1
 125 750 l 1
125 625 m 1
 125 750 l 1
 250 750 l 1
 250 625 l 1
 125 625 l 1
625 625 m 1
 625 750 l 1
 750 750 l 1
 750 625 l 1
 625 625 l 1
125 500 m 1
 125 625 l 1
 250 625 l 1
 250 500 l 1
 125 500 l 1
500 500 m 1
 500 625 l 1
 625 625 l 1
 625 500 l 1
 500 500 l 1
375 375 m 1
 375 500 l 1
 500 500 l 1
 500 375 l 1
 375 375 l 1
250 250 m 1
 250 375 l 1
 375 375 l 1
 375 250 l 1
 250 250 l 1
500 250 m 1
 500 375 l 1
 625 375 l 1
 625 250 l 1
 500 250 l 1
125 125 m 1
 125 250 l 1
 250 250 l 1
 250 125 l 1
 125 125 l 1
500 125 m 1
 500 250 l 1
 750 250 l 1
 750 125 l 1
 500 125 l 1
625 0 m 1
 625 125 l 1
 750 125 l 1
 750 0 l 1
 625 0 l 1
EndSplineSet
EndChar

StartChar: onehalf
Encoding: 189 189 124
Width: 875
Flags: HW
LayerCount: 2
Back
Fore
SplineSet
125 750 m 1
 125 875 l 1
 250 875 l 1
 250 750 l 1
 125 750 l 1
125 625 m 1
 125 750 l 1
 250 750 l 1
 250 625 l 1
 125 625 l 1
625 625 m 1
 625 750 l 1
 750 750 l 1
 750 625 l 1
 625 625 l 1
125 500 m 1
 125 625 l 1
 250 625 l 1
 250 500 l 1
 125 500 l 1
500 500 m 1
 500 625 l 1
 625 625 l 1
 625 500 l 1
 500 500 l 1
375 375 m 1
 375 500 l 1
 500 500 l 1
 500 375 l 1
 375 375 l 1
250 250 m 1
 250 375 l 1
 375 375 l 1
 375 250 l 1
 250 250 l 1
500 250 m 1
 500 375 l 1
 750 375 l 1
 750 250 l 1
 500 250 l 1
125 125 m 1
 125 250 l 1
 250 250 l 1
 250 125 l 1
 125 125 l 1
500 125 m 1
 500 250 l 1
 625 250 l 1
 625 125 l 1
 500 125 l 1
500 0 m 1
 500 125 l 1
 750 125 l 1
 750 0 l 1
 500 0 l 1
EndSplineSet
EndChar

StartChar: threequarters
Encoding: 190 190 125
Width: 875
Flags: HW
LayerCount: 2
Back
Fore
SplineSet
125 750 m 1
 125 875 l 1
 375 875 l 1
 375 750 l 1
 125 750 l 1
250 625 m 1
 250 750 l 1
 375 750 l 1
 375 625 l 1
 250 625 l 1
625 625 m 1
 625 750 l 1
 750 750 l 1
 750 625 l 1
 625 625 l 1
125 500 m 1
 125 625 l 1
 375 625 l 1
 375 500 l 1
 125 500 l 1
500 500 m 1
 500 625 l 1
 625 625 l 1
 625 500 l 1
 500 500 l 1
375 375 m 1
 375 500 l 1
 500 500 l 1
 500 375 l 1
 375 375 l 1
250 250 m 1
 250 375 l 1
 375 375 l 1
 375 250 l 1
 250 250 l 1
500 250 m 1
 500 375 l 1
 625 375 l 1
 625 250 l 1
 500 250 l 1
125 125 m 1
 125 250 l 1
 250 250 l 1
 250 125 l 1
 125 125 l 1
500 125 m 1
 500 250 l 1
 750 250 l 1
 750 125 l 1
 500 125 l 1
625 0 m 1
 625 125 l 1
 750 125 l 1
 750 0 l 1
 625 0 l 1
EndSplineSet
EndChar

StartChar: questiondown
Encoding: 191 191 126
Width: 875
Flags: HW
LayerCount: 2
Back
Fore
SplineSet
375 750 m 1
 375 875 l 1
 500 875 l 1
 500 750 l 1
 375 750 l 1
375 500 m 1
 375 625 l 1
 500 625 l 1
 500 500 l 1
 375 500 l 1
375 375 m 1
 375 500 l 1
 500 500 l 1
 500 375 l 1
 375 375 l 1
250 250 m 1
 250 375 l 1
 375 375 l 1
 375 250 l 1
 250 250 l 1
125 125 m 1
 125 250 l 1
 250 250 l 1
 250 125 l 1
 125 125 l 1
625 125 m 1
 625 250 l 1
 750 250 l 1
 750 125 l 1
 625 125 l 1
250 0 m 1
 250 125 l 1
 625 125 l 1
 625 0 l 1
 250 0 l 1
EndSplineSet
EndChar

StartChar: Agrave
Encoding: 192 192 127
Width: 875
Flags: HW
LayerCount: 2
Back
Fore
SplineSet
375 750 m 1
 375 875 l 1
 500 875 l 1
 500 750 l 1
 375 750 l 1
500 625 m 1
 500 750 l 1
 625 750 l 1
 625 625 l 1
 500 625 l 1
375 500 m 1
 375 625 l 1
 500 625 l 1
 500 500 l 1
 375 500 l 1
250 375 m 1
 250 500 l 1
 375 500 l 1
 375 375 l 1
 250 375 l 1
500 375 m 1
 500 500 l 1
 625 500 l 1
 625 375 l 1
 500 375 l 1
125 250 m 1
 125 375 l 1
 250 375 l 1
 250 250 l 1
 125 250 l 1
625 250 m 1
 625 375 l 1
 750 375 l 1
 750 250 l 1
 625 250 l 1
125 125 m 1
 125 250 l 1
 750 250 l 1
 750 125 l 1
 125 125 l 1
125 0 m 1
 125 125 l 1
 250 125 l 1
 250 0 l 1
 125 0 l 1
625 0 m 1
 625 125 l 1
 750 125 l 1
 750 0 l 1
 625 0 l 1
EndSplineSet
EndChar

StartChar: Aacute
Encoding: 193 193 128
Width: 875
Flags: HW
LayerCount: 2
Back
Fore
SplineSet
375 750 m 1
 375 875 l 1
 500 875 l 1
 500 750 l 1
 375 750 l 1
250 625 m 1
 250 750 l 1
 375 750 l 1
 375 625 l 1
 250 625 l 1
375 500 m 1
 375 625 l 1
 500 625 l 1
 500 500 l 1
 375 500 l 1
250 375 m 1
 250 500 l 1
 375 500 l 1
 375 375 l 1
 250 375 l 1
500 375 m 1
 500 500 l 1
 625 500 l 1
 625 375 l 1
 500 375 l 1
125 250 m 1
 125 375 l 1
 750 375 l 1
 750 250 l 1
 125 250 l 1
125 125 m 1
 125 250 l 1
 250 250 l 1
 250 125 l 1
 125 125 l 1
625 125 m 1
 625 250 l 1
 750 250 l 1
 750 125 l 1
 625 125 l 1
125 0 m 1
 125 125 l 1
 250 125 l 1
 250 0 l 1
 125 0 l 1
625 0 m 1
 625 125 l 1
 750 125 l 1
 750 0 l 1
 625 0 l 1
EndSplineSet
EndChar

StartChar: Acircumflex
Encoding: 194 194 129
Width: 875
Flags: HW
LayerCount: 2
Back
Fore
SplineSet
375 750 m 1
 375 875 l 1
 500 875 l 1
 500 750 l 1
 375 750 l 1
250 625 m 1
 250 750 l 1
 375 750 l 1
 375 625 l 1
 250 625 l 1
500 625 m 1
 500 750 l 1
 625 750 l 1
 625 625 l 1
 500 625 l 1
375 500 m 1
 375 625 l 1
 500 625 l 1
 500 500 l 1
 375 500 l 1
250 375 m 1
 250 500 l 1
 375 500 l 1
 375 375 l 1
 250 375 l 1
500 375 m 1
 500 500 l 1
 625 500 l 1
 625 375 l 1
 500 375 l 1
125 250 m 1
 125 375 l 1
 250 375 l 1
 250 250 l 1
 125 250 l 1
625 250 m 1
 625 375 l 1
 750 375 l 1
 750 250 l 1
 625 250 l 1
125 125 m 1
 125 250 l 1
 750 250 l 1
 750 125 l 1
 125 125 l 1
125 0 m 1
 125 125 l 1
 250 125 l 1
 250 0 l 1
 125 0 l 1
625 0 m 1
 625 125 l 1
 750 125 l 1
 750 0 l 1
 625 0 l 1
EndSplineSet
EndChar

StartChar: Atilde
Encoding: 195 195 130
Width: 875
Flags: HW
LayerCount: 2
Back
Fore
SplineSet
250 750 m 1
 250 875 l 1
 500 875 l 1
 500 750 l 1
 250 750 l 1
625 750 m 1
 625 875 l 1
 750 875 l 1
 750 750 l 1
 625 750 l 1
125 625 m 1
 125 750 l 1
 250 750 l 1
 250 625 l 1
 125 625 l 1
375 625 m 1
 375 750 l 1
 625 750 l 1
 625 625 l 1
 375 625 l 1
375 500 m 1
 375 625 l 1
 500 625 l 1
 500 500 l 1
 375 500 l 1
250 375 m 1
 250 500 l 1
 375 500 l 1
 375 375 l 1
 250 375 l 1
500 375 m 1
 500 500 l 1
 625 500 l 1
 625 375 l 1
 500 375 l 1
125 250 m 1
 125 375 l 1
 250 375 l 1
 250 250 l 1
 125 250 l 1
625 250 m 1
 625 375 l 1
 750 375 l 1
 750 250 l 1
 625 250 l 1
125 125 m 1
 125 250 l 1
 750 250 l 1
 750 125 l 1
 125 125 l 1
125 0 m 1
 125 125 l 1
 250 125 l 1
 250 0 l 1
 125 0 l 1
625 0 m 1
 625 125 l 1
 750 125 l 1
 750 0 l 1
 625 0 l 1
EndSplineSet
EndChar

StartChar: Adieresis
Encoding: 196 196 131
Width: 875
Flags: HW
LayerCount: 2
Back
Fore
SplineSet
125 750 m 1
 125 875 l 1
 250 875 l 1
 250 750 l 1
 125 750 l 1
625 750 m 1
 625 875 l 1
 750 875 l 1
 750 750 l 1
 625 750 l 1
375 625 m 1
 375 750 l 1
 500 750 l 1
 500 625 l 1
 375 625 l 1
250 500 m 1
 250 625 l 1
 375 625 l 1
 375 500 l 1
 250 500 l 1
500 500 m 1
 500 625 l 1
 625 625 l 1
 625 500 l 1
 500 500 l 1
125 375 m 1
 125 500 l 1
 250 500 l 1
 250 375 l 1
 125 375 l 1
625 375 m 1
 625 500 l 1
 750 500 l 1
 750 375 l 1
 625 375 l 1
125 250 m 1
 125 375 l 1
 250 375 l 1
 250 250 l 1
 125 250 l 1
625 250 m 1
 625 375 l 1
 750 375 l 1
 750 250 l 1
 625 250 l 1
125 125 m 1
 125 250 l 1
 750 250 l 1
 750 125 l 1
 125 125 l 1
125 0 m 1
 125 125 l 1
 250 125 l 1
 250 0 l 1
 125 0 l 1
625 0 m 1
 625 125 l 1
 750 125 l 1
 750 0 l 1
 625 0 l 1
EndSplineSet
EndChar

StartChar: Aring
Encoding: 197 197 132
Width: 875
Flags: HW
LayerCount: 2
Back
Fore
SplineSet
250 750 m 1
 250 875 l 1
 625 875 l 1
 625 750 l 1
 250 750 l 1
125 625 m 1
 125 750 l 1
 250 750 l 1
 250 625 l 1
 125 625 l 1
625 625 m 1
 625 750 l 1
 750 750 l 1
 750 625 l 1
 625 625 l 1
250 500 m 1
 250 625 l 1
 625 625 l 1
 625 500 l 1
 250 500 l 1
125 375 m 1
 125 500 l 1
 250 500 l 1
 250 375 l 1
 125 375 l 1
625 375 m 1
 625 500 l 1
 750 500 l 1
 750 375 l 1
 625 375 l 1
125 250 m 1
 125 375 l 1
 750 375 l 1
 750 250 l 1
 125 250 l 1
125 125 m 1
 125 250 l 1
 250 250 l 1
 250 125 l 1
 125 125 l 1
625 125 m 1
 625 250 l 1
 750 250 l 1
 750 125 l 1
 625 125 l 1
125 0 m 1
 125 125 l 1
 250 125 l 1
 250 0 l 1
 125 0 l 1
625 0 m 1
 625 125 l 1
 750 125 l 1
 750 0 l 1
 625 0 l 1
EndSplineSet
EndChar

StartChar: AE
Encoding: 198 198 133
Width: 875
Flags: HW
LayerCount: 2
Back
Fore
SplineSet
250 750 m 1
 250 875 l 1
 750 875 l 1
 750 750 l 1
 250 750 l 1
125 625 m 1
 125 750 l 1
 250 750 l 1
 250 625 l 1
 125 625 l 1
375 625 m 1
 375 750 l 1
 500 750 l 1
 500 625 l 1
 375 625 l 1
125 500 m 1
 125 625 l 1
 250 625 l 1
 250 500 l 1
 125 500 l 1
375 500 m 1
 375 625 l 1
 500 625 l 1
 500 500 l 1
 375 500 l 1
125 375 m 1
 125 500 l 1
 750 500 l 1
 750 375 l 1
 125 375 l 1
125 250 m 1
 125 375 l 1
 250 375 l 1
 250 250 l 1
 125 250 l 1
375 250 m 1
 375 375 l 1
 500 375 l 1
 500 250 l 1
 375 250 l 1
125 125 m 1
 125 250 l 1
 250 250 l 1
 250 125 l 1
 125 125 l 1
375 125 m 1
 375 250 l 1
 500 250 l 1
 500 125 l 1
 375 125 l 1
125 0 m 1
 125 125 l 1
 250 125 l 1
 250 0 l 1
 125 0 l 1
375 0 m 1
 375 125 l 1
 750 125 l 1
 750 0 l 1
 375 0 l 1
EndSplineSet
EndChar

StartChar: Ccedilla
Encoding: 199 199 134
Width: 875
Flags: HW
LayerCount: 2
Back
Fore
SplineSet
250 750 m 1
 250 875 l 1
 625 875 l 1
 625 750 l 1
 250 750 l 1
125 625 m 1
 125 750 l 1
 250 750 l 1
 250 625 l 1
 125 625 l 1
625 625 m 1
 625 750 l 1
 750 750 l 1
 750 625 l 1
 625 625 l 1
125 500 m 1
 125 625 l 1
 250 625 l 1
 250 500 l 1
 125 500 l 1
125 375 m 1
 125 500 l 1
 250 500 l 1
 250 375 l 1
 125 375 l 1
125 250 m 1
 125 375 l 1
 250 375 l 1
 250 250 l 1
 125 250 l 1
625 250 m 1
 625 375 l 1
 750 375 l 1
 750 250 l 1
 625 250 l 1
250 125 m 1
 250 250 l 1
 625 250 l 1
 625 125 l 1
 250 125 l 1
500 0 m 1
 500 125 l 1
 625 125 l 1
 625 0 l 1
 500 0 l 1
375 -125 m 1
 375 0 l 1
 500 0 l 1
 500 -125 l 1
 375 -125 l 1
EndSplineSet
EndChar

StartChar: Egrave
Encoding: 200 200 135
Width: 875
Flags: HW
LayerCount: 2
Back
Fore
SplineSet
500 750 m 1
 500 875 l 1
 625 875 l 1
 625 750 l 1
 500 750 l 1
625 625 m 1
 625 750 l 1
 750 750 l 1
 750 625 l 1
 625 625 l 1
125 500 m 1
 125 625 l 1
 750 625 l 1
 750 500 l 1
 125 500 l 1
125 375 m 1
 125 500 l 1
 250 500 l 1
 250 375 l 1
 125 375 l 1
125 250 m 1
 125 375 l 1
 625 375 l 1
 625 250 l 1
 125 250 l 1
125 125 m 1
 125 250 l 1
 250 250 l 1
 250 125 l 1
 125 125 l 1
125 0 m 1
 125 125 l 1
 750 125 l 1
 750 0 l 1
 125 0 l 1
EndSplineSet
EndChar

StartChar: Eacute
Encoding: 201 201 136
Width: 875
Flags: HW
LayerCount: 2
Back
Fore
SplineSet
625 750 m 1
 625 875 l 1
 750 875 l 1
 750 750 l 1
 625 750 l 1
500 625 m 1
 500 750 l 1
 625 750 l 1
 625 625 l 1
 500 625 l 1
125 500 m 1
 125 625 l 1
 750 625 l 1
 750 500 l 1
 125 500 l 1
125 375 m 1
 125 500 l 1
 250 500 l 1
 250 375 l 1
 125 375 l 1
125 250 m 1
 125 375 l 1
 625 375 l 1
 625 250 l 1
 125 250 l 1
125 125 m 1
 125 250 l 1
 250 250 l 1
 250 125 l 1
 125 125 l 1
125 0 m 1
 125 125 l 1
 750 125 l 1
 750 0 l 1
 125 0 l 1
EndSplineSet
EndChar

StartChar: Ecircumflex
Encoding: 202 202 137
Width: 875
Flags: HW
LayerCount: 2
Back
Fore
SplineSet
500 750 m 1
 500 875 l 1
 625 875 l 1
 625 750 l 1
 500 750 l 1
375 625 m 1
 375 750 l 1
 500 750 l 1
 500 625 l 1
 375 625 l 1
625 625 m 1
 625 750 l 1
 750 750 l 1
 750 625 l 1
 625 625 l 1
125 500 m 1
 125 625 l 1
 750 625 l 1
 750 500 l 1
 125 500 l 1
125 375 m 1
 125 500 l 1
 250 500 l 1
 250 375 l 1
 125 375 l 1
125 250 m 1
 125 375 l 1
 625 375 l 1
 625 250 l 1
 125 250 l 1
125 125 m 1
 125 250 l 1
 250 250 l 1
 250 125 l 1
 125 125 l 1
125 0 m 1
 125 125 l 1
 750 125 l 1
 750 0 l 1
 125 0 l 1
EndSplineSet
EndChar

StartChar: Edieresis
Encoding: 203 203 138
Width: 875
Flags: HW
LayerCount: 2
Back
Fore
SplineSet
125 750 m 1
 125 875 l 1
 250 875 l 1
 250 750 l 1
 125 750 l 1
625 750 m 1
 625 875 l 1
 750 875 l 1
 750 750 l 1
 625 750 l 1
125 500 m 1
 125 625 l 1
 750 625 l 1
 750 500 l 1
 125 500 l 1
125 375 m 1
 125 500 l 1
 250 500 l 1
 250 375 l 1
 125 375 l 1
125 250 m 1
 125 375 l 1
 625 375 l 1
 625 250 l 1
 125 250 l 1
125 125 m 1
 125 250 l 1
 250 250 l 1
 250 125 l 1
 125 125 l 1
125 0 m 1
 125 125 l 1
 750 125 l 1
 750 0 l 1
 125 0 l 1
EndSplineSet
EndChar

StartChar: Igrave
Encoding: 204 204 139
Width: 875
Flags: HW
LayerCount: 2
Back
Fore
SplineSet
250 750 m 1
 250 875 l 1
 375 875 l 1
 375 750 l 1
 250 750 l 1
375 625 m 1
 375 750 l 1
 500 750 l 1
 500 625 l 1
 375 625 l 1
250 500 m 1
 250 625 l 1
 625 625 l 1
 625 500 l 1
 250 500 l 1
375 375 m 1
 375 500 l 1
 500 500 l 1
 500 375 l 1
 375 375 l 1
375 250 m 1
 375 375 l 1
 500 375 l 1
 500 250 l 1
 375 250 l 1
375 125 m 1
 375 250 l 1
 500 250 l 1
 500 125 l 1
 375 125 l 1
250 0 m 1
 250 125 l 1
 625 125 l 1
 625 0 l 1
 250 0 l 1
EndSplineSet
EndChar

StartChar: Iacute
Encoding: 205 205 140
Width: 875
Flags: HW
LayerCount: 2
Back
Fore
SplineSet
500 750 m 1
 500 875 l 1
 625 875 l 1
 625 750 l 1
 500 750 l 1
375 625 m 1
 375 750 l 1
 500 750 l 1
 500 625 l 1
 375 625 l 1
250 500 m 1
 250 625 l 1
 625 625 l 1
 625 500 l 1
 250 500 l 1
375 375 m 1
 375 500 l 1
 500 500 l 1
 500 375 l 1
 375 375 l 1
375 250 m 1
 375 375 l 1
 500 375 l 1
 500 250 l 1
 375 250 l 1
375 125 m 1
 375 250 l 1
 500 250 l 1
 500 125 l 1
 375 125 l 1
250 0 m 1
 250 125 l 1
 625 125 l 1
 625 0 l 1
 250 0 l 1
EndSplineSet
EndChar

StartChar: Icircumflex
Encoding: 206 206 141
Width: 875
Flags: HW
LayerCount: 2
Back
Fore
SplineSet
375 750 m 1
 375 875 l 1
 500 875 l 1
 500 750 l 1
 375 750 l 1
250 625 m 1
 250 750 l 1
 375 750 l 1
 375 625 l 1
 250 625 l 1
500 625 m 1
 500 750 l 1
 625 750 l 1
 625 625 l 1
 500 625 l 1
250 500 m 1
 250 625 l 1
 625 625 l 1
 625 500 l 1
 250 500 l 1
375 375 m 1
 375 500 l 1
 500 500 l 1
 500 375 l 1
 375 375 l 1
375 250 m 1
 375 375 l 1
 500 375 l 1
 500 250 l 1
 375 250 l 1
375 125 m 1
 375 250 l 1
 500 250 l 1
 500 125 l 1
 375 125 l 1
250 0 m 1
 250 125 l 1
 625 125 l 1
 625 0 l 1
 250 0 l 1
EndSplineSet
EndChar

StartChar: Idieresis
Encoding: 207 207 142
Width: 875
Flags: HW
LayerCount: 2
Back
Fore
SplineSet
125 750 m 1
 125 875 l 1
 250 875 l 1
 250 750 l 1
 125 750 l 1
625 750 m 1
 625 875 l 1
 750 875 l 1
 750 750 l 1
 625 750 l 1
250 500 m 1
 250 625 l 1
 625 625 l 1
 625 500 l 1
 250 500 l 1
375 375 m 1
 375 500 l 1
 500 500 l 1
 500 375 l 1
 375 375 l 1
375 250 m 1
 375 375 l 1
 500 375 l 1
 500 250 l 1
 375 250 l 1
375 125 m 1
 375 250 l 1
 500 250 l 1
 500 125 l 1
 375 125 l 1
250 0 m 1
 250 125 l 1
 625 125 l 1
 625 0 l 1
 250 0 l 1
EndSplineSet
EndChar

StartChar: Eth
Encoding: 208 208 143
Width: 875
Flags: HW
LayerCount: 2
Back
Fore
SplineSet
125 750 m 1
 125 875 l 1
 250 875 l 1
 250 750 l 1
 125 750 l 1
125 625 m 1
 125 750 l 1
 250 750 l 1
 250 625 l 1
 125 625 l 1
125 500 m 1
 125 625 l 1
 625 625 l 1
 625 500 l 1
 125 500 l 1
125 375 m 1
 125 500 l 1
 250 500 l 1
 250 375 l 1
 125 375 l 1
625 375 m 1
 625 500 l 1
 750 500 l 1
 750 375 l 1
 625 375 l 1
125 250 m 1
 125 375 l 1
 625 375 l 1
 625 250 l 1
 125 250 l 1
125 125 m 1
 125 250 l 1
 250 250 l 1
 250 125 l 1
 125 125 l 1
125 0 m 1
 125 125 l 1
 250 125 l 1
 250 0 l 1
 125 0 l 1
EndSplineSet
EndChar

StartChar: Ntilde
Encoding: 209 209 144
Width: 875
Flags: HW
LayerCount: 2
Back
Fore
SplineSet
250 750 m 1
 250 875 l 1
 500 875 l 1
 500 750 l 1
 250 750 l 1
625 750 m 1
 625 875 l 1
 750 875 l 1
 750 750 l 1
 625 750 l 1
125 625 m 1
 125 750 l 1
 250 750 l 1
 250 625 l 1
 125 625 l 1
375 625 m 1
 375 750 l 1
 625 750 l 1
 625 625 l 1
 375 625 l 1
125 375 m 1
 125 500 l 1
 375 500 l 1
 375 375 l 1
 125 375 l 1
625 375 m 1
 625 500 l 1
 750 500 l 1
 750 375 l 1
 625 375 l 1
125 250 m 1
 125 375 l 1
 250 375 l 1
 250 250 l 1
 125 250 l 1
375 250 m 1
 375 375 l 1
 500 375 l 1
 500 250 l 1
 375 250 l 1
625 250 m 1
 625 375 l 1
 750 375 l 1
 750 250 l 1
 625 250 l 1
125 125 m 1
 125 250 l 1
 250 250 l 1
 250 125 l 1
 125 125 l 1
500 125 m 1
 500 250 l 1
 750 250 l 1
 750 125 l 1
 500 125 l 1
125 0 m 1
 125 125 l 1
 250 125 l 1
 250 0 l 1
 125 0 l 1
625 0 m 1
 625 125 l 1
 750 125 l 1
 750 0 l 1
 625 0 l 1
EndSplineSet
EndChar

StartChar: Ograve
Encoding: 210 210 145
Width: 875
Flags: HW
LayerCount: 2
Back
Fore
SplineSet
375 750 m 1
 375 875 l 1
 500 875 l 1
 500 750 l 1
 375 750 l 1
500 625 m 1
 500 750 l 1
 625 750 l 1
 625 625 l 1
 500 625 l 1
250 500 m 1
 250 625 l 1
 625 625 l 1
 625 500 l 1
 250 500 l 1
125 375 m 1
 125 500 l 1
 250 500 l 1
 250 375 l 1
 125 375 l 1
625 375 m 1
 625 500 l 1
 750 500 l 1
 750 375 l 1
 625 375 l 1
125 250 m 1
 125 375 l 1
 250 375 l 1
 250 250 l 1
 125 250 l 1
625 250 m 1
 625 375 l 1
 750 375 l 1
 750 250 l 1
 625 250 l 1
125 125 m 1
 125 250 l 1
 250 250 l 1
 250 125 l 1
 125 125 l 1
625 125 m 1
 625 250 l 1
 750 250 l 1
 750 125 l 1
 625 125 l 1
250 0 m 1
 250 125 l 1
 625 125 l 1
 625 0 l 1
 250 0 l 1
EndSplineSet
EndChar

StartChar: Oacute
Encoding: 211 211 146
Width: 875
Flags: HW
LayerCount: 2
Back
Fore
SplineSet
625 750 m 1
 625 875 l 1
 750 875 l 1
 750 750 l 1
 625 750 l 1
500 625 m 1
 500 750 l 1
 625 750 l 1
 625 625 l 1
 500 625 l 1
250 500 m 1
 250 625 l 1
 625 625 l 1
 625 500 l 1
 250 500 l 1
125 375 m 1
 125 500 l 1
 250 500 l 1
 250 375 l 1
 125 375 l 1
625 375 m 1
 625 500 l 1
 750 500 l 1
 750 375 l 1
 625 375 l 1
125 250 m 1
 125 375 l 1
 250 375 l 1
 250 250 l 1
 125 250 l 1
625 250 m 1
 625 375 l 1
 750 375 l 1
 750 250 l 1
 625 250 l 1
125 125 m 1
 125 250 l 1
 250 250 l 1
 250 125 l 1
 125 125 l 1
625 125 m 1
 625 250 l 1
 750 250 l 1
 750 125 l 1
 625 125 l 1
250 0 m 1
 250 125 l 1
 625 125 l 1
 625 0 l 1
 250 0 l 1
EndSplineSet
EndChar

StartChar: Ocircumflex
Encoding: 212 212 147
Width: 875
Flags: HW
LayerCount: 2
Back
Fore
SplineSet
500 750 m 1
 500 875 l 1
 625 875 l 1
 625 750 l 1
 500 750 l 1
375 625 m 1
 375 750 l 1
 500 750 l 1
 500 625 l 1
 375 625 l 1
625 625 m 1
 625 750 l 1
 750 750 l 1
 750 625 l 1
 625 625 l 1
250 500 m 1
 250 625 l 1
 625 625 l 1
 625 500 l 1
 250 500 l 1
125 375 m 1
 125 500 l 1
 250 500 l 1
 250 375 l 1
 125 375 l 1
625 375 m 1
 625 500 l 1
 750 500 l 1
 750 375 l 1
 625 375 l 1
125 250 m 1
 125 375 l 1
 250 375 l 1
 250 250 l 1
 125 250 l 1
625 250 m 1
 625 375 l 1
 750 375 l 1
 750 250 l 1
 625 250 l 1
125 125 m 1
 125 250 l 1
 250 250 l 1
 250 125 l 1
 125 125 l 1
625 125 m 1
 625 250 l 1
 750 250 l 1
 750 125 l 1
 625 125 l 1
250 0 m 1
 250 125 l 1
 625 125 l 1
 625 0 l 1
 250 0 l 1
EndSplineSet
EndChar

StartChar: Otilde
Encoding: 213 213 148
Width: 875
Flags: HW
LayerCount: 2
Back
Fore
SplineSet
250 750 m 1
 250 875 l 1
 500 875 l 1
 500 750 l 1
 250 750 l 1
625 750 m 1
 625 875 l 1
 750 875 l 1
 750 750 l 1
 625 750 l 1
125 625 m 1
 125 750 l 1
 250 750 l 1
 250 625 l 1
 125 625 l 1
375 625 m 1
 375 750 l 1
 625 750 l 1
 625 625 l 1
 375 625 l 1
250 500 m 1
 250 625 l 1
 625 625 l 1
 625 500 l 1
 250 500 l 1
125 375 m 1
 125 500 l 1
 250 500 l 1
 250 375 l 1
 125 375 l 1
625 375 m 1
 625 500 l 1
 750 500 l 1
 750 375 l 1
 625 375 l 1
125 250 m 1
 125 375 l 1
 250 375 l 1
 250 250 l 1
 125 250 l 1
625 250 m 1
 625 375 l 1
 750 375 l 1
 750 250 l 1
 625 250 l 1
125 125 m 1
 125 250 l 1
 250 250 l 1
 250 125 l 1
 125 125 l 1
625 125 m 1
 625 250 l 1
 750 250 l 1
 750 125 l 1
 625 125 l 1
250 0 m 1
 250 125 l 1
 625 125 l 1
 625 0 l 1
 250 0 l 1
EndSplineSet
EndChar

StartChar: Odieresis
Encoding: 214 214 149
Width: 875
Flags: HW
LayerCount: 2
Back
Fore
SplineSet
125 750 m 1
 125 875 l 1
 250 875 l 1
 250 750 l 1
 125 750 l 1
625 750 m 1
 625 875 l 1
 750 875 l 1
 750 750 l 1
 625 750 l 1
250 625 m 1
 250 750 l 1
 625 750 l 1
 625 625 l 1
 250 625 l 1
125 500 m 1
 125 625 l 1
 250 625 l 1
 250 500 l 1
 125 500 l 1
625 500 m 1
 625 625 l 1
 750 625 l 1
 750 500 l 1
 625 500 l 1
125 375 m 1
 125 500 l 1
 250 500 l 1
 250 375 l 1
 125 375 l 1
625 375 m 1
 625 500 l 1
 750 500 l 1
 750 375 l 1
 625 375 l 1
125 250 m 1
 125 375 l 1
 250 375 l 1
 250 250 l 1
 125 250 l 1
625 250 m 1
 625 375 l 1
 750 375 l 1
 750 250 l 1
 625 250 l 1
125 125 m 1
 125 250 l 1
 250 250 l 1
 250 125 l 1
 125 125 l 1
625 125 m 1
 625 250 l 1
 750 250 l 1
 750 125 l 1
 625 125 l 1
250 0 m 1
 250 125 l 1
 625 125 l 1
 625 0 l 1
 250 0 l 1
EndSplineSet
EndChar

StartChar: multiply
Encoding: 215 215 150
Width: 875
Flags: HW
LayerCount: 2
Back
Fore
SplineSet
125 625 m 1
 125 750 l 1
 250 750 l 1
 250 625 l 1
 125 625 l 1
625 625 m 1
 625 750 l 1
 750 750 l 1
 750 625 l 1
 625 625 l 1
250 500 m 1
 250 625 l 1
 375 625 l 1
 375 500 l 1
 250 500 l 1
500 500 m 1
 500 625 l 1
 625 625 l 1
 625 500 l 1
 500 500 l 1
375 375 m 1
 375 500 l 1
 500 500 l 1
 500 375 l 1
 375 375 l 1
250 250 m 1
 250 375 l 1
 375 375 l 1
 375 250 l 1
 250 250 l 1
500 250 m 1
 500 375 l 1
 625 375 l 1
 625 250 l 1
 500 250 l 1
125 125 m 1
 125 250 l 1
 250 250 l 1
 250 125 l 1
 125 125 l 1
625 125 m 1
 625 250 l 1
 750 250 l 1
 750 125 l 1
 625 125 l 1
EndSplineSet
EndChar

StartChar: Oslash
Encoding: 216 216 151
Width: 875
Flags: HW
LayerCount: 2
Back
Fore
SplineSet
625 750 m 1
 625 875 l 1
 750 875 l 1
 750 750 l 1
 625 750 l 1
250 625 m 1
 250 750 l 1
 625 750 l 1
 625 625 l 1
 250 625 l 1
125 500 m 1
 125 625 l 1
 250 625 l 1
 250 500 l 1
 125 500 l 1
500 500 m 1
 500 625 l 1
 750 625 l 1
 750 500 l 1
 500 500 l 1
125 375 m 1
 125 500 l 1
 250 500 l 1
 250 375 l 1
 125 375 l 1
375 375 m 1
 375 500 l 1
 500 500 l 1
 500 375 l 1
 375 375 l 1
625 375 m 1
 625 500 l 1
 750 500 l 1
 750 375 l 1
 625 375 l 1
125 250 m 1
 125 375 l 1
 250 375 l 1
 250 250 l 1
 125 250 l 1
375 250 m 1
 375 375 l 1
 500 375 l 1
 500 250 l 1
 375 250 l 1
625 250 m 1
 625 375 l 1
 750 375 l 1
 750 250 l 1
 625 250 l 1
125 125 m 1
 125 250 l 1
 375 250 l 1
 375 125 l 1
 125 125 l 1
625 125 m 1
 625 250 l 1
 750 250 l 1
 750 125 l 1
 625 125 l 1
250 0 m 1
 250 125 l 1
 625 125 l 1
 625 0 l 1
 250 0 l 1
125 -125 m 1
 125 0 l 1
 250 0 l 1
 250 -125 l 1
 125 -125 l 1
EndSplineSet
EndChar

StartChar: Ugrave
Encoding: 217 217 152
Width: 875
Flags: HW
LayerCount: 2
Back
Fore
SplineSet
250 750 m 1
 250 875 l 1
 375 875 l 1
 375 750 l 1
 250 750 l 1
375 625 m 1
 375 750 l 1
 500 750 l 1
 500 625 l 1
 375 625 l 1
125 500 m 1
 125 625 l 1
 250 625 l 1
 250 500 l 1
 125 500 l 1
625 500 m 1
 625 625 l 1
 750 625 l 1
 750 500 l 1
 625 500 l 1
125 375 m 1
 125 500 l 1
 250 500 l 1
 250 375 l 1
 125 375 l 1
625 375 m 1
 625 500 l 1
 750 500 l 1
 750 375 l 1
 625 375 l 1
125 250 m 1
 125 375 l 1
 250 375 l 1
 250 250 l 1
 125 250 l 1
625 250 m 1
 625 375 l 1
 750 375 l 1
 750 250 l 1
 625 250 l 1
125 125 m 1
 125 250 l 1
 250 250 l 1
 250 125 l 1
 125 125 l 1
625 125 m 1
 625 250 l 1
 750 250 l 1
 750 125 l 1
 625 125 l 1
250 0 m 1
 250 125 l 1
 625 125 l 1
 625 0 l 1
 250 0 l 1
EndSplineSet
EndChar

StartChar: Uacute
Encoding: 218 218 153
Width: 875
Flags: HW
LayerCount: 2
Back
Fore
SplineSet
500 750 m 1
 500 875 l 1
 625 875 l 1
 625 750 l 1
 500 750 l 1
375 625 m 1
 375 750 l 1
 500 750 l 1
 500 625 l 1
 375 625 l 1
125 500 m 1
 125 625 l 1
 250 625 l 1
 250 500 l 1
 125 500 l 1
625 500 m 1
 625 625 l 1
 750 625 l 1
 750 500 l 1
 625 500 l 1
125 375 m 1
 125 500 l 1
 250 500 l 1
 250 375 l 1
 125 375 l 1
625 375 m 1
 625 500 l 1
 750 500 l 1
 750 375 l 1
 625 375 l 1
125 250 m 1
 125 375 l 1
 250 375 l 1
 250 250 l 1
 125 250 l 1
625 250 m 1
 625 375 l 1
 750 375 l 1
 750 250 l 1
 625 250 l 1
125 125 m 1
 125 250 l 1
 250 250 l 1
 250 125 l 1
 125 125 l 1
625 125 m 1
 625 250 l 1
 750 250 l 1
 750 125 l 1
 625 125 l 1
250 0 m 1
 250 125 l 1
 625 125 l 1
 625 0 l 1
 250 0 l 1
EndSplineSet
EndChar

StartChar: Ucircumflex
Encoding: 219 219 154
Width: 875
Flags: HW
LayerCount: 2
Back
Fore
SplineSet
375 750 m 1
 375 875 l 1
 500 875 l 1
 500 750 l 1
 375 750 l 1
250 625 m 1
 250 750 l 1
 375 750 l 1
 375 625 l 1
 250 625 l 1
500 625 m 1
 500 750 l 1
 625 750 l 1
 625 625 l 1
 500 625 l 1
125 500 m 1
 125 625 l 1
 250 625 l 1
 250 500 l 1
 125 500 l 1
625 500 m 1
 625 625 l 1
 750 625 l 1
 750 500 l 1
 625 500 l 1
125 375 m 1
 125 500 l 1
 250 500 l 1
 250 375 l 1
 125 375 l 1
625 375 m 1
 625 500 l 1
 750 500 l 1
 750 375 l 1
 625 375 l 1
125 250 m 1
 125 375 l 1
 250 375 l 1
 250 250 l 1
 125 250 l 1
625 250 m 1
 625 375 l 1
 750 375 l 1
 750 250 l 1
 625 250 l 1
125 125 m 1
 125 250 l 1
 250 250 l 1
 250 125 l 1
 125 125 l 1
625 125 m 1
 625 250 l 1
 750 250 l 1
 750 125 l 1
 625 125 l 1
250 0 m 1
 250 125 l 1
 625 125 l 1
 625 0 l 1
 250 0 l 1
EndSplineSet
EndChar

StartChar: Udieresis
Encoding: 220 220 155
Width: 875
Flags: HW
LayerCount: 2
Back
Fore
SplineSet
125 750 m 1
 125 875 l 1
 250 875 l 1
 250 750 l 1
 125 750 l 1
625 750 m 1
 625 875 l 1
 750 875 l 1
 750 750 l 1
 625 750 l 1
125 500 m 1
 125 625 l 1
 250 625 l 1
 250 500 l 1
 125 500 l 1
625 500 m 1
 625 625 l 1
 750 625 l 1
 750 500 l 1
 625 500 l 1
125 375 m 1
 125 500 l 1
 250 500 l 1
 250 375 l 1
 125 375 l 1
625 375 m 1
 625 500 l 1
 750 500 l 1
 750 375 l 1
 625 375 l 1
125 250 m 1
 125 375 l 1
 250 375 l 1
 250 250 l 1
 125 250 l 1
625 250 m 1
 625 375 l 1
 750 375 l 1
 750 250 l 1
 625 250 l 1
125 125 m 1
 125 250 l 1
 250 250 l 1
 250 125 l 1
 125 125 l 1
625 125 m 1
 625 250 l 1
 750 250 l 1
 750 125 l 1
 625 125 l 1
250 0 m 1
 250 125 l 1
 625 125 l 1
 625 0 l 1
 250 0 l 1
EndSplineSet
EndChar

StartChar: Yacute
Encoding: 221 221 156
Width: 875
Flags: HW
LayerCount: 2
Back
Fore
SplineSet
500 750 m 1
 500 875 l 1
 625 875 l 1
 625 750 l 1
 500 750 l 1
375 625 m 1
 375 750 l 1
 500 750 l 1
 500 625 l 1
 375 625 l 1
125 500 m 1
 125 625 l 1
 250 625 l 1
 250 500 l 1
 125 500 l 1
625 500 m 1
 625 625 l 1
 750 625 l 1
 750 500 l 1
 625 500 l 1
125 375 m 1
 125 500 l 1
 250 500 l 1
 250 375 l 1
 125 375 l 1
625 375 m 1
 625 500 l 1
 750 500 l 1
 750 375 l 1
 625 375 l 1
250 250 m 1
 250 375 l 1
 375 375 l 1
 375 250 l 1
 250 250 l 1
500 250 m 1
 500 375 l 1
 625 375 l 1
 625 250 l 1
 500 250 l 1
375 125 m 1
 375 250 l 1
 500 250 l 1
 500 125 l 1
 375 125 l 1
375 0 m 1
 375 125 l 1
 500 125 l 1
 500 0 l 1
 375 0 l 1
EndSplineSet
EndChar

StartChar: Thorn
Encoding: 222 222 157
Width: 875
Flags: HW
LayerCount: 2
Back
Fore
SplineSet
125 750 m 1
 125 875 l 1
 250 875 l 1
 250 750 l 1
 125 750 l 1
125 625 m 1
 125 750 l 1
 250 750 l 1
 250 625 l 1
 125 625 l 1
125 500 m 1
 125 625 l 1
 625 625 l 1
 625 500 l 1
 125 500 l 1
125 375 m 1
 125 500 l 1
 250 500 l 1
 250 375 l 1
 125 375 l 1
625 375 m 1
 625 500 l 1
 750 500 l 1
 750 375 l 1
 625 375 l 1
125 250 m 1
 125 375 l 1
 625 375 l 1
 625 250 l 1
 125 250 l 1
125 125 m 1
 125 250 l 1
 250 250 l 1
 250 125 l 1
 125 125 l 1
125 0 m 1
 125 125 l 1
 250 125 l 1
 250 0 l 1
 125 0 l 1
EndSplineSet
EndChar

StartChar: germandbls
Encoding: 223 223 158
Width: 875
Flags: HW
LayerCount: 2
Back
Fore
SplineSet
250 750 m 1
 250 875 l 1
 625 875 l 1
 625 750 l 1
 250 750 l 1
125 625 m 1
 125 750 l 1
 250 750 l 1
 250 625 l 1
 125 625 l 1
625 625 m 1
 625 750 l 1
 750 750 l 1
 750 625 l 1
 625 625 l 1
125 500 m 1
 125 625 l 1
 250 625 l 1
 250 500 l 1
 125 500 l 1
625 500 m 1
 625 625 l 1
 750 625 l 1
 750 500 l 1
 625 500 l 1
125 375 m 1
 125 500 l 1
 250 500 l 1
 250 375 l 1
 125 375 l 1
500 375 m 1
 500 500 l 1
 625 500 l 1
 625 375 l 1
 500 375 l 1
125 250 m 1
 125 375 l 1
 250 375 l 1
 250 250 l 1
 125 250 l 1
625 250 m 1
 625 375 l 1
 750 375 l 1
 750 250 l 1
 625 250 l 1
125 125 m 1
 125 250 l 1
 250 250 l 1
 250 125 l 1
 125 125 l 1
625 125 m 1
 625 250 l 1
 750 250 l 1
 750 125 l 1
 625 125 l 1
125 0 m 1
 125 125 l 1
 250 125 l 1
 250 0 l 1
 125 0 l 1
500 0 m 1
 500 125 l 1
 625 125 l 1
 625 0 l 1
 500 0 l 1
EndSplineSet
EndChar

StartChar: agrave
Encoding: 224 224 159
Width: 875
Flags: HW
LayerCount: 2
Back
Fore
SplineSet
500 750 m 1
 500 875 l 1
 625 875 l 1
 625 750 l 1
 500 750 l 1
625 625 m 1
 625 750 l 1
 750 750 l 1
 750 625 l 1
 625 625 l 1
250 500 m 1
 250 625 l 1
 625 625 l 1
 625 500 l 1
 250 500 l 1
625 375 m 1
 625 500 l 1
 750 500 l 1
 750 375 l 1
 625 375 l 1
250 250 m 1
 250 375 l 1
 750 375 l 1
 750 250 l 1
 250 250 l 1
125 125 m 1
 125 250 l 1
 250 250 l 1
 250 125 l 1
 125 125 l 1
625 125 m 1
 625 250 l 1
 750 250 l 1
 750 125 l 1
 625 125 l 1
250 0 m 1
 250 125 l 1
 750 125 l 1
 750 0 l 1
 250 0 l 1
EndSplineSet
EndChar

StartChar: aacute
Encoding: 225 225 160
Width: 875
Flags: HW
LayerCount: 2
Back
Fore
SplineSet
500 750 m 1
 500 875 l 1
 625 875 l 1
 625 750 l 1
 500 750 l 1
625 625 m 1
 625 750 l 1
 750 750 l 1
 750 625 l 1
 625 625 l 1
250 500 m 1
 250 625 l 1
 625 625 l 1
 625 500 l 1
 250 500 l 1
625 375 m 1
 625 500 l 1
 750 500 l 1
 750 375 l 1
 625 375 l 1
250 250 m 1
 250 375 l 1
 750 375 l 1
 750 250 l 1
 250 250 l 1
125 125 m 1
 125 250 l 1
 250 250 l 1
 250 125 l 1
 125 125 l 1
625 125 m 1
 625 250 l 1
 750 250 l 1
 750 125 l 1
 625 125 l 1
250 0 m 1
 250 125 l 1
 750 125 l 1
 750 0 l 1
 250 0 l 1
EndSplineSet
EndChar

StartChar: acircumflex
Encoding: 226 226 161
Width: 875
Flags: HW
LayerCount: 2
Back
Fore
SplineSet
625 750 m 1
 625 875 l 1
 750 875 l 1
 750 750 l 1
 625 750 l 1
500 625 m 1
 500 750 l 1
 625 750 l 1
 625 625 l 1
 500 625 l 1
250 500 m 1
 250 625 l 1
 625 625 l 1
 625 500 l 1
 250 500 l 1
625 375 m 1
 625 500 l 1
 750 500 l 1
 750 375 l 1
 625 375 l 1
250 250 m 1
 250 375 l 1
 750 375 l 1
 750 250 l 1
 250 250 l 1
125 125 m 1
 125 250 l 1
 250 250 l 1
 250 125 l 1
 125 125 l 1
625 125 m 1
 625 250 l 1
 750 250 l 1
 750 125 l 1
 625 125 l 1
250 0 m 1
 250 125 l 1
 750 125 l 1
 750 0 l 1
 250 0 l 1
EndSplineSet
EndChar

StartChar: atilde
Encoding: 227 227 162
Width: 875
Flags: HW
LayerCount: 2
Back
Fore
SplineSet
500 750 m 1
 500 875 l 1
 625 875 l 1
 625 750 l 1
 500 750 l 1
625 625 m 1
 625 750 l 1
 750 750 l 1
 750 625 l 1
 625 625 l 1
250 500 m 1
 250 625 l 1
 625 625 l 1
 625 500 l 1
 250 500 l 1
625 375 m 1
 625 500 l 1
 750 500 l 1
 750 375 l 1
 625 375 l 1
250 250 m 1
 250 375 l 1
 750 375 l 1
 750 250 l 1
 250 250 l 1
125 125 m 1
 125 250 l 1
 250 250 l 1
 250 125 l 1
 125 125 l 1
625 125 m 1
 625 250 l 1
 750 250 l 1
 750 125 l 1
 625 125 l 1
250 0 m 1
 250 125 l 1
 750 125 l 1
 750 0 l 1
 250 0 l 1
EndSplineSet
EndChar

StartChar: adieresis
Encoding: 228 228 163
Width: 875
Flags: HW
LayerCount: 2
Back
Fore
SplineSet
125 750 m 1
 125 875 l 1
 250 875 l 1
 250 750 l 1
 125 750 l 1
625 750 m 1
 625 875 l 1
 750 875 l 1
 750 750 l 1
 625 750 l 1
250 500 m 1
 250 625 l 1
 625 625 l 1
 625 500 l 1
 250 500 l 1
625 375 m 1
 625 500 l 1
 750 500 l 1
 750 375 l 1
 625 375 l 1
250 250 m 1
 250 375 l 1
 750 375 l 1
 750 250 l 1
 250 250 l 1
125 125 m 1
 125 250 l 1
 250 250 l 1
 250 125 l 1
 125 125 l 1
625 125 m 1
 625 250 l 1
 750 250 l 1
 750 125 l 1
 625 125 l 1
250 0 m 1
 250 125 l 1
 750 125 l 1
 750 0 l 1
 250 0 l 1
EndSplineSet
EndChar

StartChar: aring
Encoding: 229 229 164
Width: 875
Flags: HW
LayerCount: 2
Back
Fore
SplineSet
375 750 m 1
 375 875 l 1
 500 875 l 1
 500 750 l 1
 375 750 l 1
250 625 m 1
 250 750 l 1
 375 750 l 1
 375 625 l 1
 250 625 l 1
500 625 m 1
 500 750 l 1
 625 750 l 1
 625 625 l 1
 500 625 l 1
250 500 m 1
 250 625 l 1
 625 625 l 1
 625 500 l 1
 250 500 l 1
625 375 m 1
 625 500 l 1
 750 500 l 1
 750 375 l 1
 625 375 l 1
250 250 m 1
 250 375 l 1
 750 375 l 1
 750 250 l 1
 250 250 l 1
125 125 m 1
 125 250 l 1
 250 250 l 1
 250 125 l 1
 125 125 l 1
625 125 m 1
 625 250 l 1
 750 250 l 1
 750 125 l 1
 625 125 l 1
250 0 m 1
 250 125 l 1
 750 125 l 1
 750 0 l 1
 250 0 l 1
EndSplineSet
EndChar

StartChar: ae
Encoding: 230 230 165
Width: 875
Flags: HW
LayerCount: 2
Back
Fore
SplineSet
125 500 m 1
 125 625 l 1
 375 625 l 1
 375 500 l 1
 125 500 l 1
500 500 m 1
 500 625 l 1
 625 625 l 1
 625 500 l 1
 500 500 l 1
375 375 m 1
 375 500 l 1
 500 500 l 1
 500 375 l 1
 375 375 l 1
625 375 m 1
 625 500 l 1
 750 500 l 1
 750 375 l 1
 625 375 l 1
250 250 m 1
 250 375 l 1
 750 375 l 1
 750 250 l 1
 250 250 l 1
125 125 m 1
 125 250 l 1
 250 250 l 1
 250 125 l 1
 125 125 l 1
375 125 m 1
 375 250 l 1
 500 250 l 1
 500 125 l 1
 375 125 l 1
250 0 m 1
 250 125 l 1
 750 125 l 1
 750 0 l 1
 250 0 l 1
EndSplineSet
EndChar

StartChar: ccedilla
Encoding: 231 231 166
Width: 875
Flags: HW
LayerCount: 2
Back
Fore
SplineSet
250 500 m 1
 250 625 l 1
 750 625 l 1
 750 500 l 1
 250 500 l 1
125 375 m 1
 125 500 l 1
 250 500 l 1
 250 375 l 1
 125 375 l 1
125 250 m 1
 125 375 l 1
 250 375 l 1
 250 250 l 1
 125 250 l 1
250 125 m 1
 250 250 l 1
 750 250 l 1
 750 125 l 1
 250 125 l 1
500 0 m 1
 500 125 l 1
 625 125 l 1
 625 0 l 1
 500 0 l 1
375 -125 m 1
 375 0 l 1
 500 0 l 1
 500 -125 l 1
 375 -125 l 1
EndSplineSet
EndChar

StartChar: egrave
Encoding: 232 232 167
Width: 875
Flags: HW
LayerCount: 2
Back
Fore
SplineSet
500 750 m 1
 500 875 l 1
 625 875 l 1
 625 750 l 1
 500 750 l 1
625 625 m 1
 625 750 l 1
 750 750 l 1
 750 625 l 1
 625 625 l 1
250 500 m 1
 250 625 l 1
 625 625 l 1
 625 500 l 1
 250 500 l 1
125 375 m 1
 125 500 l 1
 250 500 l 1
 250 375 l 1
 125 375 l 1
625 375 m 1
 625 500 l 1
 750 500 l 1
 750 375 l 1
 625 375 l 1
125 250 m 1
 125 375 l 1
 750 375 l 1
 750 250 l 1
 125 250 l 1
125 125 m 1
 125 250 l 1
 250 250 l 1
 250 125 l 1
 125 125 l 1
250 0 m 1
 250 125 l 1
 750 125 l 1
 750 0 l 1
 250 0 l 1
EndSplineSet
EndChar

StartChar: eacute
Encoding: 233 233 168
Width: 875
Flags: HW
LayerCount: 2
Back
Fore
SplineSet
625 750 m 1
 625 875 l 1
 750 875 l 1
 750 750 l 1
 625 750 l 1
500 625 m 1
 500 750 l 1
 625 750 l 1
 625 625 l 1
 500 625 l 1
250 500 m 1
 250 625 l 1
 625 625 l 1
 625 500 l 1
 250 500 l 1
125 375 m 1
 125 500 l 1
 250 500 l 1
 250 375 l 1
 125 375 l 1
625 375 m 1
 625 500 l 1
 750 500 l 1
 750 375 l 1
 625 375 l 1
125 250 m 1
 125 375 l 1
 750 375 l 1
 750 250 l 1
 125 250 l 1
125 125 m 1
 125 250 l 1
 250 250 l 1
 250 125 l 1
 125 125 l 1
250 0 m 1
 250 125 l 1
 750 125 l 1
 750 0 l 1
 250 0 l 1
EndSplineSet
EndChar

StartChar: ecircumflex
Encoding: 234 234 169
Width: 875
Flags: HW
LayerCount: 2
Back
Fore
SplineSet
500 750 m 1
 500 875 l 1
 625 875 l 1
 625 750 l 1
 500 750 l 1
375 625 m 1
 375 750 l 1
 500 750 l 1
 500 625 l 1
 375 625 l 1
625 625 m 1
 625 750 l 1
 750 750 l 1
 750 625 l 1
 625 625 l 1
250 500 m 1
 250 625 l 1
 625 625 l 1
 625 500 l 1
 250 500 l 1
125 375 m 1
 125 500 l 1
 250 500 l 1
 250 375 l 1
 125 375 l 1
625 375 m 1
 625 500 l 1
 750 500 l 1
 750 375 l 1
 625 375 l 1
125 250 m 1
 125 375 l 1
 750 375 l 1
 750 250 l 1
 125 250 l 1
125 125 m 1
 125 250 l 1
 250 250 l 1
 250 125 l 1
 125 125 l 1
250 0 m 1
 250 125 l 1
 750 125 l 1
 750 0 l 1
 250 0 l 1
EndSplineSet
EndChar

StartChar: edieresis
Encoding: 235 235 170
Width: 875
Flags: HW
LayerCount: 2
Back
Fore
SplineSet
125 750 m 1
 125 875 l 1
 250 875 l 1
 250 750 l 1
 125 750 l 1
625 750 m 1
 625 875 l 1
 750 875 l 1
 750 750 l 1
 625 750 l 1
250 500 m 1
 250 625 l 1
 625 625 l 1
 625 500 l 1
 250 500 l 1
125 375 m 1
 125 500 l 1
 250 500 l 1
 250 375 l 1
 125 375 l 1
625 375 m 1
 625 500 l 1
 750 500 l 1
 750 375 l 1
 625 375 l 1
125 250 m 1
 125 375 l 1
 750 375 l 1
 750 250 l 1
 125 250 l 1
125 125 m 1
 125 250 l 1
 250 250 l 1
 250 125 l 1
 125 125 l 1
250 0 m 1
 250 125 l 1
 750 125 l 1
 750 0 l 1
 250 0 l 1
EndSplineSet
EndChar

StartChar: igrave
Encoding: 236 236 171
Width: 875
Flags: HW
LayerCount: 2
Back
Fore
SplineSet
250 750 m 1
 250 875 l 1
 375 875 l 1
 375 750 l 1
 250 750 l 1
375 625 m 1
 375 750 l 1
 500 750 l 1
 500 625 l 1
 375 625 l 1
375 375 m 1
 375 500 l 1
 500 500 l 1
 500 375 l 1
 375 375 l 1
375 250 m 1
 375 375 l 1
 500 375 l 1
 500 250 l 1
 375 250 l 1
375 125 m 1
 375 250 l 1
 500 250 l 1
 500 125 l 1
 375 125 l 1
250 0 m 1
 250 125 l 1
 625 125 l 1
 625 0 l 1
 250 0 l 1
EndSplineSet
EndChar

StartChar: iacute
Encoding: 237 237 172
Width: 875
Flags: HW
LayerCount: 2
Back
Fore
SplineSet
500 750 m 1
 500 875 l 1
 625 875 l 1
 625 750 l 1
 500 750 l 1
375 625 m 1
 375 750 l 1
 500 750 l 1
 500 625 l 1
 375 625 l 1
375 375 m 1
 375 500 l 1
 500 500 l 1
 500 375 l 1
 375 375 l 1
375 250 m 1
 375 375 l 1
 500 375 l 1
 500 250 l 1
 375 250 l 1
375 125 m 1
 375 250 l 1
 500 250 l 1
 500 125 l 1
 375 125 l 1
250 0 m 1
 250 125 l 1
 625 125 l 1
 625 0 l 1
 250 0 l 1
EndSplineSet
EndChar

StartChar: icircumflex
Encoding: 238 238 173
Width: 875
Flags: HW
LayerCount: 2
Back
Fore
SplineSet
375 750 m 1
 375 875 l 1
 500 875 l 1
 500 750 l 1
 375 750 l 1
250 625 m 1
 250 750 l 1
 375 750 l 1
 375 625 l 1
 250 625 l 1
500 625 m 1
 500 750 l 1
 625 750 l 1
 625 625 l 1
 500 625 l 1
375 375 m 1
 375 500 l 1
 500 500 l 1
 500 375 l 1
 375 375 l 1
375 250 m 1
 375 375 l 1
 500 375 l 1
 500 250 l 1
 375 250 l 1
375 125 m 1
 375 250 l 1
 500 250 l 1
 500 125 l 1
 375 125 l 1
250 0 m 1
 250 125 l 1
 625 125 l 1
 625 0 l 1
 250 0 l 1
EndSplineSet
EndChar

StartChar: idieresis
Encoding: 239 239 174
Width: 875
Flags: HW
LayerCount: 2
Back
Fore
SplineSet
125 625 m 1
 125 750 l 1
 250 750 l 1
 250 625 l 1
 125 625 l 1
625 625 m 1
 625 750 l 1
 750 750 l 1
 750 625 l 1
 625 625 l 1
375 375 m 1
 375 500 l 1
 500 500 l 1
 500 375 l 1
 375 375 l 1
375 250 m 1
 375 375 l 1
 500 375 l 1
 500 250 l 1
 375 250 l 1
375 125 m 1
 375 250 l 1
 500 250 l 1
 500 125 l 1
 375 125 l 1
250 0 m 1
 250 125 l 1
 625 125 l 1
 625 0 l 1
 250 0 l 1
EndSplineSet
EndChar

StartChar: eth
Encoding: 240 240 175
Width: 875
Flags: HW
LayerCount: 2
Back
Fore
SplineSet
250 750 m 1
 250 875 l 1
 375 875 l 1
 375 750 l 1
 250 750 l 1
500 750 m 1
 500 875 l 1
 625 875 l 1
 625 750 l 1
 500 750 l 1
375 625 m 1
 375 750 l 1
 500 750 l 1
 500 625 l 1
 375 625 l 1
250 500 m 1
 250 625 l 1
 375 625 l 1
 375 500 l 1
 250 500 l 1
500 500 m 1
 500 625 l 1
 625 625 l 1
 625 500 l 1
 500 500 l 1
250 375 m 1
 250 500 l 1
 625 500 l 1
 625 375 l 1
 250 375 l 1
125 250 m 1
 125 375 l 1
 250 375 l 1
 250 250 l 1
 125 250 l 1
625 250 m 1
 625 375 l 1
 750 375 l 1
 750 250 l 1
 625 250 l 1
125 125 m 1
 125 250 l 1
 250 250 l 1
 250 125 l 1
 125 125 l 1
625 125 m 1
 625 250 l 1
 750 250 l 1
 750 125 l 1
 625 125 l 1
250 0 m 1
 250 125 l 1
 625 125 l 1
 625 0 l 1
 250 0 l 1
EndSplineSet
EndChar

StartChar: ntilde
Encoding: 241 241 176
Width: 875
Flags: HW
LayerCount: 2
Back
Fore
SplineSet
250 750 m 1
 250 875 l 1
 500 875 l 1
 500 750 l 1
 250 750 l 1
625 750 m 1
 625 875 l 1
 750 875 l 1
 750 750 l 1
 625 750 l 1
125 625 m 1
 125 750 l 1
 250 750 l 1
 250 625 l 1
 125 625 l 1
375 625 m 1
 375 750 l 1
 625 750 l 1
 625 625 l 1
 375 625 l 1
125 375 m 1
 125 500 l 1
 625 500 l 1
 625 375 l 1
 125 375 l 1
125 250 m 1
 125 375 l 1
 250 375 l 1
 250 250 l 1
 125 250 l 1
625 250 m 1
 625 375 l 1
 750 375 l 1
 750 250 l 1
 625 250 l 1
125 125 m 1
 125 250 l 1
 250 250 l 1
 250 125 l 1
 125 125 l 1
625 125 m 1
 625 250 l 1
 750 250 l 1
 750 125 l 1
 625 125 l 1
125 0 m 1
 125 125 l 1
 250 125 l 1
 250 0 l 1
 125 0 l 1
625 0 m 1
 625 125 l 1
 750 125 l 1
 750 0 l 1
 625 0 l 1
EndSplineSet
EndChar

StartChar: ograve
Encoding: 242 242 177
Width: 875
Flags: HW
LayerCount: 2
Back
Fore
SplineSet
375 625 m 1
 375 750 l 1
 500 750 l 1
 500 625 l 1
 375 625 l 1
500 500 m 1
 500 625 l 1
 625 625 l 1
 625 500 l 1
 500 500 l 1
250 375 m 1
 250 500 l 1
 625 500 l 1
 625 375 l 1
 250 375 l 1
125 250 m 1
 125 375 l 1
 250 375 l 1
 250 250 l 1
 125 250 l 1
625 250 m 1
 625 375 l 1
 750 375 l 1
 750 250 l 1
 625 250 l 1
125 125 m 1
 125 250 l 1
 250 250 l 1
 250 125 l 1
 125 125 l 1
625 125 m 1
 625 250 l 1
 750 250 l 1
 750 125 l 1
 625 125 l 1
250 0 m 1
 250 125 l 1
 625 125 l 1
 625 0 l 1
 250 0 l 1
EndSplineSet
EndChar

StartChar: oacute
Encoding: 243 243 178
Width: 875
Flags: HW
LayerCount: 2
Back
Fore
SplineSet
625 625 m 1
 625 750 l 1
 750 750 l 1
 750 625 l 1
 625 625 l 1
500 500 m 1
 500 625 l 1
 625 625 l 1
 625 500 l 1
 500 500 l 1
250 375 m 1
 250 500 l 1
 625 500 l 1
 625 375 l 1
 250 375 l 1
125 250 m 1
 125 375 l 1
 250 375 l 1
 250 250 l 1
 125 250 l 1
625 250 m 1
 625 375 l 1
 750 375 l 1
 750 250 l 1
 625 250 l 1
125 125 m 1
 125 250 l 1
 250 250 l 1
 250 125 l 1
 125 125 l 1
625 125 m 1
 625 250 l 1
 750 250 l 1
 750 125 l 1
 625 125 l 1
250 0 m 1
 250 125 l 1
 625 125 l 1
 625 0 l 1
 250 0 l 1
EndSplineSet
EndChar

StartChar: ocircumflex
Encoding: 244 244 179
Width: 875
Flags: HW
LayerCount: 2
Back
Fore
SplineSet
500 625 m 1
 500 750 l 1
 625 750 l 1
 625 625 l 1
 500 625 l 1
375 500 m 1
 375 625 l 1
 500 625 l 1
 500 500 l 1
 375 500 l 1
625 500 m 1
 625 625 l 1
 750 625 l 1
 750 500 l 1
 625 500 l 1
250 375 m 1
 250 500 l 1
 625 500 l 1
 625 375 l 1
 250 375 l 1
125 250 m 1
 125 375 l 1
 250 375 l 1
 250 250 l 1
 125 250 l 1
625 250 m 1
 625 375 l 1
 750 375 l 1
 750 250 l 1
 625 250 l 1
125 125 m 1
 125 250 l 1
 250 250 l 1
 250 125 l 1
 125 125 l 1
625 125 m 1
 625 250 l 1
 750 250 l 1
 750 125 l 1
 625 125 l 1
250 0 m 1
 250 125 l 1
 625 125 l 1
 625 0 l 1
 250 0 l 1
EndSplineSet
EndChar

StartChar: otilde
Encoding: 245 245 180
Width: 875
Flags: HW
LayerCount: 2
Back
Fore
SplineSet
250 750 m 1
 250 875 l 1
 500 875 l 1
 500 750 l 1
 250 750 l 1
625 750 m 1
 625 875 l 1
 750 875 l 1
 750 750 l 1
 625 750 l 1
125 625 m 1
 125 750 l 1
 250 750 l 1
 250 625 l 1
 125 625 l 1
375 625 m 1
 375 750 l 1
 625 750 l 1
 625 625 l 1
 375 625 l 1
250 375 m 1
 250 500 l 1
 625 500 l 1
 625 375 l 1
 250 375 l 1
125 250 m 1
 125 375 l 1
 250 375 l 1
 250 250 l 1
 125 250 l 1
625 250 m 1
 625 375 l 1
 750 375 l 1
 750 250 l 1
 625 250 l 1
125 125 m 1
 125 250 l 1
 250 250 l 1
 250 125 l 1
 125 125 l 1
625 125 m 1
 625 250 l 1
 750 250 l 1
 750 125 l 1
 625 125 l 1
250 0 m 1
 250 125 l 1
 625 125 l 1
 625 0 l 1
 250 0 l 1
EndSplineSet
EndChar

StartChar: odieresis
Encoding: 246 246 181
Width: 875
Flags: HW
LayerCount: 2
Back
Fore
SplineSet
125 625 m 1
 125 750 l 1
 250 750 l 1
 250 625 l 1
 125 625 l 1
625 625 m 1
 625 750 l 1
 750 750 l 1
 750 625 l 1
 625 625 l 1
250 500 m 1
 250 625 l 1
 625 625 l 1
 625 500 l 1
 250 500 l 1
125 375 m 1
 125 500 l 1
 250 500 l 1
 250 375 l 1
 125 375 l 1
625 375 m 1
 625 500 l 1
 750 500 l 1
 750 375 l 1
 625 375 l 1
125 250 m 1
 125 375 l 1
 250 375 l 1
 250 250 l 1
 125 250 l 1
625 250 m 1
 625 375 l 1
 750 375 l 1
 750 250 l 1
 625 250 l 1
125 125 m 1
 125 250 l 1
 250 250 l 1
 250 125 l 1
 125 125 l 1
625 125 m 1
 625 250 l 1
 750 250 l 1
 750 125 l 1
 625 125 l 1
250 0 m 1
 250 125 l 1
 625 125 l 1
 625 0 l 1
 250 0 l 1
EndSplineSet
EndChar

StartChar: divide
Encoding: 247 247 182
Width: 875
Flags: HW
LayerCount: 2
Back
Fore
SplineSet
375 625 m 1
 375 750 l 1
 500 750 l 1
 500 625 l 1
 375 625 l 1
125 375 m 1
 125 500 l 1
 750 500 l 1
 750 375 l 1
 125 375 l 1
375 125 m 1
 375 250 l 1
 500 250 l 1
 500 125 l 1
 375 125 l 1
EndSplineSet
EndChar

StartChar: oslash
Encoding: 248 248 183
Width: 875
Flags: HW
LayerCount: 2
Back
Fore
SplineSet
625 625 m 1
 625 750 l 1
 750 750 l 1
 750 625 l 1
 625 625 l 1
250 500 m 1
 250 625 l 1
 625 625 l 1
 625 500 l 1
 250 500 l 1
125 375 m 1
 125 500 l 1
 250 500 l 1
 250 375 l 1
 125 375 l 1
500 375 m 1
 500 500 l 1
 750 500 l 1
 750 375 l 1
 500 375 l 1
125 250 m 1
 125 375 l 1
 250 375 l 1
 250 250 l 1
 125 250 l 1
375 250 m 1
 375 375 l 1
 500 375 l 1
 500 250 l 1
 375 250 l 1
625 250 m 1
 625 375 l 1
 750 375 l 1
 750 250 l 1
 625 250 l 1
125 125 m 1
 125 250 l 1
 375 250 l 1
 375 125 l 1
 125 125 l 1
625 125 m 1
 625 250 l 1
 750 250 l 1
 750 125 l 1
 625 125 l 1
250 0 m 1
 250 125 l 1
 625 125 l 1
 625 0 l 1
 250 0 l 1
125 -125 m 1
 125 0 l 1
 250 0 l 1
 250 -125 l 1
 125 -125 l 1
EndSplineSet
EndChar

StartChar: ugrave
Encoding: 249 249 184
Width: 875
Flags: HW
LayerCount: 2
Back
Fore
SplineSet
250 750 m 1
 250 875 l 1
 375 875 l 1
 375 750 l 1
 250 750 l 1
375 625 m 1
 375 750 l 1
 500 750 l 1
 500 625 l 1
 375 625 l 1
125 500 m 1
 125 625 l 1
 250 625 l 1
 250 500 l 1
 125 500 l 1
625 500 m 1
 625 625 l 1
 750 625 l 1
 750 500 l 1
 625 500 l 1
125 375 m 1
 125 500 l 1
 250 500 l 1
 250 375 l 1
 125 375 l 1
625 375 m 1
 625 500 l 1
 750 500 l 1
 750 375 l 1
 625 375 l 1
125 250 m 1
 125 375 l 1
 250 375 l 1
 250 250 l 1
 125 250 l 1
625 250 m 1
 625 375 l 1
 750 375 l 1
 750 250 l 1
 625 250 l 1
125 125 m 1
 125 250 l 1
 250 250 l 1
 250 125 l 1
 125 125 l 1
500 125 m 1
 500 250 l 1
 750 250 l 1
 750 125 l 1
 500 125 l 1
250 0 m 1
 250 125 l 1
 500 125 l 1
 500 0 l 1
 250 0 l 1
625 0 m 1
 625 125 l 1
 750 125 l 1
 750 0 l 1
 625 0 l 1
EndSplineSet
EndChar

StartChar: uacute
Encoding: 250 250 185
Width: 875
Flags: HW
LayerCount: 2
Back
Fore
SplineSet
500 750 m 1
 500 875 l 1
 625 875 l 1
 625 750 l 1
 500 750 l 1
375 625 m 1
 375 750 l 1
 500 750 l 1
 500 625 l 1
 375 625 l 1
125 500 m 1
 125 625 l 1
 250 625 l 1
 250 500 l 1
 125 500 l 1
625 500 m 1
 625 625 l 1
 750 625 l 1
 750 500 l 1
 625 500 l 1
125 375 m 1
 125 500 l 1
 250 500 l 1
 250 375 l 1
 125 375 l 1
625 375 m 1
 625 500 l 1
 750 500 l 1
 750 375 l 1
 625 375 l 1
125 250 m 1
 125 375 l 1
 250 375 l 1
 250 250 l 1
 125 250 l 1
625 250 m 1
 625 375 l 1
 750 375 l 1
 750 250 l 1
 625 250 l 1
125 125 m 1
 125 250 l 1
 250 250 l 1
 250 125 l 1
 125 125 l 1
500 125 m 1
 500 250 l 1
 750 250 l 1
 750 125 l 1
 500 125 l 1
250 0 m 1
 250 125 l 1
 500 125 l 1
 500 0 l 1
 250 0 l 1
625 0 m 1
 625 125 l 1
 750 125 l 1
 750 0 l 1
 625 0 l 1
EndSplineSet
EndChar

StartChar: ucircumflex
Encoding: 251 251 186
Width: 875
Flags: HW
LayerCount: 2
Back
Fore
SplineSet
375 750 m 1
 375 875 l 1
 500 875 l 1
 500 750 l 1
 375 750 l 1
250 625 m 1
 250 750 l 1
 375 750 l 1
 375 625 l 1
 250 625 l 1
500 625 m 1
 500 750 l 1
 625 750 l 1
 625 625 l 1
 500 625 l 1
125 500 m 1
 125 625 l 1
 250 625 l 1
 250 500 l 1
 125 500 l 1
625 500 m 1
 625 625 l 1
 750 625 l 1
 750 500 l 1
 625 500 l 1
125 375 m 1
 125 500 l 1
 250 500 l 1
 250 375 l 1
 125 375 l 1
625 375 m 1
 625 500 l 1
 750 500 l 1
 750 375 l 1
 625 375 l 1
125 250 m 1
 125 375 l 1
 250 375 l 1
 250 250 l 1
 125 250 l 1
625 250 m 1
 625 375 l 1
 750 375 l 1
 750 250 l 1
 625 250 l 1
125 125 m 1
 125 250 l 1
 250 250 l 1
 250 125 l 1
 125 125 l 1
500 125 m 1
 500 250 l 1
 750 250 l 1
 750 125 l 1
 500 125 l 1
250 0 m 1
 250 125 l 1
 500 125 l 1
 500 0 l 1
 250 0 l 1
625 0 m 1
 625 125 l 1
 750 125 l 1
 750 0 l 1
 625 0 l 1
EndSplineSet
EndChar

StartChar: udieresis
Encoding: 252 252 187
Width: 875
Flags: HW
LayerCount: 2
Back
Fore
SplineSet
125 625 m 1
 125 750 l 1
 250 750 l 1
 250 625 l 1
 125 625 l 1
625 625 m 1
 625 750 l 1
 750 750 l 1
 750 625 l 1
 625 625 l 1
125 375 m 1
 125 500 l 1
 250 500 l 1
 250 375 l 1
 125 375 l 1
625 375 m 1
 625 500 l 1
 750 500 l 1
 750 375 l 1
 625 375 l 1
125 250 m 1
 125 375 l 1
 250 375 l 1
 250 250 l 1
 125 250 l 1
625 250 m 1
 625 375 l 1
 750 375 l 1
 750 250 l 1
 625 250 l 1
125 125 m 1
 125 250 l 1
 250 250 l 1
 250 125 l 1
 125 125 l 1
500 125 m 1
 500 250 l 1
 750 250 l 1
 750 125 l 1
 500 125 l 1
250 0 m 1
 250 125 l 1
 500 125 l 1
 500 0 l 1
 250 0 l 1
625 0 m 1
 625 125 l 1
 750 125 l 1
 750 0 l 1
 625 0 l 1
EndSplineSet
EndChar

StartChar: yacute
Encoding: 253 253 188
Width: 875
Flags: HW
LayerCount: 2
Back
Fore
SplineSet
500 750 m 1
 500 875 l 1
 625 875 l 1
 625 750 l 1
 500 750 l 1
375 625 m 1
 375 750 l 1
 500 750 l 1
 500 625 l 1
 375 625 l 1
125 500 m 1
 125 625 l 1
 250 625 l 1
 250 500 l 1
 125 500 l 1
625 500 m 1
 625 625 l 1
 750 625 l 1
 750 500 l 1
 625 500 l 1
125 375 m 1
 125 500 l 1
 250 500 l 1
 250 375 l 1
 125 375 l 1
625 375 m 1
 625 500 l 1
 750 500 l 1
 750 375 l 1
 625 375 l 1
125 250 m 1
 125 375 l 1
 250 375 l 1
 250 250 l 1
 125 250 l 1
625 250 m 1
 625 375 l 1
 750 375 l 1
 750 250 l 1
 625 250 l 1
250 125 m 1
 250 250 l 1
 750 250 l 1
 750 125 l 1
 250 125 l 1
625 0 m 1
 625 125 l 1
 750 125 l 1
 750 0 l 1
 625 0 l 1
250 -125 m 1
 250 0 l 1
 625 0 l 1
 625 -125 l 1
 250 -125 l 1
EndSplineSet
EndChar

StartChar: thorn
Encoding: 254 254 189
Width: 875
Flags: HW
LayerCount: 2
Back
Fore
SplineSet
125 750 m 1
 125 875 l 1
 250 875 l 1
 250 750 l 1
 125 750 l 1
125 625 m 1
 125 750 l 1
 250 750 l 1
 250 625 l 1
 125 625 l 1
125 500 m 1
 125 625 l 1
 625 625 l 1
 625 500 l 1
 125 500 l 1
125 375 m 1
 125 500 l 1
 250 500 l 1
 250 375 l 1
 125 375 l 1
625 375 m 1
 625 500 l 1
 750 500 l 1
 750 375 l 1
 625 375 l 1
125 250 m 1
 125 375 l 1
 250 375 l 1
 250 250 l 1
 125 250 l 1
625 250 m 1
 625 375 l 1
 750 375 l 1
 750 250 l 1
 625 250 l 1
125 125 m 1
 125 250 l 1
 625 250 l 1
 625 125 l 1
 125 125 l 1
125 0 m 1
 125 125 l 1
 250 125 l 1
 250 0 l 1
 125 0 l 1
125 -125 m 1
 125 0 l 1
 250 0 l 1
 250 -125 l 1
 125 -125 l 1
EndSplineSet
EndChar

StartChar: ydieresis
Encoding: 255 255 190
Width: 875
Flags: HW
LayerCount: 2
Back
Fore
SplineSet
125 750 m 1
 125 875 l 1
 250 875 l 1
 250 750 l 1
 125 750 l 1
625 750 m 1
 625 875 l 1
 750 875 l 1
 750 750 l 1
 625 750 l 1
125 500 m 1
 125 625 l 1
 250 625 l 1
 250 500 l 1
 125 500 l 1
625 500 m 1
 625 625 l 1
 750 625 l 1
 750 500 l 1
 625 500 l 1
125 375 m 1
 125 500 l 1
 250 500 l 1
 250 375 l 1
 125 375 l 1
625 375 m 1
 625 500 l 1
 750 500 l 1
 750 375 l 1
 625 375 l 1
125 250 m 1
 125 375 l 1
 250 375 l 1
 250 250 l 1
 125 250 l 1
625 250 m 1
 625 375 l 1
 750 375 l 1
 750 250 l 1
 625 250 l 1
250 125 m 1
 250 250 l 1
 750 250 l 1
 750 125 l 1
 250 125 l 1
625 0 m 1
 625 125 l 1
 750 125 l 1
 750 0 l 1
 625 0 l 1
250 -125 m 1
 250 0 l 1
 625 0 l 1
 625 -125 l 1
 250 -125 l 1
EndSplineSet
EndChar

StartChar: uni2010
Encoding: 8208 8208 191
Width: 875
Flags: HW
LayerCount: 2
Back
Fore
SplineSet
125 375 m 1
 125 500 l 1
 750 500 l 1
 750 375 l 1
 125 375 l 1
EndSplineSet
EndChar

StartChar: uni2011
Encoding: 8209 8209 192
Width: 875
Flags: HW
LayerCount: 2
Back
Fore
SplineSet
125 375 m 1
 125 500 l 1
 750 500 l 1
 750 375 l 1
 125 375 l 1
EndSplineSet
EndChar

StartChar: figuredash
Encoding: 8210 8210 193
Width: 875
Flags: HW
LayerCount: 2
Back
Fore
SplineSet
125 375 m 1
 125 500 l 1
 750 500 l 1
 750 375 l 1
 125 375 l 1
EndSplineSet
EndChar

StartChar: endash
Encoding: 8211 8211 194
Width: 875
Flags: HW
LayerCount: 2
Back
Fore
SplineSet
125 375 m 1
 125 500 l 1
 750 500 l 1
 750 375 l 1
 125 375 l 1
EndSplineSet
EndChar

StartChar: emdash
Encoding: 8212 8212 195
Width: 875
Flags: HW
LayerCount: 2
Back
Fore
SplineSet
0 375 m 1
 0 500 l 1
 875 500 l 1
 875 375 l 1
 0 375 l 1
EndSplineSet
EndChar

StartChar: uni2015
Encoding: 8213 8213 196
Width: 875
Flags: HW
LayerCount: 2
Back
Fore
SplineSet
0 375 m 1
 0 500 l 1
 875 500 l 1
 875 375 l 1
 0 375 l 1
EndSplineSet
EndChar

StartChar: uni2016
Encoding: 8214 8214 197
Width: 875
Flags: HW
LayerCount: 2
Back
Fore
SplineSet
250 750 m 1
 250 875 l 1
 375 875 l 1
 375 750 l 1
 250 750 l 1
500 750 m 1
 500 875 l 1
 625 875 l 1
 625 750 l 1
 500 750 l 1
250 625 m 1
 250 750 l 1
 375 750 l 1
 375 625 l 1
 250 625 l 1
500 625 m 1
 500 750 l 1
 625 750 l 1
 625 625 l 1
 500 625 l 1
250 500 m 1
 250 625 l 1
 375 625 l 1
 375 500 l 1
 250 500 l 1
500 500 m 1
 500 625 l 1
 625 625 l 1
 625 500 l 1
 500 500 l 1
250 375 m 1
 250 500 l 1
 375 500 l 1
 375 375 l 1
 250 375 l 1
500 375 m 1
 500 500 l 1
 625 500 l 1
 625 375 l 1
 500 375 l 1
250 250 m 1
 250 375 l 1
 375 375 l 1
 375 250 l 1
 250 250 l 1
500 250 m 1
 500 375 l 1
 625 375 l 1
 625 250 l 1
 500 250 l 1
250 125 m 1
 250 250 l 1
 375 250 l 1
 375 125 l 1
 250 125 l 1
500 125 m 1
 500 250 l 1
 625 250 l 1
 625 125 l 1
 500 125 l 1
250 0 m 1
 250 125 l 1
 375 125 l 1
 375 0 l 1
 250 0 l 1
500 0 m 1
 500 125 l 1
 625 125 l 1
 625 0 l 1
 500 0 l 1
250 -125 m 1
 250 0 l 1
 375 0 l 1
 375 -125 l 1
 250 -125 l 1
500 -125 m 1
 500 0 l 1
 625 0 l 1
 625 -125 l 1
 500 -125 l 1
EndSplineSet
EndChar

StartChar: underscoredbl
Encoding: 8215 8215 198
Width: 875
Flags: HW
LayerCount: 2
Back
Fore
SplineSet
0 125 m 1
 0 250 l 1
 875 250 l 1
 875 125 l 1
 0 125 l 1
0 -125 m 1
 0 0 l 1
 875 0 l 1
 875 -125 l 1
 0 -125 l 1
EndSplineSet
EndChar

StartChar: quoteleft
Encoding: 8216 8216 199
Width: 875
Flags: HW
LayerCount: 2
Back
Fore
SplineSet
250 750 m 1
 250 875 l 1
 375 875 l 1
 375 750 l 1
 250 750 l 1
375 625 m 1
 375 750 l 1
 500 750 l 1
 500 625 l 1
 375 625 l 1
EndSplineSet
EndChar

StartChar: quoteright
Encoding: 8217 8217 200
Width: 875
Flags: HW
LayerCount: 2
Back
Fore
SplineSet
500 750 m 1
 500 875 l 1
 625 875 l 1
 625 750 l 1
 500 750 l 1
375 625 m 1
 375 750 l 1
 500 750 l 1
 500 625 l 1
 375 625 l 1
EndSplineSet
EndChar

StartChar: quotesinglbase
Encoding: 8218 8218 201
Width: 875
Flags: HW
LayerCount: 2
Back
Fore
SplineSet
375 0 m 1
 375 125 l 1
 500 125 l 1
 500 0 l 1
 375 0 l 1
250 -125 m 1
 250 0 l 1
 375 0 l 1
 375 -125 l 1
 250 -125 l 1
EndSplineSet
EndChar

StartChar: quotereversed
Encoding: 8219 8219 202
Width: 875
Flags: HW
LayerCount: 2
Back
Fore
SplineSet
375 750 m 1
 375 875 l 1
 500 875 l 1
 500 750 l 1
 375 750 l 1
500 625 m 1
 500 750 l 1
 625 750 l 1
 625 625 l 1
 500 625 l 1
EndSplineSet
EndChar

StartChar: quotedblleft
Encoding: 8220 8220 203
Width: 875
Flags: HW
LayerCount: 2
Back
Fore
SplineSet
125 750 m 1
 125 875 l 1
 250 875 l 1
 250 750 l 1
 125 750 l 1
500 750 m 1
 500 875 l 1
 625 875 l 1
 625 750 l 1
 500 750 l 1
250 625 m 1
 250 750 l 1
 375 750 l 1
 375 625 l 1
 250 625 l 1
625 625 m 1
 625 750 l 1
 750 750 l 1
 750 625 l 1
 625 625 l 1
EndSplineSet
EndChar

StartChar: quotedblright
Encoding: 8221 8221 204
Width: 875
Flags: HW
LayerCount: 2
Back
Fore
SplineSet
250 750 m 1
 250 875 l 1
 375 875 l 1
 375 750 l 1
 250 750 l 1
625 750 m 1
 625 875 l 1
 750 875 l 1
 750 750 l 1
 625 750 l 1
125 625 m 1
 125 750 l 1
 250 750 l 1
 250 625 l 1
 125 625 l 1
500 625 m 1
 500 750 l 1
 625 750 l 1
 625 625 l 1
 500 625 l 1
EndSplineSet
EndChar

StartChar: quotedblbase
Encoding: 8222 8222 205
Width: 875
Flags: HW
LayerCount: 2
Back
Fore
SplineSet
250 0 m 1
 250 125 l 1
 375 125 l 1
 375 0 l 1
 250 0 l 1
625 0 m 1
 625 125 l 1
 750 125 l 1
 750 0 l 1
 625 0 l 1
125 -125 m 1
 125 0 l 1
 250 0 l 1
 250 -125 l 1
 125 -125 l 1
500 -125 m 1
 500 0 l 1
 625 0 l 1
 625 -125 l 1
 500 -125 l 1
EndSplineSet
EndChar

StartChar: uni201F
Encoding: 8223 8223 206
Width: 875
Flags: HW
LayerCount: 2
Back
Fore
SplineSet
125 750 m 1
 125 875 l 1
 250 875 l 1
 250 750 l 1
 125 750 l 1
500 750 m 1
 500 875 l 1
 625 875 l 1
 625 750 l 1
 500 750 l 1
250 625 m 1
 250 750 l 1
 375 750 l 1
 375 625 l 1
 250 625 l 1
625 625 m 1
 625 750 l 1
 750 750 l 1
 750 625 l 1
 625 625 l 1
EndSplineSet
EndChar

StartChar: dagger
Encoding: 8224 8224 207
Width: 875
Flags: HW
LayerCount: 2
Back
Fore
SplineSet
375 750 m 1
 375 875 l 1
 500 875 l 1
 500 750 l 1
 375 750 l 1
375 625 m 1
 375 750 l 1
 500 750 l 1
 500 625 l 1
 375 625 l 1
125 500 m 1
 125 625 l 1
 750 625 l 1
 750 500 l 1
 125 500 l 1
375 375 m 1
 375 500 l 1
 500 500 l 1
 500 375 l 1
 375 375 l 1
375 250 m 1
 375 375 l 1
 500 375 l 1
 500 250 l 1
 375 250 l 1
375 125 m 1
 375 250 l 1
 500 250 l 1
 500 125 l 1
 375 125 l 1
375 0 m 1
 375 125 l 1
 500 125 l 1
 500 0 l 1
 375 0 l 1
EndSplineSet
EndChar

StartChar: daggerdbl
Encoding: 8225 8225 208
Width: 875
Flags: HW
LayerCount: 2
Back
Fore
SplineSet
375 750 m 1
 375 875 l 1
 500 875 l 1
 500 750 l 1
 375 750 l 1
375 625 m 1
 375 750 l 1
 500 750 l 1
 500 625 l 1
 375 625 l 1
125 500 m 1
 125 625 l 1
 750 625 l 1
 750 500 l 1
 125 500 l 1
375 375 m 1
 375 500 l 1
 500 500 l 1
 500 375 l 1
 375 375 l 1
125 250 m 1
 125 375 l 1
 750 375 l 1
 750 250 l 1
 125 250 l 1
375 125 m 1
 375 250 l 1
 500 250 l 1
 500 125 l 1
 375 125 l 1
375 0 m 1
 375 125 l 1
 500 125 l 1
 500 0 l 1
 375 0 l 1
EndSplineSet
EndChar

StartChar: bullet
Encoding: 8226 8226 209
Width: 875
Flags: HW
LayerCount: 2
Back
Fore
SplineSet
250 500 m 1
 250 625 l 1
 625 625 l 1
 625 500 l 1
 250 500 l 1
250 375 m 1
 250 500 l 1
 625 500 l 1
 625 375 l 1
 250 375 l 1
250 250 m 1
 250 375 l 1
 625 375 l 1
 625 250 l 1
 250 250 l 1
EndSplineSet
EndChar

StartChar: uni2023
Encoding: 8227 8227 210
Width: 875
Flags: HW
LayerCount: 2
Back
Fore
SplineSet
250 500 m 1
 250 625 l 1
 500 625 l 1
 500 500 l 1
 250 500 l 1
250 375 m 1
 250 500 l 1
 750 500 l 1
 750 375 l 1
 250 375 l 1
250 250 m 1
 250 375 l 1
 500 375 l 1
 500 250 l 1
 250 250 l 1
EndSplineSet
EndChar

StartChar: onedotenleader
Encoding: 8228 8228 211
Width: 875
Flags: HW
LayerCount: 2
Back
Fore
SplineSet
375 0 m 1
 375 125 l 1
 500 125 l 1
 500 0 l 1
 375 0 l 1
EndSplineSet
EndChar

StartChar: twodotenleader
Encoding: 8229 8229 212
Width: 875
Flags: HW
LayerCount: 2
Back
Fore
SplineSet
250 0 m 1
 250 125 l 1
 375 125 l 1
 375 0 l 1
 250 0 l 1
500 0 m 1
 500 125 l 1
 625 125 l 1
 625 0 l 1
 500 0 l 1
EndSplineSet
EndChar

StartChar: ellipsis
Encoding: 8230 8230 213
Width: 875
Flags: HW
LayerCount: 2
Back
Fore
SplineSet
125 0 m 1
 125 125 l 1
 250 125 l 1
 250 0 l 1
 125 0 l 1
375 0 m 1
 375 125 l 1
 500 125 l 1
 500 0 l 1
 375 0 l 1
625 0 m 1
 625 125 l 1
 750 125 l 1
 750 0 l 1
 625 0 l 1
EndSplineSet
EndChar

StartChar: uni2027
Encoding: 8231 8231 214
Width: 875
Flags: HW
LayerCount: 2
Back
Fore
SplineSet
375 375 m 1
 375 500 l 1
 500 500 l 1
 500 375 l 1
 375 375 l 1
EndSplineSet
EndChar

StartChar: perthousand
Encoding: 8240 8240 215
Width: 875
Flags: HW
LayerCount: 2
Back
Fore
SplineSet
125 750 m 1
 125 875 l 1
 375 875 l 1
 375 750 l 1
 125 750 l 1
125 625 m 1
 125 750 l 1
 375 750 l 1
 375 625 l 1
 125 625 l 1
625 625 m 1
 625 750 l 1
 750 750 l 1
 750 625 l 1
 625 625 l 1
500 500 m 1
 500 625 l 1
 625 625 l 1
 625 500 l 1
 500 500 l 1
375 375 m 1
 375 500 l 1
 500 500 l 1
 500 375 l 1
 375 375 l 1
250 250 m 1
 250 375 l 1
 375 375 l 1
 375 250 l 1
 250 250 l 1
125 125 m 1
 125 250 l 1
 250 250 l 1
 250 125 l 1
 125 125 l 1
375 125 m 1
 375 250 l 1
 500 250 l 1
 500 125 l 1
 375 125 l 1
625 125 m 1
 625 250 l 1
 750 250 l 1
 750 125 l 1
 625 125 l 1
375 0 m 1
 375 125 l 1
 500 125 l 1
 500 0 l 1
 375 0 l 1
625 0 m 1
 625 125 l 1
 750 125 l 1
 750 0 l 1
 625 0 l 1
EndSplineSet
EndChar

StartChar: uni2031
Encoding: 8241 8241 216
Width: 875
Flags: HW
LayerCount: 2
Back
Fore
SplineSet
125 750 m 1
 125 875 l 1
 375 875 l 1
 375 750 l 1
 125 750 l 1
125 625 m 1
 125 750 l 1
 375 750 l 1
 375 625 l 1
 125 625 l 1
625 625 m 1
 625 750 l 1
 750 750 l 1
 750 625 l 1
 625 625 l 1
500 500 m 1
 500 625 l 1
 625 625 l 1
 625 500 l 1
 500 500 l 1
375 375 m 1
 375 500 l 1
 500 500 l 1
 500 375 l 1
 375 375 l 1
250 250 m 1
 250 375 l 1
 375 375 l 1
 375 250 l 1
 250 250 l 1
125 125 m 1
 125 250 l 1
 250 250 l 1
 250 125 l 1
 125 125 l 1
375 125 m 1
 375 250 l 1
 500 250 l 1
 500 125 l 1
 375 125 l 1
625 125 m 1
 625 250 l 1
 750 250 l 1
 750 125 l 1
 625 125 l 1
125 0 m 1
 125 125 l 1
 250 125 l 1
 250 0 l 1
 125 0 l 1
375 0 m 1
 375 125 l 1
 500 125 l 1
 500 0 l 1
 375 0 l 1
625 0 m 1
 625 125 l 1
 750 125 l 1
 750 0 l 1
 625 0 l 1
EndSplineSet
EndChar

StartChar: minute
Encoding: 8242 8242 217
Width: 875
Flags: HW
LayerCount: 2
Back
Fore
SplineSet
375 750 m 1
 375 875 l 1
 500 875 l 1
 500 750 l 1
 375 750 l 1
250 625 m 1
 250 750 l 1
 375 750 l 1
 375 625 l 1
 250 625 l 1
EndSplineSet
EndChar

StartChar: second
Encoding: 8243 8243 218
Width: 875
Flags: HW
LayerCount: 2
Back
Fore
SplineSet
250 750 m 1
 250 875 l 1
 375 875 l 1
 375 750 l 1
 250 750 l 1
625 750 m 1
 625 875 l 1
 750 875 l 1
 750 750 l 1
 625 750 l 1
125 625 m 1
 125 750 l 1
 250 750 l 1
 250 625 l 1
 125 625 l 1
500 625 m 1
 500 750 l 1
 625 750 l 1
 625 625 l 1
 500 625 l 1
EndSplineSet
EndChar

StartChar: uni2034
Encoding: 8244 8244 219
Width: 875
Flags: HW
LayerCount: 2
Back
Fore
SplineSet
125 750 m 1
 125 875 l 1
 250 875 l 1
 250 750 l 1
 125 750 l 1
375 750 m 1
 375 875 l 1
 500 875 l 1
 500 750 l 1
 375 750 l 1
625 750 m 1
 625 875 l 1
 750 875 l 1
 750 750 l 1
 625 750 l 1
0 625 m 1
 0 750 l 1
 125 750 l 1
 125 625 l 1
 0 625 l 1
250 625 m 1
 250 750 l 1
 375 750 l 1
 375 625 l 1
 250 625 l 1
500 625 m 1
 500 750 l 1
 625 750 l 1
 625 625 l 1
 500 625 l 1
EndSplineSet
EndChar

StartChar: uni2035
Encoding: 8245 8245 220
Width: 875
Flags: HW
LayerCount: 2
Back
Fore
SplineSet
250 750 m 1
 250 875 l 1
 375 875 l 1
 375 750 l 1
 250 750 l 1
375 625 m 1
 375 750 l 1
 500 750 l 1
 500 625 l 1
 375 625 l 1
EndSplineSet
EndChar

StartChar: uni2036
Encoding: 8246 8246 221
Width: 875
Flags: HW
LayerCount: 2
Back
Fore
SplineSet
125 750 m 1
 125 875 l 1
 250 875 l 1
 250 750 l 1
 125 750 l 1
500 750 m 1
 500 875 l 1
 625 875 l 1
 625 750 l 1
 500 750 l 1
250 625 m 1
 250 750 l 1
 375 750 l 1
 375 625 l 1
 250 625 l 1
625 625 m 1
 625 750 l 1
 750 750 l 1
 750 625 l 1
 625 625 l 1
EndSplineSet
EndChar

StartChar: uni2037
Encoding: 8247 8247 222
Width: 875
Flags: HW
LayerCount: 2
Back
Fore
SplineSet
0 750 m 1
 0 875 l 1
 125 875 l 1
 125 750 l 1
 0 750 l 1
250 750 m 1
 250 875 l 1
 375 875 l 1
 375 750 l 1
 250 750 l 1
500 750 m 1
 500 875 l 1
 625 875 l 1
 625 750 l 1
 500 750 l 1
125 625 m 1
 125 750 l 1
 250 750 l 1
 250 625 l 1
 125 625 l 1
375 625 m 1
 375 750 l 1
 500 750 l 1
 500 625 l 1
 375 625 l 1
625 625 m 1
 625 750 l 1
 750 750 l 1
 750 625 l 1
 625 625 l 1
EndSplineSet
EndChar

StartChar: uni2038
Encoding: 8248 8248 223
Width: 875
Flags: HW
LayerCount: 2
Back
Fore
SplineSet
375 250 m 1
 375 375 l 1
 500 375 l 1
 500 250 l 1
 375 250 l 1
250 125 m 1
 250 250 l 1
 375 250 l 1
 375 125 l 1
 250 125 l 1
500 125 m 1
 500 250 l 1
 625 250 l 1
 625 125 l 1
 500 125 l 1
125 0 m 1
 125 125 l 1
 250 125 l 1
 250 0 l 1
 125 0 l 1
625 0 m 1
 625 125 l 1
 750 125 l 1
 750 0 l 1
 625 0 l 1
EndSplineSet
EndChar

StartChar: guilsinglleft
Encoding: 8249 8249 224
Width: 875
Flags: HW
LayerCount: 2
Back
Fore
SplineSet
500 750 m 1
 500 875 l 1
 625 875 l 1
 625 750 l 1
 500 750 l 1
375 625 m 1
 375 750 l 1
 500 750 l 1
 500 625 l 1
 375 625 l 1
250 500 m 1
 250 625 l 1
 375 625 l 1
 375 500 l 1
 250 500 l 1
125 375 m 1
 125 500 l 1
 250 500 l 1
 250 375 l 1
 125 375 l 1
250 250 m 1
 250 375 l 1
 375 375 l 1
 375 250 l 1
 250 250 l 1
375 125 m 1
 375 250 l 1
 500 250 l 1
 500 125 l 1
 375 125 l 1
500 0 m 1
 500 125 l 1
 625 125 l 1
 625 0 l 1
 500 0 l 1
EndSplineSet
EndChar

StartChar: guilsinglright
Encoding: 8250 8250 225
Width: 875
Flags: HW
LayerCount: 2
Back
Fore
SplineSet
250 750 m 1
 250 875 l 1
 375 875 l 1
 375 750 l 1
 250 750 l 1
375 625 m 1
 375 750 l 1
 500 750 l 1
 500 625 l 1
 375 625 l 1
500 500 m 1
 500 625 l 1
 625 625 l 1
 625 500 l 1
 500 500 l 1
625 375 m 1
 625 500 l 1
 750 500 l 1
 750 375 l 1
 625 375 l 1
500 250 m 1
 500 375 l 1
 625 375 l 1
 625 250 l 1
 500 250 l 1
375 125 m 1
 375 250 l 1
 500 250 l 1
 500 125 l 1
 375 125 l 1
250 0 m 1
 250 125 l 1
 375 125 l 1
 375 0 l 1
 250 0 l 1
EndSplineSet
EndChar

StartChar: uni203B
Encoding: 8251 8251 226
Width: 875
Flags: HW
LayerCount: 2
Back
Fore
SplineSet
375 750 m 1
 375 875 l 1
 500 875 l 1
 500 750 l 1
 375 750 l 1
125 625 m 1
 125 750 l 1
 250 750 l 1
 250 625 l 1
 125 625 l 1
625 625 m 1
 625 750 l 1
 750 750 l 1
 750 625 l 1
 625 625 l 1
250 500 m 1
 250 625 l 1
 375 625 l 1
 375 500 l 1
 250 500 l 1
500 500 m 1
 500 625 l 1
 625 625 l 1
 625 500 l 1
 500 500 l 1
125 375 m 1
 125 500 l 1
 250 500 l 1
 250 375 l 1
 125 375 l 1
375 375 m 1
 375 500 l 1
 500 500 l 1
 500 375 l 1
 375 375 l 1
625 375 m 1
 625 500 l 1
 750 500 l 1
 750 375 l 1
 625 375 l 1
250 250 m 1
 250 375 l 1
 375 375 l 1
 375 250 l 1
 250 250 l 1
500 250 m 1
 500 375 l 1
 625 375 l 1
 625 250 l 1
 500 250 l 1
125 125 m 1
 125 250 l 1
 250 250 l 1
 250 125 l 1
 125 125 l 1
625 125 m 1
 625 250 l 1
 750 250 l 1
 750 125 l 1
 625 125 l 1
375 0 m 1
 375 125 l 1
 500 125 l 1
 500 0 l 1
 375 0 l 1
EndSplineSet
EndChar

StartChar: exclamdbl
Encoding: 8252 8252 227
Width: 875
Flags: HW
LayerCount: 2
Back
Fore
SplineSet
250 750 m 1
 250 875 l 1
 375 875 l 1
 375 750 l 1
 250 750 l 1
500 750 m 1
 500 875 l 1
 625 875 l 1
 625 750 l 1
 500 750 l 1
250 625 m 1
 250 750 l 1
 375 750 l 1
 375 625 l 1
 250 625 l 1
500 625 m 1
 500 750 l 1
 625 750 l 1
 625 625 l 1
 500 625 l 1
250 500 m 1
 250 625 l 1
 375 625 l 1
 375 500 l 1
 250 500 l 1
500 500 m 1
 500 625 l 1
 625 625 l 1
 625 500 l 1
 500 500 l 1
250 375 m 1
 250 500 l 1
 375 500 l 1
 375 375 l 1
 250 375 l 1
500 375 m 1
 500 500 l 1
 625 500 l 1
 625 375 l 1
 500 375 l 1
250 250 m 1
 250 375 l 1
 375 375 l 1
 375 250 l 1
 250 250 l 1
500 250 m 1
 500 375 l 1
 625 375 l 1
 625 250 l 1
 500 250 l 1
250 0 m 1
 250 125 l 1
 375 125 l 1
 375 0 l 1
 250 0 l 1
500 0 m 1
 500 125 l 1
 625 125 l 1
 625 0 l 1
 500 0 l 1
EndSplineSet
EndChar

StartChar: uni203D
Encoding: 8253 8253 228
Width: 875
Flags: HW
LayerCount: 2
Back
Fore
SplineSet
250 750 m 1
 250 875 l 1
 625 875 l 1
 625 750 l 1
 250 750 l 1
125 625 m 1
 125 750 l 1
 250 750 l 1
 250 625 l 1
 125 625 l 1
375 625 m 1
 375 750 l 1
 500 750 l 1
 500 625 l 1
 375 625 l 1
625 625 m 1
 625 750 l 1
 750 750 l 1
 750 625 l 1
 625 625 l 1
375 500 m 1
 375 625 l 1
 625 625 l 1
 625 500 l 1
 375 500 l 1
375 375 m 1
 375 500 l 1
 500 500 l 1
 500 375 l 1
 375 375 l 1
375 250 m 1
 375 375 l 1
 500 375 l 1
 500 250 l 1
 375 250 l 1
375 0 m 1
 375 125 l 1
 500 125 l 1
 500 0 l 1
 375 0 l 1
EndSplineSet
EndChar

StartChar: uni203E
Encoding: 8254 8254 229
Width: 875
Flags: HW
LayerCount: 2
Back
Fore
SplineSet
0 750 m 1
 0 875 l 1
 875 875 l 1
 875 750 l 1
 0 750 l 1
EndSplineSet
EndChar

StartChar: uni203F
Encoding: 8255 8255 230
Width: 875
Flags: HW
LayerCount: 2
Back
Fore
SplineSet
125 125 m 1
 125 250 l 1
 250 250 l 1
 250 125 l 1
 125 125 l 1
625 125 m 1
 625 250 l 1
 750 250 l 1
 750 125 l 1
 625 125 l 1
250 0 m 1
 250 125 l 1
 625 125 l 1
 625 0 l 1
 250 0 l 1
EndSplineSet
EndChar

StartChar: uni2040
Encoding: 8256 8256 231
Width: 875
Flags: HW
LayerCount: 2
Back
Fore
SplineSet
250 750 m 1
 250 875 l 1
 625 875 l 1
 625 750 l 1
 250 750 l 1
125 625 m 1
 125 750 l 1
 250 750 l 1
 250 625 l 1
 125 625 l 1
625 625 m 1
 625 750 l 1
 750 750 l 1
 750 625 l 1
 625 625 l 1
EndSplineSet
EndChar

StartChar: uni2041
Encoding: 8257 8257 232
Width: 875
Flags: HW
LayerCount: 2
Back
Fore
SplineSet
625 500 m 1
 625 625 l 1
 750 625 l 1
 750 500 l 1
 625 500 l 1
500 375 m 1
 500 500 l 1
 625 500 l 1
 625 375 l 1
 500 375 l 1
375 250 m 1
 375 375 l 1
 500 375 l 1
 500 250 l 1
 375 250 l 1
250 125 m 1
 250 250 l 1
 375 250 l 1
 375 125 l 1
 250 125 l 1
500 125 m 1
 500 250 l 1
 625 250 l 1
 625 125 l 1
 500 125 l 1
125 0 m 1
 125 125 l 1
 250 125 l 1
 250 0 l 1
 125 0 l 1
625 0 m 1
 625 125 l 1
 750 125 l 1
 750 0 l 1
 625 0 l 1
EndSplineSet
EndChar

StartChar: uni2042
Encoding: 8258 8258 233
Width: 875
Flags: HW
LayerCount: 2
Back
Fore
SplineSet
250 750 m 1
 250 875 l 1
 375 875 l 1
 375 750 l 1
 250 750 l 1
500 750 m 1
 500 875 l 1
 625 875 l 1
 625 750 l 1
 500 750 l 1
375 625 m 1
 375 750 l 1
 500 750 l 1
 500 625 l 1
 375 625 l 1
250 500 m 1
 250 625 l 1
 375 625 l 1
 375 500 l 1
 250 500 l 1
500 500 m 1
 500 625 l 1
 625 625 l 1
 625 500 l 1
 500 500 l 1
0 250 m 1
 0 375 l 1
 125 375 l 1
 125 250 l 1
 0 250 l 1
250 250 m 1
 250 375 l 1
 375 375 l 1
 375 250 l 1
 250 250 l 1
500 250 m 1
 500 375 l 1
 625 375 l 1
 625 250 l 1
 500 250 l 1
750 250 m 1
 750 375 l 1
 875 375 l 1
 875 250 l 1
 750 250 l 1
125 125 m 1
 125 250 l 1
 250 250 l 1
 250 125 l 1
 125 125 l 1
625 125 m 1
 625 250 l 1
 750 250 l 1
 750 125 l 1
 625 125 l 1
0 0 m 1
 0 125 l 1
 125 125 l 1
 125 0 l 1
 0 0 l 1
250 0 m 1
 250 125 l 1
 375 125 l 1
 375 0 l 1
 250 0 l 1
500 0 m 1
 500 125 l 1
 625 125 l 1
 625 0 l 1
 500 0 l 1
750 0 m 1
 750 125 l 1
 875 125 l 1
 875 0 l 1
 750 0 l 1
EndSplineSet
EndChar

StartChar: uni2043
Encoding: 8259 8259 234
Width: 875
Flags: HW
LayerCount: 2
Back
Fore
SplineSet
125 375 m 1
 125 500 l 1
 750 500 l 1
 750 375 l 1
 125 375 l 1
EndSplineSet
EndChar

StartChar: fraction
Encoding: 8260 8260 235
Width: 875
Flags: HW
LayerCount: 2
Back
Fore
SplineSet
750 750 m 1
 750 875 l 1
 875 875 l 1
 875 750 l 1
 750 750 l 1
625 625 m 1
 625 750 l 1
 750 750 l 1
 750 625 l 1
 625 625 l 1
500 500 m 1
 500 625 l 1
 625 625 l 1
 625 500 l 1
 500 500 l 1
375 375 m 1
 375 500 l 1
 500 500 l 1
 500 375 l 1
 375 375 l 1
250 250 m 1
 250 375 l 1
 375 375 l 1
 375 250 l 1
 250 250 l 1
125 125 m 1
 125 250 l 1
 250 250 l 1
 250 125 l 1
 125 125 l 1
0 0 m 1
 0 125 l 1
 125 125 l 1
 125 0 l 1
 0 0 l 1
EndSplineSet
EndChar

StartChar: uni2045
Encoding: 8261 8261 236
Width: 875
Flags: HW
LayerCount: 2
Back
Fore
SplineSet
125 750 m 1
 125 875 l 1
 750 875 l 1
 750 750 l 1
 125 750 l 1
125 625 m 1
 125 750 l 1
 375 750 l 1
 375 625 l 1
 125 625 l 1
125 500 m 1
 125 625 l 1
 375 625 l 1
 375 500 l 1
 125 500 l 1
125 375 m 1
 125 500 l 1
 750 500 l 1
 750 375 l 1
 125 375 l 1
125 250 m 1
 125 375 l 1
 375 375 l 1
 375 250 l 1
 125 250 l 1
125 125 m 1
 125 250 l 1
 375 250 l 1
 375 125 l 1
 125 125 l 1
125 0 m 1
 125 125 l 1
 750 125 l 1
 750 0 l 1
 125 0 l 1
EndSplineSet
EndChar

StartChar: uni2046
Encoding: 8262 8262 237
Width: 875
Flags: HW
LayerCount: 2
Back
Fore
SplineSet
125 750 m 1
 125 875 l 1
 750 875 l 1
 750 750 l 1
 125 750 l 1
500 625 m 1
 500 750 l 1
 750 750 l 1
 750 625 l 1
 500 625 l 1
500 500 m 1
 500 625 l 1
 750 625 l 1
 750 500 l 1
 500 500 l 1
125 375 m 1
 125 500 l 1
 750 500 l 1
 750 375 l 1
 125 375 l 1
500 250 m 1
 500 375 l 1
 750 375 l 1
 750 250 l 1
 500 250 l 1
500 125 m 1
 500 250 l 1
 750 250 l 1
 750 125 l 1
 500 125 l 1
125 0 m 1
 125 125 l 1
 750 125 l 1
 750 0 l 1
 125 0 l 1
EndSplineSet
EndChar

StartChar: uni2047
Encoding: 8263 8263 238
Width: 875
Flags: HW
LayerCount: 2
Back
Fore
SplineSet
0 750 m 1
 0 875 l 1
 250 875 l 1
 250 750 l 1
 0 750 l 1
500 750 m 1
 500 875 l 1
 750 875 l 1
 750 750 l 1
 500 750 l 1
250 625 m 1
 250 750 l 1
 375 750 l 1
 375 625 l 1
 250 625 l 1
750 625 m 1
 750 750 l 1
 875 750 l 1
 875 625 l 1
 750 625 l 1
125 500 m 1
 125 625 l 1
 250 625 l 1
 250 500 l 1
 125 500 l 1
625 500 m 1
 625 625 l 1
 750 625 l 1
 750 500 l 1
 625 500 l 1
125 375 m 1
 125 500 l 1
 250 500 l 1
 250 375 l 1
 125 375 l 1
625 375 m 1
 625 500 l 1
 750 500 l 1
 750 375 l 1
 625 375 l 1
125 250 m 1
 125 375 l 1
 250 375 l 1
 250 250 l 1
 125 250 l 1
625 250 m 1
 625 375 l 1
 750 375 l 1
 750 250 l 1
 625 250 l 1
125 0 m 1
 125 125 l 1
 250 125 l 1
 250 0 l 1
 125 0 l 1
625 0 m 1
 625 125 l 1
 750 125 l 1
 750 0 l 1
 625 0 l 1
EndSplineSet
EndChar

StartChar: uni2048
Encoding: 8264 8264 239
Width: 875
Flags: HW
LayerCount: 2
Back
Fore
SplineSet
125 750 m 1
 125 875 l 1
 375 875 l 1
 375 750 l 1
 125 750 l 1
625 750 m 1
 625 875 l 1
 750 875 l 1
 750 750 l 1
 625 750 l 1
375 625 m 1
 375 750 l 1
 500 750 l 1
 500 625 l 1
 375 625 l 1
625 625 m 1
 625 750 l 1
 750 750 l 1
 750 625 l 1
 625 625 l 1
250 500 m 1
 250 625 l 1
 375 625 l 1
 375 500 l 1
 250 500 l 1
625 500 m 1
 625 625 l 1
 750 625 l 1
 750 500 l 1
 625 500 l 1
250 375 m 1
 250 500 l 1
 375 500 l 1
 375 375 l 1
 250 375 l 1
625 375 m 1
 625 500 l 1
 750 500 l 1
 750 375 l 1
 625 375 l 1
250 250 m 1
 250 375 l 1
 375 375 l 1
 375 250 l 1
 250 250 l 1
625 250 m 1
 625 375 l 1
 750 375 l 1
 750 250 l 1
 625 250 l 1
250 0 m 1
 250 125 l 1
 375 125 l 1
 375 0 l 1
 250 0 l 1
625 0 m 1
 625 125 l 1
 750 125 l 1
 750 0 l 1
 625 0 l 1
EndSplineSet
EndChar

StartChar: uni2049
Encoding: 8265 8265 240
Width: 875
Flags: HW
LayerCount: 2
Back
Fore
SplineSet
125 750 m 1
 125 875 l 1
 250 875 l 1
 250 750 l 1
 125 750 l 1
375 750 m 1
 375 875 l 1
 625 875 l 1
 625 750 l 1
 375 750 l 1
125 625 m 1
 125 750 l 1
 250 750 l 1
 250 625 l 1
 125 625 l 1
625 625 m 1
 625 750 l 1
 750 750 l 1
 750 625 l 1
 625 625 l 1
125 500 m 1
 125 625 l 1
 250 625 l 1
 250 500 l 1
 125 500 l 1
500 500 m 1
 500 625 l 1
 625 625 l 1
 625 500 l 1
 500 500 l 1
125 375 m 1
 125 500 l 1
 250 500 l 1
 250 375 l 1
 125 375 l 1
500 375 m 1
 500 500 l 1
 625 500 l 1
 625 375 l 1
 500 375 l 1
125 250 m 1
 125 375 l 1
 250 375 l 1
 250 250 l 1
 125 250 l 1
500 250 m 1
 500 375 l 1
 625 375 l 1
 625 250 l 1
 500 250 l 1
125 0 m 1
 125 125 l 1
 250 125 l 1
 250 0 l 1
 125 0 l 1
500 0 m 1
 500 125 l 1
 625 125 l 1
 625 0 l 1
 500 0 l 1
EndSplineSet
EndChar

StartChar: uni204A
Encoding: 8266 8266 241
Width: 875
Flags: HW
LayerCount: 2
Back
Fore
SplineSet
125 375 m 1
 125 500 l 1
 750 500 l 1
 750 375 l 1
 125 375 l 1
500 250 m 1
 500 375 l 1
 625 375 l 1
 625 250 l 1
 500 250 l 1
375 125 m 1
 375 250 l 1
 500 250 l 1
 500 125 l 1
 375 125 l 1
EndSplineSet
EndChar

StartChar: uni204B
Encoding: 8267 8267 242
Width: 875
Flags: HW
LayerCount: 2
Back
Fore
SplineSet
125 750 m 1
 125 875 l 1
 625 875 l 1
 625 750 l 1
 125 750 l 1
125 625 m 1
 125 750 l 1
 250 750 l 1
 250 625 l 1
 125 625 l 1
375 625 m 1
 375 750 l 1
 500 750 l 1
 500 625 l 1
 375 625 l 1
625 625 m 1
 625 750 l 1
 750 750 l 1
 750 625 l 1
 625 625 l 1
125 500 m 1
 125 625 l 1
 250 625 l 1
 250 500 l 1
 125 500 l 1
375 500 m 1
 375 625 l 1
 500 625 l 1
 500 500 l 1
 375 500 l 1
625 500 m 1
 625 625 l 1
 750 625 l 1
 750 500 l 1
 625 500 l 1
125 375 m 1
 125 500 l 1
 625 500 l 1
 625 375 l 1
 125 375 l 1
125 250 m 1
 125 375 l 1
 250 375 l 1
 250 250 l 1
 125 250 l 1
375 250 m 1
 375 375 l 1
 500 375 l 1
 500 250 l 1
 375 250 l 1
125 125 m 1
 125 250 l 1
 250 250 l 1
 250 125 l 1
 125 125 l 1
375 125 m 1
 375 250 l 1
 500 250 l 1
 500 125 l 1
 375 125 l 1
125 0 m 1
 125 125 l 1
 250 125 l 1
 250 0 l 1
 125 0 l 1
375 0 m 1
 375 125 l 1
 500 125 l 1
 500 0 l 1
 375 0 l 1
EndSplineSet
EndChar

StartChar: uni204C
Encoding: 8268 8268 243
Width: 875
Flags: HW
LayerCount: 2
Back
Fore
SplineSet
375 500 m 1
 375 625 l 1
 625 625 l 1
 625 500 l 1
 375 500 l 1
250 375 m 1
 250 500 l 1
 625 500 l 1
 625 375 l 1
 250 375 l 1
375 250 m 1
 375 375 l 1
 625 375 l 1
 625 250 l 1
 375 250 l 1
EndSplineSet
EndChar

StartChar: uni204D
Encoding: 8269 8269 244
Width: 875
Flags: HW
LayerCount: 2
Back
Fore
SplineSet
250 500 m 1
 250 625 l 1
 500 625 l 1
 500 500 l 1
 250 500 l 1
250 375 m 1
 250 500 l 1
 625 500 l 1
 625 375 l 1
 250 375 l 1
250 250 m 1
 250 375 l 1
 500 375 l 1
 500 250 l 1
 250 250 l 1
EndSplineSet
EndChar

StartChar: uni204E
Encoding: 8270 8270 245
Width: 875
Flags: HW
LayerCount: 2
Back
Fore
SplineSet
375 500 m 1
 375 625 l 1
 500 625 l 1
 500 500 l 1
 375 500 l 1
125 375 m 1
 125 500 l 1
 250 500 l 1
 250 375 l 1
 125 375 l 1
375 375 m 1
 375 500 l 1
 500 500 l 1
 500 375 l 1
 375 375 l 1
625 375 m 1
 625 500 l 1
 750 500 l 1
 750 375 l 1
 625 375 l 1
250 250 m 1
 250 375 l 1
 625 375 l 1
 625 250 l 1
 250 250 l 1
125 125 m 1
 125 250 l 1
 250 250 l 1
 250 125 l 1
 125 125 l 1
375 125 m 1
 375 250 l 1
 500 250 l 1
 500 125 l 1
 375 125 l 1
625 125 m 1
 625 250 l 1
 750 250 l 1
 750 125 l 1
 625 125 l 1
375 0 m 1
 375 125 l 1
 500 125 l 1
 500 0 l 1
 375 0 l 1
EndSplineSet
EndChar

StartChar: uni204F
Encoding: 8271 8271 246
Width: 875
Flags: HW
LayerCount: 2
Back
Fore
SplineSet
375 500 m 1
 375 625 l 1
 500 625 l 1
 500 500 l 1
 375 500 l 1
375 250 m 1
 375 375 l 1
 500 375 l 1
 500 250 l 1
 375 250 l 1
375 125 m 1
 375 250 l 1
 500 250 l 1
 500 125 l 1
 375 125 l 1
500 0 m 1
 500 125 l 1
 625 125 l 1
 625 0 l 1
 500 0 l 1
EndSplineSet
EndChar

StartChar: uni2050
Encoding: 8272 8272 247
Width: 875
Flags: HW
LayerCount: 2
Back
Fore
SplineSet
250 750 m 1
 250 875 l 1
 625 875 l 1
 625 750 l 1
 250 750 l 1
125 625 m 1
 125 750 l 1
 250 750 l 1
 250 625 l 1
 125 625 l 1
625 625 m 1
 625 750 l 1
 750 750 l 1
 750 625 l 1
 625 625 l 1
125 125 m 1
 125 250 l 1
 250 250 l 1
 250 125 l 1
 125 125 l 1
625 125 m 1
 625 250 l 1
 750 250 l 1
 750 125 l 1
 625 125 l 1
250 0 m 1
 250 125 l 1
 625 125 l 1
 625 0 l 1
 250 0 l 1
EndSplineSet
EndChar

StartChar: uni2051
Encoding: 8273 8273 248
Width: 875
Flags: HW
LayerCount: 2
Back
Fore
SplineSet
250 750 m 1
 250 875 l 1
 375 875 l 1
 375 750 l 1
 250 750 l 1
500 750 m 1
 500 875 l 1
 625 875 l 1
 625 750 l 1
 500 750 l 1
375 625 m 1
 375 750 l 1
 500 750 l 1
 500 625 l 1
 375 625 l 1
250 500 m 1
 250 625 l 1
 375 625 l 1
 375 500 l 1
 250 500 l 1
500 500 m 1
 500 625 l 1
 625 625 l 1
 625 500 l 1
 500 500 l 1
250 250 m 1
 250 375 l 1
 375 375 l 1
 375 250 l 1
 250 250 l 1
500 250 m 1
 500 375 l 1
 625 375 l 1
 625 250 l 1
 500 250 l 1
375 125 m 1
 375 250 l 1
 500 250 l 1
 500 125 l 1
 375 125 l 1
250 0 m 1
 250 125 l 1
 375 125 l 1
 375 0 l 1
 250 0 l 1
500 0 m 1
 500 125 l 1
 625 125 l 1
 625 0 l 1
 500 0 l 1
EndSplineSet
EndChar

StartChar: uni2052
Encoding: 8274 8274 249
Width: 875
Flags: HW
LayerCount: 2
Back
Fore
SplineSet
125 625 m 1
 125 750 l 1
 250 750 l 1
 250 625 l 1
 125 625 l 1
625 625 m 1
 625 750 l 1
 750 750 l 1
 750 625 l 1
 625 625 l 1
500 500 m 1
 500 625 l 1
 625 625 l 1
 625 500 l 1
 500 500 l 1
375 375 m 1
 375 500 l 1
 500 500 l 1
 500 375 l 1
 375 375 l 1
250 250 m 1
 250 375 l 1
 375 375 l 1
 375 250 l 1
 250 250 l 1
125 125 m 1
 125 250 l 1
 250 250 l 1
 250 125 l 1
 125 125 l 1
625 125 m 1
 625 250 l 1
 750 250 l 1
 750 125 l 1
 625 125 l 1
EndSplineSet
EndChar

StartChar: uni2053
Encoding: 8275 8275 250
Width: 875
Flags: HW
LayerCount: 2
Back
Fore
SplineSet
125 500 m 1
 125 625 l 1
 500 625 l 1
 500 500 l 1
 125 500 l 1
750 500 m 1
 750 625 l 1
 875 625 l 1
 875 500 l 1
 750 500 l 1
0 375 m 1
 0 500 l 1
 125 500 l 1
 125 375 l 1
 0 375 l 1
375 375 m 1
 375 500 l 1
 750 500 l 1
 750 375 l 1
 375 375 l 1
EndSplineSet
EndChar

StartChar: uni2054
Encoding: 8276 8276 251
Width: 875
Flags: HW
LayerCount: 2
Back
Fore
SplineSet
250 125 m 1
 250 250 l 1
 625 250 l 1
 625 125 l 1
 250 125 l 1
125 0 m 1
 125 125 l 1
 250 125 l 1
 250 0 l 1
 125 0 l 1
625 0 m 1
 625 125 l 1
 750 125 l 1
 750 0 l 1
 625 0 l 1
EndSplineSet
EndChar

StartChar: uni2055
Encoding: 8277 8277 252
Width: 875
Flags: HW
LayerCount: 2
Back
Fore
SplineSet
375 750 m 1
 375 875 l 1
 500 875 l 1
 500 750 l 1
 375 750 l 1
125 625 m 1
 125 750 l 1
 250 750 l 1
 250 625 l 1
 125 625 l 1
375 625 m 1
 375 750 l 1
 500 750 l 1
 500 625 l 1
 375 625 l 1
625 625 m 1
 625 750 l 1
 750 750 l 1
 750 625 l 1
 625 625 l 1
250 500 m 1
 250 625 l 1
 625 625 l 1
 625 500 l 1
 250 500 l 1
0 375 m 1
 0 500 l 1
 875 500 l 1
 875 375 l 1
 0 375 l 1
250 250 m 1
 250 375 l 1
 625 375 l 1
 625 250 l 1
 250 250 l 1
125 125 m 1
 125 250 l 1
 250 250 l 1
 250 125 l 1
 125 125 l 1
375 125 m 1
 375 250 l 1
 500 250 l 1
 500 125 l 1
 375 125 l 1
625 125 m 1
 625 250 l 1
 750 250 l 1
 750 125 l 1
 625 125 l 1
375 0 m 1
 375 125 l 1
 500 125 l 1
 500 0 l 1
 375 0 l 1
EndSplineSet
EndChar

StartChar: uni2056
Encoding: 8278 8278 253
Width: 875
Flags: HW
LayerCount: 2
Back
Fore
SplineSet
625 625 m 1
 625 750 l 1
 750 750 l 1
 750 625 l 1
 625 625 l 1
125 375 m 1
 125 500 l 1
 250 500 l 1
 250 375 l 1
 125 375 l 1
625 125 m 1
 625 250 l 1
 750 250 l 1
 750 125 l 1
 625 125 l 1
EndSplineSet
EndChar

StartChar: uni2057
Encoding: 8279 8279 254
Width: 875
Flags: HW
LayerCount: 2
Back
Fore
SplineSet
0 750 m 1
 0 875 l 1
 125 875 l 1
 125 750 l 1
 0 750 l 1
250 750 m 1
 250 875 l 1
 375 875 l 1
 375 750 l 1
 250 750 l 1
500 750 m 1
 500 875 l 1
 625 875 l 1
 625 750 l 1
 500 750 l 1
750 750 m 1
 750 875 l 1
 875 875 l 1
 875 750 l 1
 750 750 l 1
0 625 m 1
 0 750 l 1
 125 750 l 1
 125 625 l 1
 0 625 l 1
250 625 m 1
 250 750 l 1
 375 750 l 1
 375 625 l 1
 250 625 l 1
500 625 m 1
 500 750 l 1
 625 750 l 1
 625 625 l 1
 500 625 l 1
750 625 m 1
 750 750 l 1
 875 750 l 1
 875 625 l 1
 750 625 l 1
EndSplineSet
EndChar

StartChar: uni2058
Encoding: 8280 8280 255
Width: 875
Flags: HW
LayerCount: 2
Back
Fore
SplineSet
375 625 m 1
 375 750 l 1
 500 750 l 1
 500 625 l 1
 375 625 l 1
125 375 m 1
 125 500 l 1
 250 500 l 1
 250 375 l 1
 125 375 l 1
625 375 m 1
 625 500 l 1
 750 500 l 1
 750 375 l 1
 625 375 l 1
375 125 m 1
 375 250 l 1
 500 250 l 1
 500 125 l 1
 375 125 l 1
EndSplineSet
EndChar

StartChar: uni2059
Encoding: 8281 8281 256
Width: 875
Flags: HW
LayerCount: 2
Back
Fore
SplineSet
125 625 m 1
 125 750 l 1
 250 750 l 1
 250 625 l 1
 125 625 l 1
625 625 m 1
 625 750 l 1
 750 750 l 1
 750 625 l 1
 625 625 l 1
375 375 m 1
 375 500 l 1
 500 500 l 1
 500 375 l 1
 375 375 l 1
125 125 m 1
 125 250 l 1
 250 250 l 1
 250 125 l 1
 125 125 l 1
625 125 m 1
 625 250 l 1
 750 250 l 1
 750 125 l 1
 625 125 l 1
EndSplineSet
EndChar

StartChar: uni205A
Encoding: 8282 8282 257
Width: 875
Flags: HW
LayerCount: 2
Back
Fore
SplineSet
375 625 m 1
 375 750 l 1
 500 750 l 1
 500 625 l 1
 375 625 l 1
375 125 m 1
 375 250 l 1
 500 250 l 1
 500 125 l 1
 375 125 l 1
EndSplineSet
EndChar

StartChar: uni205B
Encoding: 8283 8283 258
Width: 875
Flags: HW
LayerCount: 2
Back
Fore
SplineSet
375 750 m 1
 375 875 l 1
 500 875 l 1
 500 750 l 1
 375 750 l 1
125 375 m 1
 125 500 l 1
 250 500 l 1
 250 375 l 1
 125 375 l 1
625 375 m 1
 625 500 l 1
 750 500 l 1
 750 375 l 1
 625 375 l 1
375 0 m 1
 375 125 l 1
 500 125 l 1
 500 0 l 1
 375 0 l 1
EndSplineSet
EndChar

StartChar: uni205C
Encoding: 8284 8284 259
Width: 875
Flags: HW
LayerCount: 2
Back
Fore
SplineSet
375 750 m 1
 375 875 l 1
 500 875 l 1
 500 750 l 1
 375 750 l 1
125 625 m 1
 125 750 l 1
 250 750 l 1
 250 625 l 1
 125 625 l 1
375 625 m 1
 375 750 l 1
 500 750 l 1
 500 625 l 1
 375 625 l 1
625 625 m 1
 625 750 l 1
 750 750 l 1
 750 625 l 1
 625 625 l 1
375 500 m 1
 375 625 l 1
 500 625 l 1
 500 500 l 1
 375 500 l 1
0 375 m 1
 0 500 l 1
 875 500 l 1
 875 375 l 1
 0 375 l 1
375 250 m 1
 375 375 l 1
 500 375 l 1
 500 250 l 1
 375 250 l 1
125 125 m 1
 125 250 l 1
 250 250 l 1
 250 125 l 1
 125 125 l 1
375 125 m 1
 375 250 l 1
 500 250 l 1
 500 125 l 1
 375 125 l 1
625 125 m 1
 625 250 l 1
 750 250 l 1
 750 125 l 1
 625 125 l 1
375 0 m 1
 375 125 l 1
 500 125 l 1
 500 0 l 1
 375 0 l 1
EndSplineSet
EndChar

StartChar: uni205D
Encoding: 8285 8285 260
Width: 875
Flags: HW
LayerCount: 2
Back
Fore
SplineSet
375 750 m 1
 375 875 l 1
 500 875 l 1
 500 750 l 1
 375 750 l 1
375 375 m 1
 375 500 l 1
 500 500 l 1
 500 375 l 1
 375 375 l 1
375 0 m 1
 375 125 l 1
 500 125 l 1
 500 0 l 1
 375 0 l 1
EndSplineSet
EndChar

StartChar: uni205E
Encoding: 8286 8286 261
Width: 875
Flags: HW
LayerCount: 2
Back
Fore
SplineSet
375 750 m 1
 375 875 l 1
 500 875 l 1
 500 750 l 1
 375 750 l 1
375 500 m 1
 375 625 l 1
 500 625 l 1
 500 500 l 1
 375 500 l 1
375 250 m 1
 375 375 l 1
 500 375 l 1
 500 250 l 1
 375 250 l 1
375 0 m 1
 375 125 l 1
 500 125 l 1
 500 0 l 1
 375 0 l 1
EndSplineSet
EndChar

StartChar: Euro
Encoding: 8364 8364 262
Width: 875
Flags: HW
LayerCount: 2
Back
Fore
SplineSet
250 750 m 1
 250 875 l 1
 625 875 l 1
 625 750 l 1
 250 750 l 1
125 625 m 1
 125 750 l 1
 250 750 l 1
 250 625 l 1
 125 625 l 1
625 625 m 1
 625 750 l 1
 750 750 l 1
 750 625 l 1
 625 625 l 1
0 500 m 1
 0 625 l 1
 500 625 l 1
 500 500 l 1
 0 500 l 1
125 375 m 1
 125 500 l 1
 250 500 l 1
 250 375 l 1
 125 375 l 1
0 250 m 1
 0 375 l 1
 500 375 l 1
 500 250 l 1
 0 250 l 1
125 125 m 1
 125 250 l 1
 250 250 l 1
 250 125 l 1
 125 125 l 1
625 125 m 1
 625 250 l 1
 750 250 l 1
 750 125 l 1
 625 125 l 1
250 0 m 1
 250 125 l 1
 625 125 l 1
 625 0 l 1
 250 0 l 1
EndSplineSet
EndChar

StartChar: uni0394
Encoding: 916 916 263
Width: 875
Flags: HW
LayerCount: 2
Back
Fore
SplineSet
375 750 m 1
 375 875 l 1
 500 875 l 1
 500 750 l 1
 375 750 l 1
375 625 m 1
 375 750 l 1
 500 750 l 1
 500 625 l 1
 375 625 l 1
250 500 m 1
 250 625 l 1
 375 625 l 1
 375 500 l 1
 250 500 l 1
500 500 m 1
 500 625 l 1
 625 625 l 1
 625 500 l 1
 500 500 l 1
250 375 m 1
 250 500 l 1
 375 500 l 1
 375 375 l 1
 250 375 l 1
500 375 m 1
 500 500 l 1
 625 500 l 1
 625 375 l 1
 500 375 l 1
250 250 m 1
 250 375 l 1
 375 375 l 1
 375 250 l 1
 250 250 l 1
500 250 m 1
 500 375 l 1
 625 375 l 1
 625 250 l 1
 500 250 l 1
125 125 m 1
 125 250 l 1
 250 250 l 1
 250 125 l 1
 125 125 l 1
625 125 m 1
 625 250 l 1
 750 250 l 1
 750 125 l 1
 625 125 l 1
125 0 m 1
 125 125 l 1
 750 125 l 1
 750 0 l 1
 125 0 l 1
EndSplineSet
EndChar

StartChar: uni03A9
Encoding: 937 937 264
Width: 875
Flags: HW
LayerCount: 2
Back
Fore
SplineSet
250 750 m 1
 250 875 l 1
 625 875 l 1
 625 750 l 1
 250 750 l 1
125 625 m 1
 125 750 l 1
 250 750 l 1
 250 625 l 1
 125 625 l 1
625 625 m 1
 625 750 l 1
 750 750 l 1
 750 625 l 1
 625 625 l 1
125 500 m 1
 125 625 l 1
 250 625 l 1
 250 500 l 1
 125 500 l 1
625 500 m 1
 625 625 l 1
 750 625 l 1
 750 500 l 1
 625 500 l 1
125 375 m 1
 125 500 l 1
 250 500 l 1
 250 375 l 1
 125 375 l 1
625 375 m 1
 625 500 l 1
 750 500 l 1
 750 375 l 1
 625 375 l 1
125 250 m 1
 125 375 l 1
 250 375 l 1
 250 250 l 1
 125 250 l 1
625 250 m 1
 625 375 l 1
 750 375 l 1
 750 250 l 1
 625 250 l 1
250 125 m 1
 250 250 l 1
 375 250 l 1
 375 125 l 1
 250 125 l 1
500 125 m 1
 500 250 l 1
 625 250 l 1
 625 125 l 1
 500 125 l 1
125 0 m 1
 125 125 l 1
 375 125 l 1
 375 0 l 1
 125 0 l 1
500 0 m 1
 500 125 l 1
 750 125 l 1
 750 0 l 1
 500 0 l 1
EndSplineSet
EndChar

StartChar: pi
Encoding: 960 960 265
Width: 875
Flags: HW
LayerCount: 2
Back
Fore
SplineSet
125 500 m 1
 125 625 l 1
 750 625 l 1
 750 500 l 1
 125 500 l 1
250 375 m 1
 250 500 l 1
 375 500 l 1
 375 375 l 1
 250 375 l 1
500 375 m 1
 500 500 l 1
 625 500 l 1
 625 375 l 1
 500 375 l 1
250 250 m 1
 250 375 l 1
 375 375 l 1
 375 250 l 1
 250 250 l 1
500 250 m 1
 500 375 l 1
 625 375 l 1
 625 250 l 1
 500 250 l 1
250 125 m 1
 250 250 l 1
 375 250 l 1
 375 125 l 1
 250 125 l 1
500 125 m 1
 500 250 l 1
 625 250 l 1
 625 125 l 1
 500 125 l 1
250 0 m 1
 250 125 l 1
 375 125 l 1
 375 0 l 1
 250 0 l 1
500 0 m 1
 500 125 l 1
 625 125 l 1
 625 0 l 1
 500 0 l 1
EndSplineSet
EndChar

StartChar: uni2117
Encoding: 8471 8471 266
Width: 875
Flags: HW
LayerCount: 2
Back
Fore
SplineSet
250 750 m 1
 250 875 l 1
 625 875 l 1
 625 750 l 1
 250 750 l 1
125 625 m 1
 125 750 l 1
 250 750 l 1
 250 625 l 1
 125 625 l 1
625 625 m 1
 625 750 l 1
 750 750 l 1
 750 625 l 1
 625 625 l 1
0 500 m 1
 0 625 l 1
 125 625 l 1
 125 500 l 1
 0 500 l 1
250 500 m 1
 250 625 l 1
 625 625 l 1
 625 500 l 1
 250 500 l 1
750 500 m 1
 750 625 l 1
 875 625 l 1
 875 500 l 1
 750 500 l 1
0 375 m 1
 0 500 l 1
 125 500 l 1
 125 375 l 1
 0 375 l 1
250 375 m 1
 250 500 l 1
 625 500 l 1
 625 375 l 1
 250 375 l 1
750 375 m 1
 750 500 l 1
 875 500 l 1
 875 375 l 1
 750 375 l 1
0 250 m 1
 0 375 l 1
 125 375 l 1
 125 250 l 1
 0 250 l 1
250 250 m 1
 250 375 l 1
 375 375 l 1
 375 250 l 1
 250 250 l 1
750 250 m 1
 750 375 l 1
 875 375 l 1
 875 250 l 1
 750 250 l 1
125 125 m 1
 125 250 l 1
 250 250 l 1
 250 125 l 1
 125 125 l 1
625 125 m 1
 625 250 l 1
 750 250 l 1
 750 125 l 1
 625 125 l 1
250 0 m 1
 250 125 l 1
 625 125 l 1
 625 0 l 1
 250 0 l 1
EndSplineSet
EndChar

StartChar: uni2120
Encoding: 8480 8480 267
Width: 875
Flags: HW
LayerCount: 2
Back
Fore
SplineSet
125 750 m 1
 125 875 l 1
 500 875 l 1
 500 750 l 1
 125 750 l 1
625 750 m 1
 625 875 l 1
 750 875 l 1
 750 750 l 1
 625 750 l 1
125 625 m 1
 125 750 l 1
 250 750 l 1
 250 625 l 1
 125 625 l 1
375 625 m 1
 375 750 l 1
 750 750 l 1
 750 625 l 1
 375 625 l 1
0 500 m 1
 0 625 l 1
 250 625 l 1
 250 500 l 1
 0 500 l 1
375 500 m 1
 375 625 l 1
 500 625 l 1
 500 500 l 1
 375 500 l 1
625 500 m 1
 625 625 l 1
 750 625 l 1
 750 500 l 1
 625 500 l 1
EndSplineSet
EndChar

StartChar: trademark
Encoding: 8482 8482 268
Width: 875
Flags: HW
LayerCount: 2
Back
Fore
SplineSet
0 750 m 1
 0 875 l 1
 500 875 l 1
 500 750 l 1
 0 750 l 1
625 750 m 1
 625 875 l 1
 750 875 l 1
 750 750 l 1
 625 750 l 1
125 625 m 1
 125 750 l 1
 250 750 l 1
 250 625 l 1
 125 625 l 1
375 625 m 1
 375 750 l 1
 750 750 l 1
 750 625 l 1
 375 625 l 1
125 500 m 1
 125 625 l 1
 250 625 l 1
 250 500 l 1
 125 500 l 1
375 500 m 1
 375 625 l 1
 500 625 l 1
 500 500 l 1
 375 500 l 1
625 500 m 1
 625 625 l 1
 750 625 l 1
 750 500 l 1
 625 500 l 1
EndSplineSet
EndChar

StartChar: uni2127
Encoding: 8487 8487 269
Width: 875
Flags: HW
LayerCount: 2
Back
Fore
SplineSet
125 750 m 1
 125 875 l 1
 375 875 l 1
 375 750 l 1
 125 750 l 1
500 750 m 1
 500 875 l 1
 750 875 l 1
 750 750 l 1
 500 750 l 1
250 625 m 1
 250 750 l 1
 375 750 l 1
 375 625 l 1
 250 625 l 1
500 625 m 1
 500 750 l 1
 625 750 l 1
 625 625 l 1
 500 625 l 1
125 500 m 1
 125 625 l 1
 250 625 l 1
 250 500 l 1
 125 500 l 1
625 500 m 1
 625 625 l 1
 750 625 l 1
 750 500 l 1
 625 500 l 1
125 375 m 1
 125 500 l 1
 250 500 l 1
 250 375 l 1
 125 375 l 1
625 375 m 1
 625 500 l 1
 750 500 l 1
 750 375 l 1
 625 375 l 1
125 250 m 1
 125 375 l 1
 250 375 l 1
 250 250 l 1
 125 250 l 1
625 250 m 1
 625 375 l 1
 750 375 l 1
 750 250 l 1
 625 250 l 1
125 125 m 1
 125 250 l 1
 250 250 l 1
 250 125 l 1
 125 125 l 1
625 125 m 1
 625 250 l 1
 750 250 l 1
 750 125 l 1
 625 125 l 1
250 0 m 1
 250 125 l 1
 625 125 l 1
 625 0 l 1
 250 0 l 1
EndSplineSet
EndChar

StartChar: uni237C
Encoding: 9084 9084 270
Width: 875
Flags: HW
LayerCount: 2
Back
Fore
SplineSet
375 750 m 1
 375 875 l 1
 500 875 l 1
 500 750 l 1
 375 750 l 1
625 750 m 1
 625 875 l 1
 750 875 l 1
 750 750 l 1
 625 750 l 1
375 625 m 1
 375 750 l 1
 625 750 l 1
 625 625 l 1
 375 625 l 1
250 500 m 1
 250 625 l 1
 500 625 l 1
 500 500 l 1
 250 500 l 1
375 375 m 1
 375 500 l 1
 625 500 l 1
 625 375 l 1
 375 375 l 1
375 250 m 1
 375 375 l 1
 500 375 l 1
 500 250 l 1
 375 250 l 1
0 125 m 1
 0 250 l 1
 125 250 l 1
 125 125 l 1
 0 125 l 1
250 125 m 1
 250 250 l 1
 875 250 l 1
 875 125 l 1
 250 125 l 1
0 0 m 1
 0 125 l 1
 250 125 l 1
 250 0 l 1
 0 0 l 1
0 -125 m 1
 0 0 l 1
 375 0 l 1
 375 -125 l 1
 0 -125 l 1
EndSplineSet
EndChar

StartChar: uniFFFD
Encoding: 65533 65533 271
Width: 875
Flags: HW
LayerCount: 2
Back
Fore
SplineSet
375 750 m 1
 375 875 l 1
 500 875 l 1
 500 750 l 1
 375 750 l 1
250 625 m 1
 250 750 l 1
 625 750 l 1
 625 625 l 1
 250 625 l 1
125 500 m 1
 125 625 l 1
 250 625 l 1
 250 500 l 1
 125 500 l 1
625 500 m 1
 625 625 l 1
 750 625 l 1
 750 500 l 1
 625 500 l 1
0 375 m 1
 0 500 l 1
 375 500 l 1
 375 375 l 1
 0 375 l 1
625 375 m 1
 625 500 l 1
 875 500 l 1
 875 375 l 1
 625 375 l 1
125 250 m 1
 125 375 l 1
 750 375 l 1
 750 250 l 1
 125 250 l 1
250 125 m 1
 250 250 l 1
 375 250 l 1
 375 125 l 1
 250 125 l 1
500 125 m 1
 500 250 l 1
 625 250 l 1
 625 125 l 1
 500 125 l 1
375 0 m 1
 375 125 l 1
 500 125 l 1
 500 0 l 1
 375 0 l 1
EndSplineSet
EndChar

StartChar: uni0259
Encoding: 601 601 272
Width: 875
Flags: HW
LayerCount: 2
Back
Fore
SplineSet
125 500 m 1
 125 625 l 1
 625 625 l 1
 625 500 l 1
 125 500 l 1
625 375 m 1
 625 500 l 1
 750 500 l 1
 750 375 l 1
 625 375 l 1
125 250 m 1
 125 375 l 1
 750 375 l 1
 750 250 l 1
 125 250 l 1
125 125 m 1
 125 250 l 1
 250 250 l 1
 250 125 l 1
 125 125 l 1
625 125 m 1
 625 250 l 1
 750 250 l 1
 750 125 l 1
 625 125 l 1
250 0 m 1
 250 125 l 1
 625 125 l 1
 625 0 l 1
 250 0 l 1
EndSplineSet
EndChar

